<?xml version="1.0" encoding="utf-8"?>
<!-- Generator: Adobe Illustrator 24.0.0, SVG Export Plug-In . SVG Version: 6.00 Build 0)  -->
<svg version="1.1" id="Layer_1" xmlns="http://www.w3.org/2000/svg" xmlns:xlink="http://www.w3.org/1999/xlink" x="0px" y="0px"
	 viewBox="0 0 617 272" style="enable-background:new 0 0 617 272;" xml:space="preserve">
<style type="text/css">
	.st0{fill:#718EBF;}
	.st1{fill:#FFFFFF;filter:url(#Adobe_OpacityMaskFilter);}
	.st2{mask:url(#path-3-inside-1_1_488_1_);fill:#718EBF;}
	.st3{fill:#FFFFFF;filter:url(#Adobe_OpacityMaskFilter_1_);}
	.st4{mask:url(#path-5-inside-2_1_488_1_);fill:#718EBF;}
	.st5{fill:#FFFFFF;filter:url(#Adobe_OpacityMaskFilter_2_);}
	.st6{mask:url(#path-7-inside-3_1_488_1_);fill:#718EBF;}
	.st7{fill:#FFFFFF;filter:url(#Adobe_OpacityMaskFilter_3_);}
	.st8{mask:url(#path-9-inside-4_1_488_1_);fill:#718EBF;}
	.st9{fill:none;stroke:#DFE5EE;stroke-dasharray:4,4;}
	.st10{fill:none;stroke:#DFE5EE;}
	.st11{fill:#FF8032;}
</style>
<path class="st0" d="M24.1,168.1v-0.8l3.1-3.4c0.4-0.4,0.7-0.7,0.9-1c0.2-0.3,0.4-0.6,0.5-0.8c0.1-0.3,0.2-0.5,0.2-0.8
	c0-0.3-0.1-0.6-0.2-0.9c-0.2-0.2-0.4-0.4-0.6-0.6c-0.3-0.1-0.6-0.2-0.9-0.2c-0.4,0-0.7,0.1-1,0.2c-0.3,0.1-0.5,0.4-0.6,0.6
	c-0.1,0.3-0.2,0.6-0.2,0.9h-1.1c0-0.6,0.1-1,0.4-1.5c0.3-0.4,0.6-0.7,1-1c0.4-0.2,0.9-0.4,1.5-0.4c0.6,0,1,0.1,1.5,0.4
	c0.4,0.2,0.8,0.5,1,0.9c0.2,0.4,0.4,0.8,0.4,1.3c0,0.3-0.1,0.7-0.2,1c-0.1,0.3-0.3,0.7-0.6,1.1c-0.3,0.4-0.7,0.9-1.3,1.5l-2.1,2.3
	v0.1h4.4v1H24.1z M35.1,168.2c-0.7,0-1.3-0.2-1.8-0.6c-0.5-0.4-0.9-0.9-1.1-1.7c-0.3-0.7-0.4-1.6-0.4-2.6c0-1,0.1-1.9,0.4-2.6
	c0.3-0.7,0.6-1.3,1.1-1.7c0.5-0.4,1.1-0.6,1.8-0.6s1.3,0.2,1.8,0.6c0.5,0.4,0.9,0.9,1.1,1.7c0.3,0.7,0.4,1.6,0.4,2.6
	c0,1-0.1,1.9-0.4,2.6c-0.3,0.7-0.6,1.3-1.1,1.7C36.4,168,35.8,168.2,35.1,168.2z M35.1,167.2c0.7,0,1.2-0.3,1.6-1
	c0.4-0.7,0.6-1.6,0.6-2.8c0-0.8-0.1-1.5-0.3-2.1c-0.2-0.6-0.4-1-0.7-1.3c-0.3-0.3-0.7-0.5-1.2-0.5c-0.7,0-1.2,0.3-1.6,1
	c-0.4,0.7-0.6,1.6-0.6,2.8c0,0.8,0.1,1.5,0.3,2.1c0.2,0.6,0.4,1,0.7,1.3C34.2,167,34.6,167.2,35.1,167.2z M43.2,168.2
	c-0.7,0-1.3-0.2-1.8-0.6c-0.5-0.4-0.9-0.9-1.1-1.7c-0.3-0.7-0.4-1.6-0.4-2.6c0-1,0.1-1.9,0.4-2.6c0.3-0.7,0.6-1.3,1.1-1.7
	c0.5-0.4,1.1-0.6,1.8-0.6s1.3,0.2,1.8,0.6c0.5,0.4,0.9,0.9,1.1,1.7c0.3,0.7,0.4,1.6,0.4,2.6c0,1-0.1,1.9-0.4,2.6
	c-0.3,0.7-0.6,1.3-1.1,1.7C44.5,168,43.9,168.2,43.2,168.2z M43.2,167.2c0.7,0,1.2-0.3,1.6-1c0.4-0.7,0.6-1.6,0.6-2.8
	c0-0.8-0.1-1.5-0.3-2.1c-0.2-0.6-0.4-1-0.7-1.3c-0.3-0.3-0.7-0.5-1.2-0.5c-0.7,0-1.2,0.3-1.6,1c-0.4,0.7-0.6,1.6-0.6,2.8
	c0,0.8,0.1,1.5,0.3,2.1c0.2,0.6,0.4,1,0.7,1.3C42.4,167,42.7,167.2,43.2,167.2z"/>
<defs>
	<filter id="Adobe_OpacityMaskFilter" filterUnits="userSpaceOnUse" x="23.1" y="157.5" width="24.4" height="11.7">
		<feColorMatrix  type="matrix" values="1 0 0 0 0  0 1 0 0 0  0 0 1 0 0  0 0 0 1 0"/>
	</filter>
</defs>
<mask maskUnits="userSpaceOnUse" x="23.1" y="157.5" width="24.4" height="11.7" id="path-3-inside-1_1_488_1_">
	<path class="st1" d="M24.1,168.1v-0.8l3.1-3.4c0.4-0.4,0.7-0.7,0.9-1c0.2-0.3,0.4-0.6,0.5-0.8c0.1-0.3,0.2-0.5,0.2-0.8
		c0-0.3-0.1-0.6-0.2-0.9c-0.2-0.2-0.4-0.4-0.6-0.6c-0.3-0.1-0.6-0.2-0.9-0.2c-0.4,0-0.7,0.1-1,0.2c-0.3,0.1-0.5,0.4-0.6,0.6
		c-0.1,0.3-0.2,0.6-0.2,0.9h-1.1c0-0.6,0.1-1,0.4-1.5c0.3-0.4,0.6-0.7,1-1c0.4-0.2,0.9-0.4,1.5-0.4c0.6,0,1,0.1,1.5,0.4
		c0.4,0.2,0.8,0.5,1,0.9c0.2,0.4,0.4,0.8,0.4,1.3c0,0.3-0.1,0.7-0.2,1c-0.1,0.3-0.3,0.7-0.6,1.1c-0.3,0.4-0.7,0.9-1.3,1.5l-2.1,2.3
		v0.1h4.4v1H24.1z M35.1,168.2c-0.7,0-1.3-0.2-1.8-0.6c-0.5-0.4-0.9-0.9-1.1-1.7c-0.3-0.7-0.4-1.6-0.4-2.6c0-1,0.1-1.9,0.4-2.6
		c0.3-0.7,0.6-1.3,1.1-1.7c0.5-0.4,1.1-0.6,1.8-0.6s1.3,0.2,1.8,0.6c0.5,0.4,0.9,0.9,1.1,1.7c0.3,0.7,0.4,1.6,0.4,2.6
		c0,1-0.1,1.9-0.4,2.6c-0.3,0.7-0.6,1.3-1.1,1.7C36.4,168,35.8,168.2,35.1,168.2z M35.1,167.2c0.7,0,1.2-0.3,1.6-1
		c0.4-0.7,0.6-1.6,0.6-2.8c0-0.8-0.1-1.5-0.3-2.1c-0.2-0.6-0.4-1-0.7-1.3c-0.3-0.3-0.7-0.5-1.2-0.5c-0.7,0-1.2,0.3-1.6,1
		c-0.4,0.7-0.6,1.6-0.6,2.8c0,0.8,0.1,1.5,0.3,2.1c0.2,0.6,0.4,1,0.7,1.3C34.2,167,34.6,167.2,35.1,167.2z M43.2,168.2
		c-0.7,0-1.3-0.2-1.8-0.6c-0.5-0.4-0.9-0.9-1.1-1.7c-0.3-0.7-0.4-1.6-0.4-2.6c0-1,0.1-1.9,0.4-2.6c0.3-0.7,0.6-1.3,1.1-1.7
		c0.5-0.4,1.1-0.6,1.8-0.6s1.3,0.2,1.8,0.6c0.5,0.4,0.9,0.9,1.1,1.7c0.3,0.7,0.4,1.6,0.4,2.6c0,1-0.1,1.9-0.4,2.6
		c-0.3,0.7-0.6,1.3-1.1,1.7C44.5,168,43.9,168.2,43.2,168.2z M43.2,167.2c0.7,0,1.2-0.3,1.6-1c0.4-0.7,0.6-1.6,0.6-2.8
		c0-0.8-0.1-1.5-0.3-2.1c-0.2-0.6-0.4-1-0.7-1.3c-0.3-0.3-0.7-0.5-1.2-0.5c-0.7,0-1.2,0.3-1.6,1c-0.4,0.7-0.6,1.6-0.6,2.8
		c0,0.8,0.1,1.5,0.3,2.1c0.2,0.6,0.4,1,0.7,1.3C42.4,167,42.7,167.2,43.2,167.2z"/>
</mask>
<path class="st2" d="M24.1,168.1h-1v1h1V168.1z M24.1,167.2l-0.7-0.7l-0.3,0.3v0.4H24.1z M27.2,163.8l-0.7-0.7l0,0L27.2,163.8z
	 M28.1,162.8l0.8,0.6l0,0L28.1,162.8z M28.7,161.9l-0.9-0.4l0,0L28.7,161.9z M28.6,160.2l-0.8,0.5l0,0L28.6,160.2z M28,159.7
	l0.4-0.9l0,0L28,159.7z M26.1,159.7l0.5,0.9l0,0L26.1,159.7z M25.5,160.3l-0.9-0.5l0,0L25.5,160.3z M25.2,161.3v1h1v-1H25.2z
	 M24.2,161.3h-1v1h1V161.3z M24.5,159.8l0.9,0.5l0,0L24.5,159.8z M25.6,158.8l-0.5-0.9l0,0L25.6,158.8z M28.5,158.8l0.5-0.9l0,0
	L28.5,158.8z M29.6,159.8l-0.9,0.5L29.6,159.8z M29.7,162.1l-0.9-0.4l0,0L29.7,162.1z M29.1,163.2l-0.8-0.6l0,0L29.1,163.2z
	 M27.8,164.7l0.7,0.7l0,0L27.8,164.7z M25.7,167l-0.7-0.7l-0.3,0.3v0.4H25.7z M25.7,167h-1v1h1V167z M30.1,167h1v-1h-1V167z
	 M30.1,168.1v1h1v-1H30.1z M24.1,168.1h1v-0.8h-1h-1v0.8H24.1z M24.1,167.2l0.7,0.7l3.1-3.4l-0.7-0.7l-0.7-0.7l-3.1,3.4L24.1,167.2z
	 M27.2,163.8l0.7,0.7c0.4-0.4,0.7-0.8,0.9-1.1l-0.8-0.6l-0.8-0.6c-0.2,0.3-0.5,0.6-0.9,1L27.2,163.8z M28.1,162.8l0.8,0.6
	c0.3-0.3,0.5-0.7,0.7-1.1l-0.9-0.4l-0.9-0.4c-0.1,0.2-0.2,0.4-0.4,0.6L28.1,162.8z M28.7,161.9l0.9,0.4c0.2-0.4,0.3-0.8,0.3-1.2h-1
	h-1c0,0.1,0,0.3-0.1,0.4L28.7,161.9z M28.8,161.1h1c0-0.5-0.1-1-0.4-1.4l-0.8,0.5l-0.8,0.6c0,0.1,0.1,0.1,0.1,0.3H28.8z M28.6,160.2
	l0.8-0.5c-0.3-0.4-0.6-0.7-1.1-0.9l-0.4,0.9l-0.4,0.9c0.1,0.1,0.2,0.1,0.2,0.2L28.6,160.2z M28,159.7l0.4-0.9
	c-0.4-0.2-0.9-0.3-1.4-0.3v1v1c0.2,0,0.4,0,0.5,0.1L28,159.7z M27,159.5v-1c-0.5,0-1,0.1-1.4,0.4l0.5,0.9l0.5,0.9
	c0.1-0.1,0.2-0.1,0.5-0.1V159.5z M26.1,159.7l-0.5-0.9c-0.4,0.2-0.8,0.6-1,1l0.9,0.5l0.9,0.5c0.1-0.1,0.1-0.2,0.2-0.2L26.1,159.7z
	 M25.5,160.3l-0.9-0.5c-0.2,0.4-0.3,0.9-0.3,1.4h1h1c0-0.2,0-0.4,0.1-0.5L25.5,160.3z M25.2,161.3v-1h-1.1v1v1h1.1V161.3z
	 M24.2,161.3h1c0-0.4,0.1-0.7,0.2-0.9l-0.9-0.5l-0.9-0.5c-0.4,0.6-0.5,1.3-0.5,2H24.2z M24.5,159.8l0.9,0.5c0.2-0.3,0.4-0.5,0.7-0.6
	l-0.5-0.9l-0.5-0.9c-0.6,0.3-1.1,0.8-1.4,1.3L24.5,159.8z M25.6,158.8l0.5,0.9c0.3-0.2,0.6-0.2,1-0.2v-1v-1c-0.7,0-1.4,0.1-2,0.5
	L25.6,158.8z M27.1,158.5v1c0.4,0,0.7,0.1,1,0.2l0.5-0.9l0.5-0.9c-0.6-0.3-1.3-0.5-2-0.5V158.5z M28.5,158.8l-0.5,0.9
	c0.3,0.2,0.5,0.3,0.6,0.6l0.9-0.5l0.9-0.5c-0.3-0.6-0.8-1-1.4-1.3L28.5,158.8z M29.6,159.8l-0.9,0.5c0.1,0.2,0.2,0.5,0.2,0.8h1h1
	c0-0.7-0.2-1.3-0.5-1.8L29.6,159.8z M29.9,161.1h-1c0,0.2,0,0.4-0.1,0.7l0.9,0.4l0.9,0.4c0.2-0.4,0.3-0.9,0.3-1.4H29.9z M29.7,162.1
	l-0.9-0.3c-0.1,0.2-0.2,0.5-0.5,0.8l0.8,0.6l0.8,0.6c0.3-0.5,0.6-0.9,0.8-1.4L29.7,162.1z M29.1,163.2l-0.8-0.6
	c-0.3,0.4-0.7,0.8-1.2,1.4l0.7,0.7l0.7,0.7c0.6-0.6,1-1.1,1.3-1.6L29.1,163.2z M27.8,164.7l-0.7-0.7l-2.1,2.3l0.7,0.7l0.7,0.7
	l2.1-2.3L27.8,164.7z M25.7,167h-1v0.1L25.7,167l1,0.1V167H25.7z M25.7,167v1h4.4v-1v-1h-4.4V167z M30.1,167h-1v1h1h1v-1H30.1z
	 M30.1,168.1v-1h-6v1v1h6V168.1z M33.3,167.6l-0.6,0.8l0,0L33.3,167.6z M32.2,166l-0.9,0.3l0,0L32.2,166z M32.2,160.7l-0.9-0.3l0,0
	L32.2,160.7z M33.3,159.1l0.6,0.8h0L33.3,159.1z M36.8,159.1l-0.6,0.8l0,0L36.8,159.1z M38,160.7L37,161l0,0L38,160.7z M38,166
	l0.9,0.3l0,0L38,166z M36.9,167.6l0.6,0.8l0,0L36.9,167.6z M36.7,166.2l-0.9-0.5L36.7,166.2z M37,161.2l-1,0.3l0,0L37,161.2z
	 M36.2,159.9l-0.7,0.7l0,0L36.2,159.9z M33.5,160.5l0.9,0.5l0,0L33.5,160.5z M33.2,165.4l-1,0.3l0,0L33.2,165.4z M33.9,166.7
	l-0.7,0.7l0,0L33.9,166.7z M35.1,168.2v-1c-0.5,0-0.9-0.1-1.2-0.4l-0.6,0.8l-0.6,0.8c0.7,0.5,1.5,0.8,2.4,0.8V168.2z M33.3,167.6
	l0.6-0.8c-0.3-0.2-0.6-0.6-0.8-1.2l-0.9,0.3l-0.9,0.3c0.3,0.9,0.8,1.6,1.4,2.1L33.3,167.6z M32.2,166l0.9-0.3
	c-0.2-0.6-0.3-1.3-0.3-2.3h-1h-1c0,1.1,0.1,2.1,0.4,3L32.2,166z M31.8,163.3h1c0-0.9,0.1-1.7,0.3-2.3l-0.9-0.3l-0.9-0.3
	c-0.3,0.9-0.4,1.9-0.4,3H31.8z M32.2,160.7l0.9,0.3c0.2-0.6,0.5-1,0.8-1.2l-0.6-0.8l-0.6-0.8c-0.7,0.5-1.1,1.3-1.5,2.1L32.2,160.7z
	 M33.3,159.1l0.6,0.8c0.3-0.2,0.7-0.4,1.2-0.4v-1v-1c-0.9,0-1.7,0.3-2.4,0.8L33.3,159.1z M35.1,158.5v1c0.5,0,0.9,0.1,1.2,0.4
	l0.6-0.8l0.6-0.8c-0.7-0.5-1.5-0.8-2.4-0.8V158.5z M36.8,159.1l-0.6,0.8c0.3,0.2,0.6,0.6,0.8,1.2l0.9-0.3l0.9-0.3
	c-0.3-0.9-0.8-1.6-1.5-2.1L36.8,159.1z M38,160.7l-0.9,0.3c0.2,0.6,0.3,1.3,0.3,2.3h1h1c0-1.1-0.1-2.1-0.5-3L38,160.7z M38.4,163.3
	h-1c0,0.9-0.1,1.7-0.3,2.3L38,166l0.9,0.3c0.3-0.9,0.4-1.9,0.4-3H38.4z M38,166l-0.9-0.3c-0.2,0.6-0.5,1-0.8,1.2l0.6,0.8l0.6,0.8
	c0.7-0.5,1.1-1.2,1.4-2.1L38,166z M36.9,167.6l-0.6-0.8c-0.3,0.2-0.7,0.4-1.2,0.4v1v1c0.9,0,1.7-0.2,2.4-0.8L36.9,167.6z
	 M35.1,167.2v1c1.1,0,1.9-0.6,2.5-1.5l-0.9-0.5l-0.9-0.5c-0.2,0.4-0.5,0.5-0.7,0.5V167.2z M36.7,166.2l0.9,0.5
	c0.5-0.9,0.7-2,0.7-3.3h-1h-1c0,1.2-0.2,1.9-0.4,2.3L36.7,166.2z M37.3,163.3h1c0-0.9-0.1-1.7-0.3-2.4l-1,0.3l-1,0.3
	c0.1,0.5,0.2,1,0.2,1.8H37.3z M37,161.2l1-0.3c-0.2-0.7-0.5-1.3-1-1.8l-0.7,0.7l-0.7,0.7c0.2,0.1,0.3,0.4,0.5,0.9L37,161.2z
	 M36.2,159.9l0.7-0.7c-0.5-0.5-1.2-0.7-1.9-0.7v1v1c0.2,0,0.4,0.1,0.5,0.2L36.2,159.9z M35.1,159.5v-1c-1.1,0-1.9,0.6-2.5,1.5
	l0.9,0.5l0.9,0.5c0.2-0.4,0.5-0.5,0.7-0.5V159.5z M33.5,160.5l-0.9-0.5c-0.5,0.9-0.7,2-0.7,3.3h1h1c0-1.1,0.2-1.9,0.4-2.4
	L33.5,160.5z M32.9,163.3h-1c0,0.9,0.1,1.7,0.3,2.4l1-0.3l1-0.3c-0.1-0.5-0.2-1-0.2-1.8H32.9z M33.2,165.4l-1,0.3
	c0.2,0.7,0.5,1.3,1,1.8l0.7-0.7l0.7-0.7c-0.2-0.1-0.3-0.4-0.5-0.9L33.2,165.4z M33.9,166.7l-0.7,0.7c0.5,0.5,1.2,0.7,1.9,0.7v-1v-1
	c-0.2,0-0.4-0.1-0.5-0.2L33.9,166.7z M41.4,167.6l-0.6,0.8l0,0L41.4,167.6z M40.3,166l-0.9,0.3l0,0L40.3,166z M40.3,160.7l-0.9-0.3
	l0,0L40.3,160.7z M41.4,159.1l0.6,0.8h0L41.4,159.1z M45,159.1l-0.6,0.8l0,0L45,159.1z M46.1,160.7l-0.9,0.3l0,0L46.1,160.7z
	 M46.1,166l0.9,0.3l0,0L46.1,166z M45,167.6l0.6,0.8l0,0L45,167.6z M44.8,166.2l-0.9-0.5L44.8,166.2z M45.1,161.2l-1,0.3l0,0
	L45.1,161.2z M44.4,159.9l-0.7,0.7l0,0L44.4,159.9z M41.6,160.5l0.9,0.5l0,0L41.6,160.5z M41.3,165.4l-1,0.3L41.3,165.4z M42,166.7
	l-0.7,0.7l0,0L42,166.7z M43.2,168.2v-1c-0.5,0-0.9-0.1-1.2-0.4l-0.6,0.8l-0.6,0.8c0.7,0.5,1.5,0.8,2.4,0.8V168.2z M41.4,167.6
	l0.6-0.8c-0.3-0.2-0.6-0.6-0.8-1.2l-0.9,0.3l-0.9,0.3c0.3,0.9,0.8,1.6,1.4,2.1L41.4,167.6z M40.3,166l0.9-0.3
	c-0.2-0.6-0.3-1.3-0.3-2.3h-1h-1c0,1.1,0.1,2.1,0.4,3L40.3,166z M39.9,163.3h1c0-0.9,0.1-1.7,0.3-2.3l-0.9-0.3l-0.9-0.3
	c-0.3,0.9-0.4,1.9-0.4,3H39.9z M40.3,160.7l0.9,0.3c0.2-0.6,0.5-1,0.8-1.2l-0.6-0.8l-0.6-0.8c-0.7,0.5-1.1,1.3-1.5,2.1L40.3,160.7z
	 M41.4,159.1l0.6,0.8c0.3-0.2,0.7-0.4,1.2-0.4v-1v-1c-0.9,0-1.7,0.3-2.4,0.8L41.4,159.1z M43.2,158.5v1c0.5,0,0.9,0.1,1.2,0.4
	l0.6-0.8l0.6-0.8c-0.7-0.5-1.5-0.8-2.4-0.8V158.5z M45,159.1l-0.6,0.8c0.3,0.2,0.6,0.6,0.8,1.2l0.9-0.3l0.9-0.3
	c-0.3-0.9-0.8-1.6-1.5-2.1L45,159.1z M46.1,160.7l-0.9,0.3c0.2,0.6,0.3,1.3,0.3,2.3h1h1c0-1.1-0.1-2.1-0.5-3L46.1,160.7z
	 M46.5,163.3h-1c0,0.9-0.1,1.7-0.3,2.3l0.9,0.3l0.9,0.3c0.3-0.9,0.4-1.9,0.4-3H46.5z M46.1,166l-0.9-0.3c-0.2,0.6-0.5,1-0.8,1.2
	l0.6,0.8l0.6,0.8c0.7-0.5,1.1-1.2,1.4-2.1L46.1,166z M45,167.6l-0.6-0.8c-0.3,0.2-0.7,0.4-1.2,0.4v1v1c0.9,0,1.7-0.2,2.4-0.8
	L45,167.6z M43.2,167.2v1c1.1,0,1.9-0.6,2.5-1.5l-0.9-0.5l-0.9-0.5c-0.2,0.4-0.5,0.5-0.7,0.5V167.2z M44.8,166.2l0.9,0.5
	c0.5-0.9,0.7-2,0.7-3.3h-1h-1c0,1.2-0.2,1.9-0.4,2.3L44.8,166.2z M45.4,163.3h1c0-0.9-0.1-1.7-0.3-2.4l-1,0.3l-1,0.3
	c0.1,0.5,0.2,1,0.2,1.8H45.4z M45.1,161.2l1-0.3c-0.2-0.7-0.5-1.3-1-1.8l-0.7,0.7l-0.7,0.7c0.2,0.1,0.3,0.4,0.5,0.9L45.1,161.2z
	 M44.4,159.9l0.7-0.7c-0.5-0.5-1.2-0.7-1.9-0.7v1v1c0.2,0,0.4,0.1,0.5,0.2L44.4,159.9z M43.2,159.5v-1c-1.1,0-1.9,0.6-2.5,1.5
	l0.9,0.5l0.9,0.5c0.2-0.4,0.5-0.5,0.7-0.5V159.5z M41.6,160.5l-0.9-0.5c-0.5,0.9-0.7,2-0.7,3.3h1h1c0-1.1,0.2-1.9,0.4-2.4
	L41.6,160.5z M41,163.3h-1c0,0.9,0.1,1.7,0.3,2.4l1-0.3l1-0.3c-0.1-0.5-0.2-1-0.2-1.8H41z M41.3,165.4l-1,0.3c0.2,0.7,0.5,1.3,1,1.8
	l0.7-0.7l0.7-0.7c-0.2-0.1-0.3-0.4-0.5-0.9L41.3,165.4z M42,166.7l-0.7,0.7c0.5,0.5,1.2,0.7,1.9,0.7v-1v-1c-0.2,0-0.4-0.1-0.5-0.2
	L42,166.7z"/>
<path class="st0" d="M23,121.1v-0.9l4.2-6.6h0.7v1.5h-0.5l-3.1,5v0.1h5.6v1H23z M27.5,123.1v-2.2v-0.4v-6.8h1.1v9.5H27.5z
	 M34.7,123.2c-0.7,0-1.3-0.2-1.8-0.6c-0.5-0.4-0.9-0.9-1.1-1.7c-0.3-0.7-0.4-1.6-0.4-2.6c0-1,0.1-1.9,0.4-2.6
	c0.3-0.7,0.6-1.3,1.1-1.7c0.5-0.4,1.1-0.6,1.8-0.6s1.3,0.2,1.8,0.6c0.5,0.4,0.9,0.9,1.1,1.7c0.3,0.7,0.4,1.6,0.4,2.6
	c0,1-0.1,1.9-0.4,2.6c-0.3,0.7-0.6,1.3-1.1,1.7C36,123,35.4,123.2,34.7,123.2z M34.7,122.2c0.7,0,1.2-0.3,1.6-1
	c0.4-0.7,0.6-1.6,0.6-2.8c0-0.8-0.1-1.5-0.3-2.1c-0.2-0.6-0.4-1-0.7-1.3c-0.3-0.3-0.7-0.5-1.2-0.5c-0.7,0-1.2,0.3-1.6,1
	c-0.4,0.7-0.6,1.6-0.6,2.8c0,0.8,0.1,1.5,0.3,2.1c0.2,0.6,0.4,1,0.7,1.3C33.8,122.1,34.2,122.2,34.7,122.2z M42.8,123.2
	c-0.7,0-1.3-0.2-1.8-0.6c-0.5-0.4-0.9-0.9-1.1-1.7c-0.3-0.7-0.4-1.6-0.4-2.6c0-1,0.1-1.9,0.4-2.6c0.3-0.7,0.6-1.3,1.1-1.7
	c0.5-0.4,1.1-0.6,1.8-0.6s1.3,0.2,1.8,0.6c0.5,0.4,0.9,0.9,1.1,1.7c0.3,0.7,0.4,1.6,0.4,2.6c0,1-0.1,1.9-0.4,2.6
	c-0.3,0.7-0.6,1.3-1.1,1.7C44.1,123,43.5,123.2,42.8,123.2z M42.8,122.2c0.7,0,1.2-0.3,1.6-1c0.4-0.7,0.6-1.6,0.6-2.8
	c0-0.8-0.1-1.5-0.3-2.1c-0.2-0.6-0.4-1-0.7-1.3c-0.3-0.3-0.7-0.5-1.2-0.5c-0.7,0-1.2,0.3-1.6,1c-0.4,0.7-0.6,1.6-0.6,2.8
	c0,0.8,0.1,1.5,0.3,2.1c0.2,0.6,0.4,1,0.7,1.3C41.9,122.1,42.3,122.2,42.8,122.2z"/>
<defs>
	<filter id="Adobe_OpacityMaskFilter_1_" filterUnits="userSpaceOnUse" x="22" y="112.5" width="25.1" height="11.7">
		<feColorMatrix  type="matrix" values="1 0 0 0 0  0 1 0 0 0  0 0 1 0 0  0 0 0 1 0"/>
	</filter>
</defs>
<mask maskUnits="userSpaceOnUse" x="22" y="112.5" width="25.1" height="11.7" id="path-5-inside-2_1_488_1_">
	<path class="st3" d="M23,121.1v-0.9l4.2-6.6h0.7v1.5h-0.5l-3.1,5v0.1h5.6v1H23z M27.5,123.1v-2.2v-0.4v-6.8h1.1v9.5H27.5z
		 M34.7,123.2c-0.7,0-1.3-0.2-1.8-0.6c-0.5-0.4-0.9-0.9-1.1-1.7c-0.3-0.7-0.4-1.6-0.4-2.6c0-1,0.1-1.9,0.4-2.6
		c0.3-0.7,0.6-1.3,1.1-1.7c0.5-0.4,1.1-0.6,1.8-0.6s1.3,0.2,1.8,0.6c0.5,0.4,0.9,0.9,1.1,1.7c0.3,0.7,0.4,1.6,0.4,2.6
		c0,1-0.1,1.9-0.4,2.6c-0.3,0.7-0.6,1.3-1.1,1.7C36,123,35.4,123.2,34.7,123.2z M34.7,122.2c0.7,0,1.2-0.3,1.6-1
		c0.4-0.7,0.6-1.6,0.6-2.8c0-0.8-0.1-1.5-0.3-2.1c-0.2-0.6-0.4-1-0.7-1.3c-0.3-0.3-0.7-0.5-1.2-0.5c-0.7,0-1.2,0.3-1.6,1
		c-0.4,0.7-0.6,1.6-0.6,2.8c0,0.8,0.1,1.5,0.3,2.1c0.2,0.6,0.4,1,0.7,1.3C33.8,122.1,34.2,122.2,34.7,122.2z M42.8,123.2
		c-0.7,0-1.3-0.2-1.8-0.6c-0.5-0.4-0.9-0.9-1.1-1.7c-0.3-0.7-0.4-1.6-0.4-2.6c0-1,0.1-1.9,0.4-2.6c0.3-0.7,0.6-1.3,1.1-1.7
		c0.5-0.4,1.1-0.6,1.8-0.6s1.3,0.2,1.8,0.6c0.5,0.4,0.9,0.9,1.1,1.7c0.3,0.7,0.4,1.6,0.4,2.6c0,1-0.1,1.9-0.4,2.6
		c-0.3,0.7-0.6,1.3-1.1,1.7C44.1,123,43.5,123.2,42.8,123.2z M42.8,122.2c0.7,0,1.2-0.3,1.6-1c0.4-0.7,0.6-1.6,0.6-2.8
		c0-0.8-0.1-1.5-0.3-2.1c-0.2-0.6-0.4-1-0.7-1.3c-0.3-0.3-0.7-0.5-1.2-0.5c-0.7,0-1.2,0.3-1.6,1c-0.4,0.7-0.6,1.6-0.6,2.8
		c0,0.8,0.1,1.5,0.3,2.1c0.2,0.6,0.4,1,0.7,1.3C41.9,122.1,42.3,122.2,42.8,122.2z"/>
</mask>
<path class="st4" d="M23,121.1h-1v1h1V121.1z M23,120.2l-0.8-0.5l-0.2,0.2v0.3H23z M27.2,113.6v-1h-0.6l-0.3,0.5L27.2,113.6z
	 M27.9,113.6h1v-1h-1V113.6z M27.9,115.1v1h1v-1H27.9z M27.4,115.1v-1h-0.6l-0.3,0.5L27.4,115.1z M24.3,120.1l-0.8-0.5l-0.2,0.2v0.3
	H24.3z M24.3,120.1h-1v1h1V120.1z M29.8,120.1h1v-1h-1V120.1z M29.8,121.1v1h1v-1H29.8z M27.5,123.1h-1v1h1V123.1z M27.5,113.6v-1
	h-1v1H27.5z M28.6,113.6h1v-1h-1V113.6z M28.6,123.1v1h1v-1H28.6z M23,121.1h1v-0.9h-1h-1v0.9H23z M23,120.2l0.8,0.5l4.2-6.6
	l-0.8-0.5l-0.8-0.5l-4.2,6.6L23,120.2z M27.2,113.6v1h0.7v-1v-1h-0.7V113.6z M27.9,113.6h-1v1.5h1h1v-1.5H27.9z M27.9,115.1v-1h-0.5
	v1v1h0.5V115.1z M27.4,115.1l-0.8-0.5l-3.1,5l0.8,0.5l0.8,0.5l3.1-5L27.4,115.1z M24.3,120.1h-1v0.1L24.3,120.1l1,0.1v-0.1H24.3z
	 M24.3,120.1v1h5.6v-1v-1h-5.6V120.1z M29.8,120.1h-1v1h1h1v-1H29.8z M29.8,121.1v-1H23v1v1h6.8V121.1z M27.5,123.1h1v-2.2h-1h-1
	v2.2H27.5z M27.5,120.9h1v-0.4h-1h-1v0.4H27.5z M27.5,120.4h1v-6.8h-1h-1v6.8H27.5z M27.5,113.6v1h1.1v-1v-1h-1.1V113.6z
	 M28.6,113.6h-1v9.5h1h1v-9.5H28.6z M28.6,123.1v-1h-1.1v1v1h1.1V123.1z M32.9,122.6l-0.6,0.8l0,0L32.9,122.6z M31.8,121l-0.9,0.3
	l0,0L31.8,121z M31.8,115.7l-0.9-0.3l0,0L31.8,115.7z M32.9,114.1l0.6,0.8l0,0L32.9,114.1z M36.4,114.1l-0.6,0.8l0,0L36.4,114.1z
	 M37.6,115.7l-0.9,0.3l0,0L37.6,115.7z M37.6,121l0.9,0.3l0,0L37.6,121z M36.4,122.6l0.6,0.8l0,0L36.4,122.6z M36.3,121.2l-0.9-0.5
	L36.3,121.2z M36.6,116.3l-1,0.3l0,0L36.6,116.3z M35.8,115l-0.7,0.7l0,0L35.8,115z M33.1,115.5l0.9,0.5l0,0L33.1,115.5z
	 M32.7,120.4l-1,0.3l0,0L32.7,120.4z M33.5,121.8l-0.7,0.7l0,0L33.5,121.8z M34.7,123.2v-1c-0.5,0-0.9-0.1-1.2-0.4l-0.6,0.8
	l-0.6,0.8c0.7,0.5,1.5,0.8,2.4,0.8V123.2z M32.9,122.6l0.6-0.8c-0.3-0.2-0.6-0.6-0.8-1.2l-0.9,0.3l-0.9,0.3c0.3,0.9,0.8,1.6,1.4,2.1
	L32.9,122.6z M31.8,121l0.9-0.3c-0.2-0.6-0.3-1.3-0.3-2.3h-1h-1c0,1.1,0.1,2.1,0.4,3L31.8,121z M31.4,118.4h1c0-0.9,0.1-1.7,0.3-2.3
	l-0.9-0.3l-0.9-0.3c-0.3,0.9-0.4,1.9-0.4,3H31.4z M31.8,115.7l0.9,0.3c0.2-0.6,0.5-1,0.8-1.2l-0.6-0.8l-0.6-0.8
	c-0.7,0.5-1.1,1.3-1.5,2.1L31.8,115.7z M32.9,114.1l0.6,0.8c0.3-0.2,0.7-0.4,1.2-0.4v-1v-1c-0.9,0-1.7,0.3-2.4,0.8L32.9,114.1z
	 M34.7,113.5v1c0.5,0,0.9,0.1,1.2,0.4l0.6-0.8l0.6-0.8c-0.7-0.5-1.5-0.8-2.4-0.8V113.5z M36.4,114.1l-0.6,0.8
	c0.3,0.2,0.6,0.6,0.8,1.2l0.9-0.3l0.9-0.3c-0.3-0.9-0.8-1.6-1.5-2.1L36.4,114.1z M37.6,115.7l-0.9,0.3c0.2,0.6,0.3,1.3,0.3,2.3h1h1
	c0-1.1-0.1-2.1-0.5-3L37.6,115.7z M37.9,118.4h-1c0,0.9-0.1,1.7-0.3,2.3l0.9,0.3l0.9,0.3c0.3-0.9,0.4-1.9,0.4-3H37.9z M37.6,121
	l-0.9-0.3c-0.2,0.6-0.5,1-0.8,1.2l0.6,0.8l0.6,0.8c0.7-0.5,1.1-1.2,1.4-2.1L37.6,121z M36.4,122.6l-0.6-0.8
	c-0.3,0.2-0.7,0.4-1.2,0.4v1v1c0.9,0,1.7-0.2,2.4-0.8L36.4,122.6z M34.7,122.2v1c1.1,0,1.9-0.6,2.5-1.5l-0.9-0.5l-0.9-0.5
	c-0.2,0.4-0.5,0.5-0.7,0.5V122.2z M36.3,121.2l0.9,0.5c0.5-0.9,0.7-2,0.7-3.3h-1h-1c0,1.2-0.2,1.9-0.4,2.3L36.3,121.2z M36.8,118.4
	h1c0-0.9-0.1-1.7-0.3-2.4l-1,0.3l-1,0.3c0.1,0.5,0.2,1,0.2,1.8H36.8z M36.6,116.3l1-0.3c-0.2-0.7-0.5-1.3-1-1.8l-0.7,0.7l-0.7,0.7
	c0.2,0.1,0.3,0.4,0.5,0.9L36.6,116.3z M35.8,115l0.7-0.7c-0.5-0.5-1.2-0.7-1.9-0.7v1v1c0.2,0,0.4,0.1,0.5,0.2L35.8,115z M34.7,114.5
	v-1c-1.1,0-1.9,0.6-2.5,1.5l0.9,0.5l0.9,0.5c0.2-0.4,0.5-0.5,0.7-0.5V114.5z M33.1,115.5l-0.9-0.5c-0.5,0.9-0.7,2-0.7,3.3h1h1
	c0-1.1,0.2-1.9,0.4-2.4L33.1,115.5z M32.5,118.4h-1c0,0.9,0.1,1.7,0.3,2.4l1-0.3l1-0.3c-0.1-0.5-0.2-1-0.2-1.8H32.5z M32.7,120.4
	l-1,0.3c0.2,0.7,0.5,1.3,1,1.8l0.7-0.7l0.7-0.7c-0.2-0.1-0.3-0.4-0.5-0.9L32.7,120.4z M33.5,121.8l-0.7,0.7c0.5,0.5,1.2,0.7,1.9,0.7
	v-1v-1c-0.2,0-0.4-0.1-0.5-0.2L33.5,121.8z M41,122.6l-0.6,0.8l0,0L41,122.6z M39.9,121l-0.9,0.3l0,0L39.9,121z M39.9,115.7
	l-0.9-0.3l0,0L39.9,115.7z M41,114.1l0.6,0.8l0,0L41,114.1z M44.6,114.1l-0.6,0.8l0,0L44.6,114.1z M45.7,115.7l-0.9,0.3l0,0
	L45.7,115.7z M45.7,121l0.9,0.3l0,0L45.7,121z M44.6,122.6l0.6,0.8l0,0L44.6,122.6z M44.4,121.2l-0.9-0.5L44.4,121.2z M44.7,116.3
	l-1,0.3l0,0L44.7,116.3z M44,115l-0.7,0.7l0,0L44,115z M41.2,115.5l0.9,0.5l0,0L41.2,115.5z M40.9,120.4l-1,0.3L40.9,120.4z
	 M41.6,121.8l-0.7,0.7l0,0L41.6,121.8z M42.8,123.2v-1c-0.5,0-0.9-0.1-1.2-0.4l-0.6,0.8l-0.6,0.8c0.7,0.5,1.5,0.8,2.4,0.8V123.2z
	 M41,122.6l0.6-0.8c-0.3-0.2-0.6-0.6-0.8-1.2l-0.9,0.3l-0.9,0.3c0.3,0.9,0.8,1.6,1.4,2.1L41,122.6z M39.9,121l0.9-0.3
	c-0.2-0.6-0.3-1.3-0.3-2.3h-1h-1c0,1.1,0.1,2.1,0.4,3L39.9,121z M39.5,118.4h1c0-0.9,0.1-1.7,0.3-2.3l-0.9-0.3l-0.9-0.3
	c-0.3,0.9-0.4,1.9-0.4,3H39.5z M39.9,115.7l0.9,0.3c0.2-0.6,0.5-1,0.8-1.2l-0.6-0.8l-0.6-0.8c-0.7,0.5-1.1,1.3-1.5,2.1L39.9,115.7z
	 M41,114.1l0.6,0.8c0.3-0.2,0.7-0.4,1.2-0.4v-1v-1c-0.9,0-1.7,0.3-2.4,0.8L41,114.1z M42.8,113.5v1c0.5,0,0.9,0.1,1.2,0.4l0.6-0.8
	l0.6-0.8c-0.7-0.5-1.5-0.8-2.4-0.8V113.5z M44.6,114.1l-0.6,0.8c0.3,0.2,0.6,0.6,0.8,1.2l0.9-0.3l0.9-0.3c-0.3-0.9-0.8-1.6-1.5-2.1
	L44.6,114.1z M45.7,115.7l-0.9,0.3c0.2,0.6,0.3,1.3,0.3,2.3h1h1c0-1.1-0.1-2.1-0.5-3L45.7,115.7z M46.1,118.4h-1
	c0,0.9-0.1,1.7-0.3,2.3l0.9,0.3l0.9,0.3c0.3-0.9,0.4-1.9,0.4-3H46.1z M45.7,121l-0.9-0.3c-0.2,0.6-0.5,1-0.8,1.2l0.6,0.8l0.6,0.8
	c0.7-0.5,1.1-1.2,1.4-2.1L45.7,121z M44.6,122.6l-0.6-0.8c-0.3,0.2-0.7,0.4-1.2,0.4v1v1c0.9,0,1.7-0.2,2.4-0.8L44.6,122.6z
	 M42.8,122.2v1c1.1,0,1.9-0.6,2.5-1.5l-0.9-0.5l-0.9-0.5c-0.2,0.4-0.5,0.5-0.7,0.5V122.2z M44.4,121.2l0.9,0.5
	c0.5-0.9,0.7-2,0.7-3.3h-1h-1c0,1.2-0.2,1.9-0.4,2.3L44.4,121.2z M45,118.4h1c0-0.9-0.1-1.7-0.3-2.4l-1,0.3l-1,0.3
	c0.1,0.5,0.2,1,0.2,1.8H45z M44.7,116.3l1-0.3c-0.2-0.7-0.5-1.3-1-1.8L44,115l-0.7,0.7c0.2,0.1,0.3,0.4,0.5,0.9L44.7,116.3z M44,115
	l0.7-0.7c-0.5-0.5-1.2-0.7-1.9-0.7v1v1c0.2,0,0.4,0.1,0.5,0.2L44,115z M42.8,114.5v-1c-1.1,0-1.9,0.6-2.5,1.5l0.9,0.5l0.9,0.5
	c0.2-0.4,0.5-0.5,0.7-0.5V114.5z M41.2,115.5l-0.9-0.5c-0.5,0.9-0.7,2-0.7,3.3h1h1c0-1.1,0.2-1.9,0.4-2.4L41.2,115.5z M40.6,118.4
	h-1c0,0.9,0.1,1.7,0.3,2.4l1-0.3l1-0.3c-0.1-0.5-0.2-1-0.2-1.8H40.6z M40.9,120.4l-1,0.3c0.2,0.7,0.5,1.3,1,1.8l0.7-0.7l0.7-0.7
	c-0.2-0.1-0.3-0.4-0.5-0.9L40.9,120.4z M41.6,121.8l-0.7,0.7c0.5,0.5,1.2,0.7,1.9,0.7v-1v-1c-0.2,0-0.4-0.1-0.5-0.2L41.6,121.8z"/>
<path class="st0" d="M26.6,77.3c-0.4,0-0.8-0.1-1.2-0.2c-0.4-0.1-0.7-0.4-1.1-0.7c-0.3-0.3-0.6-0.8-0.8-1.4
	c-0.2-0.6-0.3-1.3-0.3-2.2c0-0.8,0.1-1.6,0.2-2.2c0.2-0.6,0.4-1.2,0.7-1.6c0.3-0.4,0.7-0.8,1.1-1c0.4-0.2,0.9-0.3,1.4-0.3
	c0.5,0,1,0.1,1.4,0.3c0.4,0.2,0.8,0.5,1,0.9c0.3,0.4,0.4,0.8,0.5,1.3h-1.1c-0.1-0.4-0.3-0.8-0.6-1.1s-0.7-0.4-1.2-0.4
	c-0.7,0-1.3,0.3-1.7,1c-0.4,0.6-0.6,1.5-0.6,2.7h0.1c0.2-0.3,0.4-0.5,0.6-0.7c0.2-0.2,0.5-0.3,0.8-0.4c0.3-0.1,0.6-0.2,0.9-0.2
	c0.5,0,1,0.1,1.5,0.4c0.4,0.3,0.8,0.6,1.1,1.1c0.3,0.5,0.4,1,0.4,1.6c0,0.6-0.1,1.1-0.4,1.6c-0.3,0.5-0.6,0.9-1.1,1.2
	C27.8,77.1,27.2,77.3,26.6,77.3z M26.6,76.3c0.4,0,0.7-0.1,1-0.3c0.3-0.2,0.6-0.5,0.7-0.8c0.2-0.3,0.3-0.7,0.3-1.1
	c0-0.4-0.1-0.7-0.3-1.1c-0.2-0.3-0.4-0.6-0.7-0.8c-0.3-0.2-0.6-0.3-1-0.3c-0.3,0-0.6,0.1-0.8,0.2c-0.3,0.1-0.5,0.3-0.7,0.5
	c-0.2,0.2-0.3,0.4-0.4,0.7c-0.1,0.3-0.2,0.5-0.2,0.8c0,0.4,0.1,0.7,0.3,1.1c0.2,0.3,0.4,0.6,0.7,0.8C25.9,76.2,26.2,76.3,26.6,76.3z
	 M34.7,77.3c-0.7,0-1.3-0.2-1.8-0.6c-0.5-0.4-0.9-0.9-1.1-1.7c-0.3-0.7-0.4-1.6-0.4-2.6c0-1,0.1-1.9,0.4-2.6
	c0.3-0.7,0.6-1.3,1.1-1.7c0.5-0.4,1.1-0.6,1.8-0.6s1.3,0.2,1.8,0.6c0.5,0.4,0.9,0.9,1.1,1.7c0.3,0.7,0.4,1.6,0.4,2.6
	c0,1-0.1,1.9-0.4,2.6c-0.3,0.7-0.6,1.3-1.1,1.7C36,77.1,35.4,77.3,34.7,77.3z M34.7,76.3c0.7,0,1.2-0.3,1.6-1
	c0.4-0.7,0.6-1.6,0.6-2.8c0-0.8-0.1-1.5-0.3-2.1c-0.2-0.6-0.4-1-0.7-1.3c-0.3-0.3-0.7-0.5-1.2-0.5c-0.7,0-1.2,0.3-1.6,1
	c-0.4,0.7-0.6,1.6-0.6,2.8c0,0.8,0.1,1.5,0.3,2.1c0.2,0.6,0.4,1,0.7,1.3C33.8,76.1,34.2,76.3,34.7,76.3z M42.8,77.3
	c-0.7,0-1.3-0.2-1.8-0.6c-0.5-0.4-0.9-0.9-1.1-1.7c-0.3-0.7-0.4-1.6-0.4-2.6c0-1,0.1-1.9,0.4-2.6c0.3-0.7,0.6-1.3,1.1-1.7
	c0.5-0.4,1.1-0.6,1.8-0.6s1.3,0.2,1.8,0.6c0.5,0.4,0.9,0.9,1.1,1.7c0.3,0.7,0.4,1.6,0.4,2.6c0,1-0.1,1.9-0.4,2.6
	c-0.3,0.7-0.6,1.3-1.1,1.7C44.1,77.1,43.5,77.3,42.8,77.3z M42.8,76.3c0.7,0,1.2-0.3,1.6-1c0.4-0.7,0.6-1.6,0.6-2.8
	c0-0.8-0.1-1.5-0.3-2.1c-0.2-0.6-0.4-1-0.7-1.3c-0.3-0.3-0.7-0.5-1.2-0.5c-0.7,0-1.2,0.3-1.6,1c-0.4,0.7-0.6,1.6-0.6,2.8
	c0,0.8,0.1,1.5,0.3,2.1c0.2,0.6,0.4,1,0.7,1.3C41.9,76.1,42.3,76.3,42.8,76.3z"/>
<defs>
	<filter id="Adobe_OpacityMaskFilter_2_" filterUnits="userSpaceOnUse" x="22.3" y="66.6" width="24.8" height="11.7">
		<feColorMatrix  type="matrix" values="1 0 0 0 0  0 1 0 0 0  0 0 1 0 0  0 0 0 1 0"/>
	</filter>
</defs>
<mask maskUnits="userSpaceOnUse" x="22.3" y="66.6" width="24.8" height="11.7" id="path-7-inside-3_1_488_1_">
	<path class="st5" d="M26.6,77.3c-0.4,0-0.8-0.1-1.2-0.2c-0.4-0.1-0.7-0.4-1.1-0.7c-0.3-0.3-0.6-0.8-0.8-1.4
		c-0.2-0.6-0.3-1.3-0.3-2.2c0-0.8,0.1-1.6,0.2-2.2c0.2-0.6,0.4-1.2,0.7-1.6c0.3-0.4,0.7-0.8,1.1-1c0.4-0.2,0.9-0.3,1.4-0.3
		c0.5,0,1,0.1,1.4,0.3c0.4,0.2,0.8,0.5,1,0.9c0.3,0.4,0.4,0.8,0.5,1.3h-1.1c-0.1-0.4-0.3-0.8-0.6-1.1s-0.7-0.4-1.2-0.4
		c-0.7,0-1.3,0.3-1.7,1c-0.4,0.6-0.6,1.5-0.6,2.7h0.1c0.2-0.3,0.4-0.5,0.6-0.7c0.2-0.2,0.5-0.3,0.8-0.4c0.3-0.1,0.6-0.2,0.9-0.2
		c0.5,0,1,0.1,1.5,0.4c0.4,0.3,0.8,0.6,1.1,1.1c0.3,0.5,0.4,1,0.4,1.6c0,0.6-0.1,1.1-0.4,1.6c-0.3,0.5-0.6,0.9-1.1,1.2
		C27.8,77.1,27.2,77.3,26.6,77.3z M26.6,76.3c0.4,0,0.7-0.1,1-0.3c0.3-0.2,0.6-0.5,0.7-0.8c0.2-0.3,0.3-0.7,0.3-1.1
		c0-0.4-0.1-0.7-0.3-1.1c-0.2-0.3-0.4-0.6-0.7-0.8c-0.3-0.2-0.6-0.3-1-0.3c-0.3,0-0.6,0.1-0.8,0.2c-0.3,0.1-0.5,0.3-0.7,0.5
		c-0.2,0.2-0.3,0.4-0.4,0.7c-0.1,0.3-0.2,0.5-0.2,0.8c0,0.4,0.1,0.7,0.3,1.1c0.2,0.3,0.4,0.6,0.7,0.8C25.9,76.2,26.2,76.3,26.6,76.3
		z M34.7,77.3c-0.7,0-1.3-0.2-1.8-0.6c-0.5-0.4-0.9-0.9-1.1-1.7c-0.3-0.7-0.4-1.6-0.4-2.6c0-1,0.1-1.9,0.4-2.6
		c0.3-0.7,0.6-1.3,1.1-1.7c0.5-0.4,1.1-0.6,1.8-0.6s1.3,0.2,1.8,0.6c0.5,0.4,0.9,0.9,1.1,1.7c0.3,0.7,0.4,1.6,0.4,2.6
		c0,1-0.1,1.9-0.4,2.6c-0.3,0.7-0.6,1.3-1.1,1.7C36,77.1,35.4,77.3,34.7,77.3z M34.7,76.3c0.7,0,1.2-0.3,1.6-1
		c0.4-0.7,0.6-1.6,0.6-2.8c0-0.8-0.1-1.5-0.3-2.1c-0.2-0.6-0.4-1-0.7-1.3c-0.3-0.3-0.7-0.5-1.2-0.5c-0.7,0-1.2,0.3-1.6,1
		c-0.4,0.7-0.6,1.6-0.6,2.8c0,0.8,0.1,1.5,0.3,2.1c0.2,0.6,0.4,1,0.7,1.3C33.8,76.1,34.2,76.3,34.7,76.3z M42.8,77.3
		c-0.7,0-1.3-0.2-1.8-0.6c-0.5-0.4-0.9-0.9-1.1-1.7c-0.3-0.7-0.4-1.6-0.4-2.6c0-1,0.1-1.9,0.4-2.6c0.3-0.7,0.6-1.3,1.1-1.7
		c0.5-0.4,1.1-0.6,1.8-0.6s1.3,0.2,1.8,0.6c0.5,0.4,0.9,0.9,1.1,1.7c0.3,0.7,0.4,1.6,0.4,2.6c0,1-0.1,1.9-0.4,2.6
		c-0.3,0.7-0.6,1.3-1.1,1.7C44.1,77.1,43.5,77.3,42.8,77.3z M42.8,76.3c0.7,0,1.2-0.3,1.6-1c0.4-0.7,0.6-1.6,0.6-2.8
		c0-0.8-0.1-1.5-0.3-2.1c-0.2-0.6-0.4-1-0.7-1.3c-0.3-0.3-0.7-0.5-1.2-0.5c-0.7,0-1.2,0.3-1.6,1c-0.4,0.7-0.6,1.6-0.6,2.8
		c0,0.8,0.1,1.5,0.3,2.1c0.2,0.6,0.4,1,0.7,1.3C41.9,76.1,42.3,76.3,42.8,76.3z"/>
</mask>
<path class="st6" d="M26.6,77.3l0,1h0L26.6,77.3z M25.4,77L25.1,78L25.4,77z M24.4,76.3L23.7,77l0,0L24.4,76.3z M23.6,75l-0.9,0.3
	l0,0L23.6,75z M23.6,70.6l1,0.2l0,0L23.6,70.6z M24.2,68.9l0.8,0.6l0,0L24.2,68.9z M25.3,67.9L24.8,67l0,0L25.3,67.9z M28.2,67.9
	l-0.5,0.9l0,0L28.2,67.9z M29.2,68.8l0.8-0.6l0,0L29.2,68.8z M29.7,70v1h1.2l-0.2-1.2L29.7,70z M28.6,70l-1,0.2l0.2,0.8h0.8V70z
	 M28,69l-0.7,0.7l0,0L28,69z M25,69.5L24.2,69l0,0L25,69.5z M24.4,72.2l-1,0l0,1h1V72.2z M24.5,72.2v1H25l0.3-0.4L24.5,72.2z
	 M25.1,71.5l0.6,0.8l0,0L25.1,71.5z M25.9,71.1l-0.3-0.9L25.9,71.1z M28.3,71.4l-0.5,0.9l0,0L28.3,71.4z M29.4,72.5L28.5,73l0,0
	L29.4,72.5z M29.4,75.7l0.9,0.5l0,0L29.4,75.7z M28.3,76.9l0.5,0.9l0,0L28.3,76.9z M27.6,76l-0.5-0.8l0,0L27.6,76z M28.4,75.2
	l-0.9-0.5l0,0L28.4,75.2z M28.4,73l-0.9,0.5l0,0L28.4,73z M27.7,72.3l-0.5,0.8l0,0L27.7,72.3z M25.8,72.1l0.4,0.9l0,0L25.8,72.1z
	 M25.2,72.6l-0.7-0.7l0,0L25.2,72.6z M24.7,73.3l0.9,0.4l0,0L24.7,73.3z M24.8,75.2l-0.9,0.5l0,0L24.8,75.2z M25.5,76L25,76.8l0,0
	L25.5,76z M26.6,77.3l0-1c-0.3,0-0.5-0.1-0.8-0.2L25.4,77L25.1,78c0.5,0.2,1,0.3,1.5,0.3L26.6,77.3z M25.4,77l0.3-0.9
	c-0.2-0.1-0.5-0.2-0.7-0.5l-0.7,0.7L23.7,77c0.4,0.4,0.9,0.8,1.4,1L25.4,77z M24.4,76.3l0.7-0.7c-0.2-0.2-0.4-0.5-0.5-1L23.6,75
	l-0.9,0.3c0.2,0.7,0.5,1.3,1,1.7L24.4,76.3z M23.6,75l0.9-0.3c-0.1-0.4-0.2-1.1-0.2-1.9h-1h-1c0,0.9,0.1,1.8,0.3,2.5L23.6,75z
	 M23.3,72.8h1c0-0.8,0.1-1.4,0.2-2l-1-0.2l-1-0.2c-0.2,0.7-0.3,1.6-0.3,2.5H23.3z M23.6,70.6l1,0.2c0.1-0.6,0.3-1,0.5-1.3l-0.8-0.6
	l-0.8-0.6c-0.4,0.6-0.6,1.2-0.8,2L23.6,70.6z M24.2,68.9l0.8,0.6c0.2-0.3,0.5-0.6,0.7-0.7l-0.5-0.9L24.8,67
	c-0.6,0.3-1.1,0.8-1.4,1.3L24.2,68.9z M25.3,67.9l0.5,0.9c0.3-0.1,0.6-0.2,1-0.2v-1v-1c-0.7,0-1.3,0.1-1.9,0.5L25.3,67.9z
	 M26.8,67.6v1c0.4,0,0.7,0.1,1,0.2l0.5-0.9l0.5-0.9c-0.6-0.3-1.2-0.4-1.9-0.4V67.6z M28.2,67.9l-0.4,0.9c0.3,0.1,0.5,0.3,0.6,0.6
	l0.8-0.6l0.8-0.6c-0.4-0.5-0.8-0.9-1.4-1.2L28.2,67.9z M29.2,68.8l-0.8,0.6c0.2,0.2,0.3,0.5,0.3,0.9l1-0.2l1-0.2
	c-0.1-0.6-0.3-1.2-0.7-1.7L29.2,68.8z M29.7,70v-1h-1.1v1v1h1.1V70z M28.6,70l1-0.2c-0.1-0.6-0.4-1.1-0.9-1.6L28,69l-0.7,0.7
	c0.1,0.1,0.3,0.3,0.3,0.6L28.6,70z M28,69l0.7-0.7c-0.5-0.5-1.2-0.7-1.9-0.7v1v1c0.3,0,0.4,0.1,0.5,0.2L28,69z M26.8,68.6v-1
	c-1.1,0-2,0.5-2.6,1.4l0.8,0.6l0.8,0.6c0.2-0.4,0.5-0.5,0.9-0.5V68.6z M25,69.5L24.2,69c-0.6,0.9-0.8,2-0.8,3.2l1,0l1,0
	c0-1,0.2-1.7,0.5-2.1L25,69.5z M24.4,72.2v1h0.1L24.4,72.2l0.1-1h-0.1V72.2z M24.5,72.2l0.8,0.6c0.1-0.2,0.2-0.3,0.4-0.4l-0.6-0.8
	l-0.6-0.8c-0.3,0.3-0.6,0.6-0.8,0.9L24.5,72.2z M25.1,71.5l0.6,0.8c0.2-0.1,0.3-0.2,0.5-0.3l-0.3-0.9l-0.3-0.9
	c-0.4,0.1-0.8,0.3-1.1,0.6L25.1,71.5z M25.9,71.1l0.3,0.9c0.2-0.1,0.4-0.1,0.6-0.1v-1v-1c-0.4,0-0.8,0.1-1.2,0.2L25.9,71.1z
	 M26.8,71v1c0.4,0,0.7,0.1,1,0.3l0.5-0.9l0.5-0.9c-0.6-0.4-1.3-0.5-2-0.5V71z M28.3,71.4l-0.5,0.9c0.3,0.2,0.5,0.4,0.7,0.8l0.9-0.5
	l0.9-0.5c-0.4-0.6-0.8-1.1-1.4-1.5L28.3,71.4z M29.4,72.5L28.5,73c0.2,0.3,0.3,0.7,0.3,1.1h1h1c0-0.8-0.2-1.5-0.5-2.1L29.4,72.5z
	 M29.8,74.1h-1c0,0.4-0.1,0.8-0.3,1.1l0.9,0.5l0.9,0.5c0.3-0.6,0.5-1.3,0.5-2.1H29.8z M29.4,75.7l-0.9-0.5c-0.2,0.3-0.4,0.6-0.7,0.8
	l0.5,0.9l0.5,0.9c0.6-0.4,1.1-0.9,1.5-1.5L29.4,75.7z M28.3,76.9L27.8,76c-0.3,0.2-0.7,0.3-1.1,0.3l0,1l0,1c0.8,0,1.5-0.2,2.2-0.6
	L28.3,76.9z M26.6,76.3v1c0.6,0,1.1-0.1,1.6-0.4L27.6,76l-0.5-0.8c-0.1,0.1-0.3,0.1-0.5,0.1V76.3z M27.6,76l0.5,0.8
	c0.5-0.3,0.8-0.7,1.1-1.1l-0.9-0.5l-0.9-0.5c-0.1,0.2-0.2,0.3-0.4,0.4L27.6,76z M28.4,75.2l0.9,0.5c0.3-0.5,0.4-1,0.4-1.6h-1h-1
	c0,0.2-0.1,0.4-0.1,0.6L28.4,75.2z M28.7,74.1h1c0-0.5-0.1-1.1-0.4-1.5L28.4,73l-0.9,0.5c0.1,0.2,0.1,0.4,0.1,0.6H28.7z M28.4,73
	l0.9-0.5c-0.3-0.5-0.6-0.9-1.1-1.1l-0.5,0.8l-0.5,0.8c0.2,0.1,0.3,0.2,0.4,0.4L28.4,73z M27.7,72.3l0.5-0.8c-0.5-0.3-1-0.4-1.6-0.4
	v1v1c0.2,0,0.4,0.1,0.5,0.1L27.7,72.3z M26.6,72v-1c-0.4,0-0.8,0.1-1.2,0.3l0.4,0.9l0.4,0.9c0.1-0.1,0.2-0.1,0.4-0.1V72z M25.8,72.1
	l-0.4-0.9c-0.4,0.2-0.7,0.4-1,0.7l0.7,0.7l0.7,0.7c0.1-0.1,0.2-0.2,0.4-0.2L25.8,72.1z M25.2,72.6l-0.7-0.7c-0.3,0.3-0.5,0.6-0.6,1
	l0.9,0.4l0.9,0.4c0.1-0.1,0.1-0.3,0.2-0.4L25.2,72.6z M24.7,73.3l-0.9-0.4c-0.2,0.4-0.2,0.8-0.2,1.2h1h1c0-0.2,0-0.3,0.1-0.4
	L24.7,73.3z M24.6,74.1h-1c0,0.5,0.1,1.1,0.4,1.5l0.9-0.5l0.9-0.5c-0.1-0.2-0.1-0.4-0.1-0.6H24.6z M24.8,75.2l-0.9,0.5
	c0.3,0.5,0.6,0.9,1.1,1.1l0.5-0.8l0.5-0.8c-0.2-0.1-0.3-0.2-0.4-0.4L24.8,75.2z M25.5,76L25,76.8c0.5,0.3,1,0.5,1.6,0.5v-1v-1
	c-0.2,0-0.4-0.1-0.5-0.1L25.5,76z M32.9,76.7l-0.6,0.8l0,0L32.9,76.7z M31.8,75l-0.9,0.3l0,0L31.8,75z M31.8,69.8l-0.9-0.3l0,0
	L31.8,69.8z M32.9,68.1l0.6,0.8h0L32.9,68.1z M36.4,68.1l-0.6,0.8l0,0L36.4,68.1z M37.6,69.8l-0.9,0.3l0,0L37.6,69.8z M37.6,75
	l0.9,0.3l0,0L37.6,75z M36.4,76.7l0.6,0.8l0,0L36.4,76.7z M36.3,75.3l-0.9-0.5L36.3,75.3z M36.6,70.3l-1,0.3l0,0L36.6,70.3z
	 M35.8,69l-0.7,0.7l0,0L35.8,69z M33.1,69.6l0.9,0.5l0,0L33.1,69.6z M32.7,74.5l-1,0.3l0,0L32.7,74.5z M33.5,75.8l-0.7,0.7l0,0
	L33.5,75.8z M34.7,77.3v-1c-0.5,0-0.9-0.1-1.2-0.4l-0.6,0.8l-0.6,0.8c0.7,0.5,1.5,0.8,2.4,0.8V77.3z M32.9,76.7l0.6-0.8
	c-0.3-0.2-0.6-0.6-0.8-1.2L31.8,75l-0.9,0.3c0.3,0.9,0.8,1.6,1.4,2.1L32.9,76.7z M31.8,75l0.9-0.3c-0.2-0.6-0.3-1.3-0.3-2.3h-1h-1
	c0,1.1,0.1,2.1,0.4,3L31.8,75z M31.4,72.4h1c0-0.9,0.1-1.7,0.3-2.3l-0.9-0.3l-0.9-0.3c-0.3,0.9-0.4,1.9-0.4,3H31.4z M31.8,69.8
	l0.9,0.3c0.2-0.6,0.5-1,0.8-1.2l-0.6-0.8l-0.6-0.8c-0.7,0.5-1.1,1.3-1.5,2.1L31.8,69.8z M32.9,68.1l0.6,0.8c0.3-0.2,0.7-0.4,1.2-0.4
	v-1v-1c-0.9,0-1.7,0.3-2.4,0.8L32.9,68.1z M34.7,67.6v1c0.5,0,0.9,0.1,1.2,0.4l0.6-0.8l0.6-0.8c-0.7-0.5-1.5-0.8-2.4-0.8V67.6z
	 M36.4,68.1l-0.6,0.8c0.3,0.2,0.6,0.6,0.8,1.2l0.9-0.3l0.9-0.3c-0.3-0.9-0.8-1.6-1.5-2.1L36.4,68.1z M37.6,69.8l-0.9,0.3
	c0.2,0.6,0.3,1.3,0.3,2.3h1h1c0-1.1-0.1-2.1-0.5-3L37.6,69.8z M37.9,72.4h-1c0,0.9-0.1,1.7-0.3,2.3l0.9,0.3l0.9,0.3
	c0.3-0.9,0.4-1.9,0.4-3H37.9z M37.6,75l-0.9-0.3c-0.2,0.6-0.5,1-0.8,1.2l0.6,0.8l0.6,0.8c0.7-0.5,1.1-1.2,1.4-2.1L37.6,75z
	 M36.4,76.7l-0.6-0.8c-0.3,0.2-0.7,0.4-1.2,0.4v1v1c0.9,0,1.7-0.2,2.4-0.8L36.4,76.7z M34.7,76.3v1c1.1,0,1.9-0.6,2.5-1.5l-0.9-0.5
	l-0.9-0.5c-0.2,0.4-0.5,0.5-0.7,0.5V76.3z M36.3,75.3l0.9,0.5c0.5-0.9,0.7-2,0.7-3.3h-1h-1c0,1.2-0.2,1.9-0.4,2.3L36.3,75.3z
	 M36.8,72.4h1c0-0.9-0.1-1.7-0.3-2.4l-1,0.3l-1,0.3c0.1,0.5,0.2,1,0.2,1.8H36.8z M36.6,70.3l1-0.3c-0.2-0.7-0.5-1.3-1-1.8L35.8,69
	l-0.7,0.7c0.2,0.1,0.3,0.4,0.5,0.9L36.6,70.3z M35.8,69l0.7-0.7c-0.5-0.5-1.2-0.7-1.9-0.7v1v1c0.2,0,0.4,0.1,0.5,0.2L35.8,69z
	 M34.7,68.6v-1c-1.1,0-1.9,0.6-2.5,1.5l0.9,0.5l0.9,0.5c0.2-0.4,0.5-0.5,0.7-0.5V68.6z M33.1,69.6l-0.9-0.5c-0.5,0.9-0.7,2-0.7,3.3
	h1h1c0-1.1,0.2-1.9,0.4-2.4L33.1,69.6z M32.5,72.4h-1c0,0.9,0.1,1.7,0.3,2.4l1-0.3l1-0.3c-0.1-0.5-0.2-1-0.2-1.8H32.5z M32.7,74.5
	l-1,0.3c0.2,0.7,0.5,1.3,1,1.8l0.7-0.7l0.7-0.7c-0.2-0.1-0.3-0.4-0.5-0.9L32.7,74.5z M33.5,75.8l-0.7,0.7c0.5,0.5,1.2,0.7,1.9,0.7
	v-1v-1c-0.2,0-0.4-0.1-0.5-0.2L33.5,75.8z M41,76.7l-0.6,0.8l0,0L41,76.7z M39.9,75l-0.9,0.3l0,0L39.9,75z M39.9,69.8l-0.9-0.3l0,0
	L39.9,69.8z M41,68.1l0.6,0.8h0L41,68.1z M44.6,68.1l-0.6,0.8l0,0L44.6,68.1z M45.7,69.8l-0.9,0.3l0,0L45.7,69.8z M45.7,75l0.9,0.3
	l0,0L45.7,75z M44.6,76.7l0.6,0.8l0,0L44.6,76.7z M44.4,75.3l-0.9-0.5L44.4,75.3z M44.7,70.3l-1,0.3l0,0L44.7,70.3z M44,69l-0.7,0.7
	l0,0L44,69z M41.2,69.6l0.9,0.5l0,0L41.2,69.6z M40.9,74.5l-1,0.3L40.9,74.5z M41.6,75.8l-0.7,0.7l0,0L41.6,75.8z M42.8,77.3v-1
	c-0.5,0-0.9-0.1-1.2-0.4L41,76.7l-0.6,0.8c0.7,0.5,1.5,0.8,2.4,0.8V77.3z M41,76.7l0.6-0.8c-0.3-0.2-0.6-0.6-0.8-1.2L39.9,75
	l-0.9,0.3c0.3,0.9,0.8,1.6,1.4,2.1L41,76.7z M39.9,75l0.9-0.3c-0.2-0.6-0.3-1.3-0.3-2.3h-1h-1c0,1.1,0.1,2.1,0.4,3L39.9,75z
	 M39.5,72.4h1c0-0.9,0.1-1.7,0.3-2.3l-0.9-0.3l-0.9-0.3c-0.3,0.9-0.4,1.9-0.4,3H39.5z M39.9,69.8l0.9,0.3c0.2-0.6,0.5-1,0.8-1.2
	L41,68.1l-0.6-0.8c-0.7,0.5-1.1,1.3-1.5,2.1L39.9,69.8z M41,68.1l0.6,0.8c0.3-0.2,0.7-0.4,1.2-0.4v-1v-1c-0.9,0-1.7,0.3-2.4,0.8
	L41,68.1z M42.8,67.6v1c0.5,0,0.9,0.1,1.2,0.4l0.6-0.8l0.6-0.8c-0.7-0.5-1.5-0.8-2.4-0.8V67.6z M44.6,68.1l-0.6,0.8
	c0.3,0.2,0.6,0.6,0.8,1.2l0.9-0.3l0.9-0.3c-0.3-0.9-0.8-1.6-1.5-2.1L44.6,68.1z M45.7,69.8l-0.9,0.3c0.2,0.6,0.3,1.3,0.3,2.3h1h1
	c0-1.1-0.1-2.1-0.5-3L45.7,69.8z M46.1,72.4h-1c0,0.9-0.1,1.7-0.3,2.3l0.9,0.3l0.9,0.3c0.3-0.9,0.4-1.9,0.4-3H46.1z M45.7,75
	l-0.9-0.3c-0.2,0.6-0.5,1-0.8,1.2l0.6,0.8l0.6,0.8c0.7-0.5,1.1-1.2,1.4-2.1L45.7,75z M44.6,76.7L44,75.9c-0.3,0.2-0.7,0.4-1.2,0.4v1
	v1c0.9,0,1.7-0.2,2.4-0.8L44.6,76.7z M42.8,76.3v1c1.1,0,1.9-0.6,2.5-1.5l-0.9-0.5l-0.9-0.5c-0.2,0.4-0.5,0.5-0.7,0.5V76.3z
	 M44.4,75.3l0.9,0.5c0.5-0.9,0.7-2,0.7-3.3h-1h-1c0,1.2-0.2,1.9-0.4,2.3L44.4,75.3z M45,72.4h1c0-0.9-0.1-1.7-0.3-2.4l-1,0.3l-1,0.3
	c0.1,0.5,0.2,1,0.2,1.8H45z M44.7,70.3l1-0.3c-0.2-0.7-0.5-1.3-1-1.8L44,69l-0.7,0.7c0.2,0.1,0.3,0.4,0.5,0.9L44.7,70.3z M44,69
	l0.7-0.7c-0.5-0.5-1.2-0.7-1.9-0.7v1v1c0.2,0,0.4,0.1,0.5,0.2L44,69z M42.8,68.6v-1c-1.1,0-1.9,0.6-2.5,1.5l0.9,0.5l0.9,0.5
	c0.2-0.4,0.5-0.5,0.7-0.5V68.6z M41.2,69.6l-0.9-0.5c-0.5,0.9-0.7,2-0.7,3.3h1h1c0-1.1,0.2-1.9,0.4-2.4L41.2,69.6z M40.6,72.4h-1
	c0,0.9,0.1,1.7,0.3,2.4l1-0.3l1-0.3c-0.1-0.5-0.2-1-0.2-1.8H40.6z M40.9,74.5l-1,0.3c0.2,0.7,0.5,1.3,1,1.8l0.7-0.7l0.7-0.7
	c-0.2-0.1-0.3-0.4-0.5-0.9L40.9,74.5z M41.6,75.8l-0.7,0.7c0.5,0.5,1.2,0.7,1.9,0.7v-1v-1c-0.2,0-0.4-0.1-0.5-0.2L41.6,75.8z"/>
<path class="st0" d="M26.6,32.3c-0.6,0-1.2-0.1-1.7-0.3c-0.5-0.2-0.9-0.5-1.1-0.9c-0.3-0.4-0.4-0.9-0.4-1.4c0-0.4,0.1-0.8,0.2-1.1
	c0.2-0.3,0.4-0.6,0.7-0.9c0.3-0.2,0.6-0.4,0.9-0.4v-0.1c-0.5-0.1-0.8-0.4-1.1-0.8c-0.3-0.4-0.4-0.8-0.4-1.3c0-0.5,0.1-0.9,0.4-1.3
	c0.2-0.4,0.6-0.7,1-0.9c0.4-0.2,0.9-0.3,1.5-0.3c0.5,0,1,0.1,1.5,0.3c0.4,0.2,0.8,0.5,1,0.9c0.2,0.4,0.4,0.8,0.4,1.3
	c0,0.5-0.1,0.9-0.4,1.3c-0.3,0.4-0.6,0.6-1.1,0.8v0.1c0.3,0.1,0.6,0.2,0.9,0.4c0.3,0.2,0.5,0.5,0.7,0.9c0.2,0.3,0.2,0.7,0.2,1.1
	c0,0.5-0.1,1-0.4,1.4c-0.3,0.4-0.6,0.7-1.1,0.9C27.8,32.2,27.2,32.3,26.6,32.3z M26.6,31.3c0.4,0,0.8-0.1,1.1-0.2
	c0.3-0.1,0.6-0.3,0.7-0.6c0.2-0.3,0.3-0.5,0.3-0.9c0-0.4-0.1-0.7-0.3-0.9c-0.2-0.3-0.4-0.5-0.7-0.6c-0.3-0.2-0.7-0.2-1.1-0.2
	c-0.4,0-0.8,0.1-1.1,0.2c-0.3,0.2-0.6,0.4-0.7,0.6c-0.2,0.3-0.3,0.6-0.3,0.9c0,0.3,0.1,0.6,0.2,0.9c0.2,0.3,0.4,0.4,0.7,0.6
	C25.8,31.2,26.2,31.3,26.6,31.3z M26.6,26.8c0.3,0,0.6-0.1,0.9-0.2c0.3-0.1,0.5-0.3,0.6-0.6c0.2-0.2,0.2-0.5,0.2-0.9
	c0-0.3-0.1-0.6-0.2-0.8c-0.1-0.2-0.4-0.4-0.6-0.6c-0.3-0.1-0.6-0.2-0.9-0.2c-0.4,0-0.7,0.1-0.9,0.2c-0.3,0.1-0.5,0.3-0.6,0.6
	c-0.1,0.2-0.2,0.5-0.2,0.8c0,0.3,0.1,0.6,0.2,0.9c0.2,0.2,0.4,0.4,0.6,0.6C25.9,26.7,26.3,26.8,26.6,26.8z M34.7,32.3
	c-0.7,0-1.3-0.2-1.8-0.6c-0.5-0.4-0.9-0.9-1.1-1.7c-0.3-0.7-0.4-1.6-0.4-2.6c0-1,0.1-1.9,0.4-2.6c0.3-0.7,0.6-1.3,1.1-1.7
	c0.5-0.4,1.1-0.6,1.8-0.6s1.3,0.2,1.8,0.6c0.5,0.4,0.9,0.9,1.1,1.7c0.3,0.7,0.4,1.6,0.4,2.6c0,1-0.1,1.9-0.4,2.6
	c-0.3,0.7-0.6,1.3-1.1,1.7C36,32.1,35.4,32.3,34.7,32.3z M34.7,31.3c0.7,0,1.2-0.3,1.6-1c0.4-0.7,0.6-1.6,0.6-2.8
	c0-0.8-0.1-1.5-0.3-2.1c-0.2-0.6-0.4-1-0.7-1.3c-0.3-0.3-0.7-0.5-1.2-0.5c-0.7,0-1.2,0.3-1.6,1c-0.4,0.7-0.6,1.6-0.6,2.8
	c0,0.8,0.1,1.5,0.3,2.1c0.2,0.6,0.4,1,0.7,1.3C33.8,31.1,34.2,31.3,34.7,31.3z M42.8,32.3c-0.7,0-1.3-0.2-1.8-0.6
	c-0.5-0.4-0.9-0.9-1.1-1.7c-0.3-0.7-0.4-1.6-0.4-2.6c0-1,0.1-1.9,0.4-2.6c0.3-0.7,0.6-1.3,1.1-1.7c0.5-0.4,1.1-0.6,1.8-0.6
	s1.3,0.2,1.8,0.6c0.5,0.4,0.9,0.9,1.1,1.7c0.3,0.7,0.4,1.6,0.4,2.6c0,1-0.1,1.9-0.4,2.6c-0.3,0.7-0.6,1.3-1.1,1.7
	C44.1,32.1,43.5,32.3,42.8,32.3z M42.8,31.3c0.7,0,1.2-0.3,1.6-1c0.4-0.7,0.6-1.6,0.6-2.8c0-0.8-0.1-1.5-0.3-2.1
	c-0.2-0.6-0.4-1-0.7-1.3c-0.3-0.3-0.7-0.5-1.2-0.5c-0.7,0-1.2,0.3-1.6,1c-0.4,0.7-0.6,1.6-0.6,2.8c0,0.8,0.1,1.5,0.3,2.1
	c0.2,0.6,0.4,1,0.7,1.3C41.9,31.1,42.3,31.3,42.8,31.3z"/>
<defs>
	<filter id="Adobe_OpacityMaskFilter_3_" filterUnits="userSpaceOnUse" x="22.4" y="21.6" width="24.7" height="11.7">
		<feColorMatrix  type="matrix" values="1 0 0 0 0  0 1 0 0 0  0 0 1 0 0  0 0 0 1 0"/>
	</filter>
</defs>
<mask maskUnits="userSpaceOnUse" x="22.4" y="21.6" width="24.7" height="11.7" id="path-9-inside-4_1_488_1_">
	<path class="st7" d="M26.6,32.3c-0.6,0-1.2-0.1-1.7-0.3c-0.5-0.2-0.9-0.5-1.1-0.9c-0.3-0.4-0.4-0.9-0.4-1.4c0-0.4,0.1-0.8,0.2-1.1
		c0.2-0.3,0.4-0.6,0.7-0.9c0.3-0.2,0.6-0.4,0.9-0.4v-0.1c-0.5-0.1-0.8-0.4-1.1-0.8c-0.3-0.4-0.4-0.8-0.4-1.3c0-0.5,0.1-0.9,0.4-1.3
		c0.2-0.4,0.6-0.7,1-0.9c0.4-0.2,0.9-0.3,1.5-0.3c0.5,0,1,0.1,1.5,0.3c0.4,0.2,0.8,0.5,1,0.9c0.2,0.4,0.4,0.8,0.4,1.3
		c0,0.5-0.1,0.9-0.4,1.3c-0.3,0.4-0.6,0.6-1.1,0.8v0.1c0.3,0.1,0.6,0.2,0.9,0.4c0.3,0.2,0.5,0.5,0.7,0.9c0.2,0.3,0.2,0.7,0.2,1.1
		c0,0.5-0.1,1-0.4,1.4c-0.3,0.4-0.6,0.7-1.1,0.9C27.8,32.2,27.2,32.3,26.6,32.3z M26.6,31.3c0.4,0,0.8-0.1,1.1-0.2
		c0.3-0.1,0.6-0.3,0.7-0.6c0.2-0.3,0.3-0.5,0.3-0.9c0-0.4-0.1-0.7-0.3-0.9c-0.2-0.3-0.4-0.5-0.7-0.6c-0.3-0.2-0.7-0.2-1.1-0.2
		c-0.4,0-0.8,0.1-1.1,0.2c-0.3,0.2-0.6,0.4-0.7,0.6c-0.2,0.3-0.3,0.6-0.3,0.9c0,0.3,0.1,0.6,0.2,0.9c0.2,0.3,0.4,0.4,0.7,0.6
		C25.8,31.2,26.2,31.3,26.6,31.3z M26.6,26.8c0.3,0,0.6-0.1,0.9-0.2c0.3-0.1,0.5-0.3,0.6-0.6c0.2-0.2,0.2-0.5,0.2-0.9
		c0-0.3-0.1-0.6-0.2-0.8c-0.1-0.2-0.4-0.4-0.6-0.6c-0.3-0.1-0.6-0.2-0.9-0.2c-0.4,0-0.7,0.1-0.9,0.2c-0.3,0.1-0.5,0.3-0.6,0.6
		c-0.1,0.2-0.2,0.5-0.2,0.8c0,0.3,0.1,0.6,0.2,0.9c0.2,0.2,0.4,0.4,0.6,0.6C25.9,26.7,26.3,26.8,26.6,26.8z M34.7,32.3
		c-0.7,0-1.3-0.2-1.8-0.6c-0.5-0.4-0.9-0.9-1.1-1.7c-0.3-0.7-0.4-1.6-0.4-2.6c0-1,0.1-1.9,0.4-2.6c0.3-0.7,0.6-1.3,1.1-1.7
		c0.5-0.4,1.1-0.6,1.8-0.6s1.3,0.2,1.8,0.6c0.5,0.4,0.9,0.9,1.1,1.7c0.3,0.7,0.4,1.6,0.4,2.6c0,1-0.1,1.9-0.4,2.6
		c-0.3,0.7-0.6,1.3-1.1,1.7C36,32.1,35.4,32.3,34.7,32.3z M34.7,31.3c0.7,0,1.2-0.3,1.6-1c0.4-0.7,0.6-1.6,0.6-2.8
		c0-0.8-0.1-1.5-0.3-2.1c-0.2-0.6-0.4-1-0.7-1.3c-0.3-0.3-0.7-0.5-1.2-0.5c-0.7,0-1.2,0.3-1.6,1c-0.4,0.7-0.6,1.6-0.6,2.8
		c0,0.8,0.1,1.5,0.3,2.1c0.2,0.6,0.4,1,0.7,1.3C33.8,31.1,34.2,31.3,34.7,31.3z M42.8,32.3c-0.7,0-1.3-0.2-1.8-0.6
		c-0.5-0.4-0.9-0.9-1.1-1.7c-0.3-0.7-0.4-1.6-0.4-2.6c0-1,0.1-1.9,0.4-2.6c0.3-0.7,0.6-1.3,1.1-1.7c0.5-0.4,1.1-0.6,1.8-0.6
		s1.3,0.2,1.8,0.6c0.5,0.4,0.9,0.9,1.1,1.7c0.3,0.7,0.4,1.6,0.4,2.6c0,1-0.1,1.9-0.4,2.6c-0.3,0.7-0.6,1.3-1.1,1.7
		C44.1,32.1,43.5,32.3,42.8,32.3z M42.8,31.3c0.7,0,1.2-0.3,1.6-1c0.4-0.7,0.6-1.6,0.6-2.8c0-0.8-0.1-1.5-0.3-2.1
		c-0.2-0.6-0.4-1-0.7-1.3c-0.3-0.3-0.7-0.5-1.2-0.5c-0.7,0-1.2,0.3-1.6,1c-0.4,0.7-0.6,1.6-0.6,2.8c0,0.8,0.1,1.5,0.3,2.1
		c0.2,0.6,0.4,1,0.7,1.3C41.9,31.1,42.3,31.3,42.8,31.3z"/>
</mask>
<path class="st8" d="M24.9,32l-0.4,0.9l0,0L24.9,32z M23.8,31L23,31.6l0,0L23.8,31z M23.4,29.7l1,0l0,0L23.4,29.7z M23.6,28.5
	l0.9,0.4l0,0L23.6,28.5z M24.3,27.7l0.6,0.8l0,0L24.3,27.7z M25.2,27.3l0.2,1l0.8-0.1v-0.8H25.2z M25.2,27.2h1v-0.8l-0.7-0.2
	L25.2,27.2z M24.1,26.4L23.3,27l0,0L24.1,26.4z M23.7,25.1l1,0l0,0L23.7,25.1z M24.1,23.8l0.8,0.5l0,0L24.1,23.8z M25.1,22.9
	L24.7,22l0,0L25.1,22.9z M29.1,23.8l-0.8,0.5l0,0L29.1,23.8z M29.5,25.1l1,0v0L29.5,25.1z M29,26.4l-0.8-0.6l0,0L29,26.4z M28,27.2
	l-0.3-1L27,26.4v0.8H28z M28,27.3h-1v0.8l0.8,0.1L28,27.3z M28.9,27.7l-0.6,0.8l0,0L28.9,27.7z M29.6,28.5L28.7,29l0,0L29.6,28.5z
	 M29.8,29.7l1,0l0,0L29.8,29.7z M29.4,31l-0.8-0.6l0,0L29.4,31z M28.3,32l0.4,0.9l0,0L28.3,32z M27.7,31.1l-0.4-0.9L27.7,31.1z
	 M28.4,30.5l-0.8-0.6L28.4,30.5z M28.7,29.6l1,0v0v0L28.7,29.6z M28.4,28.7l-0.8,0.6L28.4,28.7z M27.7,28l-0.5,0.9l0,0L27.7,28z
	 M25.5,28l-0.4-0.9l0,0L25.5,28z M24.8,28.7l-0.8-0.6l0,0L24.8,28.7z M24.5,29.6l1,0l0,0l0,0L24.5,29.6z M24.8,30.5L23.9,31l0,0
	L24.8,30.5z M25.5,31.1l0.4-0.9L25.5,31.1z M27.5,26.6L27,25.7l0,0L27.5,26.6z M28.1,26l0.8,0.5L28.1,26z M28.4,25.2l1,0l0,0l0,0
	L28.4,25.2z M28.1,24.3l-0.9,0.5l0,0L28.1,24.3z M27.5,23.8l-0.5,0.9l0,0L27.5,23.8z M25.7,23.8l0.4,0.9l0,0L25.7,23.8z M25.1,24.3
	l0.9,0.5l0,0L25.1,24.3z M24.8,25.2l1,0v0v0L24.8,25.2z M25.1,26l-0.9,0.5l0,0L25.1,26z M26.6,32.3v-1c-0.5,0-0.9-0.1-1.3-0.2
	L24.9,32l-0.4,0.9c0.6,0.3,1.3,0.4,2.1,0.4V32.3z M24.9,32l0.4-0.9c-0.3-0.2-0.6-0.4-0.7-0.6L23.8,31L23,31.6c0.4,0.6,0.9,1,1.5,1.3
	L24.9,32z M23.8,31l0.8-0.6c-0.2-0.2-0.2-0.5-0.2-0.8l-1,0l-1,0c0,0.7,0.2,1.4,0.6,1.9L23.8,31z M23.4,29.7l1,0c0-0.3,0-0.5,0.1-0.7
	l-0.9-0.4l-0.9-0.4c-0.2,0.5-0.3,1-0.3,1.5L23.4,29.7z M23.6,28.5l0.9,0.4c0.1-0.2,0.2-0.4,0.4-0.5l-0.6-0.8l-0.6-0.8
	c-0.4,0.3-0.7,0.7-0.9,1.2L23.6,28.5z M24.3,27.7l0.6,0.8c0.2-0.1,0.3-0.2,0.5-0.2l-0.2-1l-0.2-1c-0.5,0.1-1,0.3-1.4,0.7L24.3,27.7z
	 M25.2,27.3h1v-0.1L25.2,27.3l-1-0.1v0.1H25.2z M25.2,27.2l0.3-1c-0.2-0.1-0.4-0.2-0.5-0.4l-0.8,0.6L23.3,27c0.4,0.6,1,1,1.7,1.2
	L25.2,27.2z M24.1,26.4l0.8-0.6c-0.1-0.2-0.2-0.5-0.2-0.8l-1,0l-1,0c0,0.7,0.2,1.3,0.6,1.9L24.1,26.4z M23.7,25.1l1,0
	c0-0.3,0.1-0.5,0.2-0.7l-0.8-0.5l-0.8-0.5c-0.4,0.6-0.5,1.2-0.5,1.8L23.7,25.1z M24.1,23.8l0.8,0.5c0.1-0.2,0.3-0.4,0.6-0.5
	l-0.5-0.9L24.7,22c-0.6,0.3-1.1,0.7-1.4,1.2L24.1,23.8z M25.1,22.9l0.4,0.9c0.3-0.1,0.6-0.2,1-0.2v-1v-1c-0.7,0-1.3,0.1-1.9,0.4
	L25.1,22.9z M26.6,22.6v1c0.4,0,0.7,0.1,1,0.2l0.5-0.9l0.5-0.9c-0.6-0.3-1.2-0.4-1.9-0.4V22.6z M28.1,22.9l-0.5,0.9
	c0.3,0.1,0.5,0.3,0.6,0.5l0.8-0.5l0.8-0.5c-0.3-0.5-0.8-1-1.4-1.2L28.1,22.9z M29.1,23.8l-0.8,0.6c0.1,0.2,0.2,0.4,0.2,0.7l1,0l1,0
	c0-0.7-0.2-1.3-0.5-1.8L29.1,23.8z M29.5,25.1l-1,0c0,0.3-0.1,0.6-0.2,0.8l0.8,0.6l0.8,0.6c0.4-0.6,0.6-1.2,0.6-1.9L29.5,25.1z
	 M29,26.4l-0.8-0.6c-0.1,0.2-0.3,0.3-0.5,0.4l0.3,1l0.3,1c0.7-0.2,1.2-0.6,1.6-1.2L29,26.4z M28,27.2h-1v0.1L28,27.2l1,0.1v-0.1H28z
	 M28,27.3l-0.2,1c0.2,0,0.3,0.1,0.5,0.2l0.6-0.8l0.6-0.8c-0.4-0.3-0.9-0.6-1.4-0.7L28,27.3z M28.9,27.7l-0.6,0.8
	c0.2,0.1,0.3,0.3,0.4,0.5l0.9-0.4l0.9-0.4c-0.2-0.5-0.5-0.9-0.9-1.2L28.9,27.7z M29.6,28.5L28.7,29c0.1,0.2,0.1,0.4,0.2,0.7l1,0l1,0
	c0-0.5-0.1-1.1-0.3-1.5L29.6,28.5z M29.8,29.7l-1,0c0,0.3-0.1,0.6-0.2,0.8l0.8,0.6l0.8,0.6c0.4-0.6,0.6-1.2,0.6-1.9L29.8,29.7z
	 M29.4,31l-0.8-0.6c-0.2,0.2-0.4,0.4-0.7,0.6l0.4,0.9l0.4,0.9c0.6-0.3,1.1-0.7,1.5-1.3L29.4,31z M28.3,32l-0.4-0.9
	c-0.3,0.2-0.7,0.2-1.2,0.2v1v1c0.7,0,1.5-0.1,2.1-0.4L28.3,32z M26.6,31.3v1c0.5,0,1-0.1,1.5-0.3l-0.4-0.9l-0.4-0.9
	c-0.2,0.1-0.4,0.1-0.7,0.1V31.3z M27.7,31.1l0.4,0.9c0.5-0.2,0.9-0.5,1.1-0.9l-0.8-0.6l-0.8-0.6c-0.1,0.1-0.1,0.2-0.3,0.2L27.7,31.1
	z M28.4,30.5l0.8,0.6c0.3-0.4,0.4-0.9,0.4-1.4l-1,0l-1,0c0,0.2,0,0.3-0.1,0.3L28.4,30.5z M28.7,29.6l1,0c0-0.5-0.1-1-0.4-1.5
	l-0.8,0.6l-0.8,0.6c0.1,0.1,0.1,0.2,0.1,0.4L28.7,29.6z M28.4,28.7l0.8-0.6c-0.3-0.4-0.7-0.8-1.1-1L27.7,28l-0.4,0.9
	c0.2,0.1,0.3,0.2,0.4,0.3L28.4,28.7z M27.7,28l0.5-0.9c-0.5-0.2-1-0.3-1.5-0.3v1v1c0.3,0,0.5,0.1,0.6,0.1L27.7,28z M26.6,27.8v-1
	c-0.5,0-1.1,0.1-1.5,0.3l0.4,0.9l0.4,0.9c0.2-0.1,0.4-0.1,0.6-0.1V27.8z M25.5,28l-0.4-0.9c-0.5,0.2-0.8,0.6-1.1,1l0.8,0.6l0.8,0.6
	c0.1-0.1,0.2-0.2,0.4-0.3L25.5,28z M24.8,28.7l-0.8-0.5c-0.3,0.5-0.4,1-0.4,1.5l1,0l1,0c0-0.2,0-0.3,0.1-0.4L24.8,28.7z M24.5,29.6
	l-1,0c0,0.5,0.1,1,0.4,1.4l0.8-0.6l0.8-0.5c0-0.1-0.1-0.2-0.1-0.3L24.5,29.6z M24.8,30.5L23.9,31c0.3,0.4,0.7,0.7,1.2,0.9l0.4-0.9
	l0.4-0.9c-0.2-0.1-0.2-0.2-0.3-0.2L24.8,30.5z M25.5,31.1L25.1,32c0.5,0.2,1,0.3,1.5,0.3v-1v-1c-0.3,0-0.6-0.1-0.7-0.1L25.5,31.1z
	 M26.6,26.8v1c0.5,0,0.9-0.1,1.4-0.3l-0.5-0.9L27,25.7c-0.1,0.1-0.2,0.1-0.4,0.1V26.8z M27.5,26.6l0.5,0.9c0.4-0.2,0.8-0.5,1-0.9
	L28.1,26l-0.8-0.5c-0.1,0.1-0.1,0.1-0.2,0.2L27.5,26.6z M28.1,26l0.8,0.5c0.3-0.4,0.4-0.9,0.4-1.4l-1,0l-1,0c0,0.2,0,0.3-0.1,0.3
	L28.1,26z M28.4,25.2l1,0c0-0.5-0.1-0.9-0.4-1.4l-0.8,0.5l-0.8,0.5c0,0.1,0.1,0.2,0.1,0.3L28.4,25.2z M28.1,24.3l0.9-0.5
	c-0.2-0.4-0.6-0.7-1-0.9l-0.4,0.9l-0.4,0.9c0.1,0,0.2,0.1,0.2,0.2L28.1,24.3z M27.5,23.8l0.5-0.9c-0.4-0.2-0.9-0.3-1.4-0.3v1v1
	c0.2,0,0.4,0,0.5,0.1L27.5,23.8z M26.6,23.6v-1c-0.5,0-0.9,0.1-1.4,0.3l0.4,0.9l0.4,0.9c0.1-0.1,0.3-0.1,0.5-0.1V23.6z M25.7,23.8
	l-0.4-0.9c-0.4,0.2-0.8,0.5-1,0.9l0.9,0.5l0.9,0.5c0-0.1,0.1-0.1,0.2-0.2L25.7,23.8z M25.1,24.3l-0.9-0.5c-0.3,0.4-0.4,0.9-0.4,1.4
	l1,0l1,0c0-0.2,0-0.3,0.1-0.3L25.1,24.3z M24.8,25.2l-1,0c0,0.5,0.1,1,0.4,1.4l0.9-0.5l0.9-0.5c0-0.1-0.1-0.2-0.1-0.3L24.8,25.2z
	 M25.1,26l-0.8,0.5c0.3,0.4,0.6,0.7,1,0.9l0.5-0.9l0.5-0.9c-0.1-0.1-0.2-0.1-0.2-0.2L25.1,26z M25.7,26.6l-0.5,0.9
	c0.4,0.2,0.9,0.3,1.4,0.3v-1v-1c-0.2,0-0.4,0-0.5-0.1L25.7,26.6z M32.9,31.7l-0.6,0.8l0,0L32.9,31.7z M31.8,30.1l-0.9,0.3l0,0
	L31.8,30.1z M31.8,24.8l-0.9-0.3l0,0L31.8,24.8z M32.9,23.2l0.6,0.8l0,0L32.9,23.2z M36.4,23.2l-0.6,0.8l0,0L36.4,23.2z M37.6,24.8
	l-0.9,0.3l0,0L37.6,24.8z M37.6,30.1l0.9,0.3l0,0L37.6,30.1z M36.4,31.7l0.6,0.8l0,0L36.4,31.7z M36.3,30.3l-0.9-0.5L36.3,30.3z
	 M36.6,25.3l-1,0.3l0,0L36.6,25.3z M35.8,24l-0.7,0.7l0,0L35.8,24z M33.1,24.6l0.9,0.5l0,0L33.1,24.6z M32.7,29.5l-1,0.3l0,0
	L32.7,29.5z M33.5,30.8l-0.7,0.7l0,0L33.5,30.8z M34.7,32.3v-1c-0.5,0-0.9-0.1-1.2-0.4l-0.6,0.8l-0.6,0.8c0.7,0.5,1.5,0.8,2.4,0.8
	V32.3z M32.9,31.7l0.6-0.8c-0.3-0.2-0.6-0.6-0.8-1.2l-0.9,0.3l-0.9,0.3c0.3,0.9,0.8,1.6,1.4,2.1L32.9,31.7z M31.8,30.1l0.9-0.3
	c-0.2-0.6-0.3-1.3-0.3-2.3h-1h-1c0,1.1,0.1,2.1,0.4,3L31.8,30.1z M31.4,27.4h1c0-0.9,0.1-1.7,0.3-2.3l-0.9-0.3l-0.9-0.3
	c-0.3,0.9-0.4,1.9-0.4,3H31.4z M31.8,24.8l0.9,0.3c0.2-0.6,0.5-1,0.8-1.2l-0.6-0.8l-0.6-0.8c-0.7,0.5-1.1,1.3-1.5,2.1L31.8,24.8z
	 M32.9,23.2l0.6,0.8c0.3-0.2,0.7-0.4,1.2-0.4v-1v-1c-0.9,0-1.7,0.3-2.4,0.8L32.9,23.2z M34.7,22.6v1c0.5,0,0.9,0.1,1.2,0.4l0.6-0.8
	l0.6-0.8c-0.7-0.5-1.5-0.8-2.4-0.8V22.6z M36.4,23.2L35.8,24c0.3,0.2,0.6,0.6,0.8,1.2l0.9-0.3l0.9-0.3c-0.3-0.9-0.8-1.6-1.5-2.1
	L36.4,23.2z M37.6,24.8l-0.9,0.3c0.2,0.6,0.3,1.3,0.3,2.3h1h1c0-1.1-0.1-2.1-0.5-3L37.6,24.8z M37.9,27.4h-1c0,0.9-0.1,1.7-0.3,2.3
	l0.9,0.3l0.9,0.3c0.3-0.9,0.4-1.9,0.4-3H37.9z M37.6,30.1l-0.9-0.3c-0.2,0.6-0.5,1-0.8,1.2l0.6,0.8l0.6,0.8c0.7-0.5,1.1-1.2,1.4-2.1
	L37.6,30.1z M36.4,31.7l-0.6-0.8c-0.3,0.2-0.7,0.4-1.2,0.4v1v1c0.9,0,1.7-0.2,2.4-0.8L36.4,31.7z M34.7,31.3v1
	c1.1,0,1.9-0.6,2.5-1.5l-0.9-0.5l-0.9-0.5c-0.2,0.4-0.5,0.5-0.7,0.5V31.3z M36.3,30.3l0.9,0.5c0.5-0.9,0.7-2,0.7-3.3h-1h-1
	c0,1.2-0.2,1.9-0.4,2.3L36.3,30.3z M36.8,27.4h1c0-0.9-0.1-1.7-0.3-2.4l-1,0.3l-1,0.3c0.1,0.5,0.2,1,0.2,1.8H36.8z M36.6,25.3l1-0.3
	c-0.2-0.7-0.5-1.3-1-1.8L35.8,24l-0.7,0.7c0.2,0.1,0.3,0.4,0.5,0.9L36.6,25.3z M35.8,24l0.7-0.7c-0.5-0.5-1.2-0.7-1.9-0.7v1v1
	c0.2,0,0.4,0.1,0.5,0.2L35.8,24z M34.7,23.6v-1c-1.1,0-1.9,0.6-2.5,1.5l0.9,0.5l0.9,0.5c0.2-0.4,0.5-0.5,0.7-0.5V23.6z M33.1,24.6
	l-0.9-0.5c-0.5,0.9-0.7,2-0.7,3.3h1h1c0-1.1,0.2-1.9,0.4-2.4L33.1,24.6z M32.5,27.4h-1c0,0.9,0.1,1.7,0.3,2.4l1-0.3l1-0.3
	c-0.1-0.5-0.2-1-0.2-1.8H32.5z M32.7,29.5l-1,0.3c0.2,0.7,0.5,1.3,1,1.8l0.7-0.7l0.7-0.7c-0.2-0.1-0.3-0.4-0.5-0.9L32.7,29.5z
	 M33.5,30.8l-0.7,0.7c0.5,0.5,1.2,0.7,1.9,0.7v-1v-1c-0.2,0-0.4-0.1-0.5-0.2L33.5,30.8z M41,31.7l-0.6,0.8l0,0L41,31.7z M39.9,30.1
	l-0.9,0.3l0,0L39.9,30.1z M39.9,24.8l-0.9-0.3l0,0L39.9,24.8z M41,23.2l0.6,0.8l0,0L41,23.2z M44.6,23.2l-0.6,0.8l0,0L44.6,23.2z
	 M45.7,24.8l-0.9,0.3l0,0L45.7,24.8z M45.7,30.1l0.9,0.3l0,0L45.7,30.1z M44.6,31.7l0.6,0.8l0,0L44.6,31.7z M44.4,30.3l-0.9-0.5
	L44.4,30.3z M44.7,25.3l-1,0.3l0,0L44.7,25.3z M44,24l-0.7,0.7l0,0L44,24z M41.2,24.6l0.9,0.5l0,0L41.2,24.6z M40.9,29.5l-1,0.3
	L40.9,29.5z M41.6,30.8l-0.7,0.7l0,0L41.6,30.8z M42.8,32.3v-1c-0.5,0-0.9-0.1-1.2-0.4L41,31.7l-0.6,0.8c0.7,0.5,1.5,0.8,2.4,0.8
	V32.3z M41,31.7l0.6-0.8c-0.3-0.2-0.6-0.6-0.8-1.2l-0.9,0.3l-0.9,0.3c0.3,0.9,0.8,1.6,1.4,2.1L41,31.7z M39.9,30.1l0.9-0.3
	c-0.2-0.6-0.3-1.3-0.3-2.3h-1h-1c0,1.1,0.1,2.1,0.4,3L39.9,30.1z M39.5,27.4h1c0-0.9,0.1-1.7,0.3-2.3l-0.9-0.3l-0.9-0.3
	c-0.3,0.9-0.4,1.9-0.4,3H39.5z M39.9,24.8l0.9,0.3c0.2-0.6,0.5-1,0.8-1.2L41,23.2l-0.6-0.8c-0.7,0.5-1.1,1.3-1.5,2.1L39.9,24.8z
	 M41,23.2l0.6,0.8c0.3-0.2,0.7-0.4,1.2-0.4v-1v-1c-0.9,0-1.7,0.3-2.4,0.8L41,23.2z M42.8,22.6v1c0.5,0,0.9,0.1,1.2,0.4l0.6-0.8
	l0.6-0.8c-0.7-0.5-1.5-0.8-2.4-0.8V22.6z M44.6,23.2L43.9,24c0.3,0.2,0.6,0.6,0.8,1.2l0.9-0.3l0.9-0.3c-0.3-0.9-0.8-1.6-1.5-2.1
	L44.6,23.2z M45.7,24.8l-0.9,0.3c0.2,0.6,0.3,1.3,0.3,2.3h1h1c0-1.1-0.1-2.1-0.5-3L45.7,24.8z M46.1,27.4h-1c0,0.9-0.1,1.7-0.3,2.3
	l0.9,0.3l0.9,0.3c0.3-0.9,0.4-1.9,0.4-3H46.1z M45.7,30.1l-0.9-0.3c-0.2,0.6-0.5,1-0.8,1.2l0.6,0.8l0.6,0.8c0.7-0.5,1.1-1.2,1.4-2.1
	L45.7,30.1z M44.6,31.7L44,30.9c-0.3,0.2-0.7,0.4-1.2,0.4v1v1c0.9,0,1.7-0.2,2.4-0.8L44.6,31.7z M42.8,31.3v1c1.1,0,1.9-0.6,2.5-1.5
	l-0.9-0.5l-0.9-0.5c-0.2,0.4-0.5,0.5-0.7,0.5V31.3z M44.4,30.3l0.9,0.5c0.5-0.9,0.7-2,0.7-3.3h-1h-1c0,1.2-0.2,1.9-0.4,2.3
	L44.4,30.3z M45,27.4h1c0-0.9-0.1-1.7-0.3-2.4l-1,0.3l-1,0.3c0.1,0.5,0.2,1,0.2,1.8H45z M44.7,25.3l1-0.3c-0.2-0.7-0.5-1.3-1-1.8
	L44,24l-0.7,0.7c0.2,0.1,0.3,0.4,0.5,0.9L44.7,25.3z M44,24l0.7-0.7c-0.5-0.5-1.2-0.7-1.9-0.7v1v1c0.2,0,0.4,0.1,0.5,0.2L44,24z
	 M42.8,23.6v-1c-1.1,0-1.9,0.6-2.5,1.5l0.9,0.5l0.9,0.5c0.2-0.4,0.5-0.5,0.7-0.5V23.6z M41.2,24.6l-0.9-0.5c-0.5,0.9-0.7,2-0.7,3.3
	h1h1c0-1.1,0.2-1.9,0.4-2.4L41.2,24.6z M40.6,27.4h-1c0,0.9,0.1,1.7,0.3,2.4l1-0.3l1-0.3c-0.1-0.5-0.2-1-0.2-1.8H40.6z M40.9,29.5
	l-1,0.3c0.2,0.7,0.5,1.3,1,1.8l0.7-0.7l0.7-0.7c-0.2-0.1-0.3-0.4-0.5-0.9L40.9,29.5z M41.6,30.8l-0.7,0.7c0.5,0.5,1.2,0.7,1.9,0.7
	v-1v-1c-0.2,0-0.4-0.1-0.5-0.2L41.6,30.8z"/>
<path class="st9" d="M61,162.7h534.8"/>
<path class="st9" d="M61,117.5h534.8"/>
<path class="st9" d="M61,72.3h534.8"/>
<path class="st9" d="M61,27.1h534.8"/>
<path class="st10" d="M61,207.9h534.8"/>
<path class="st10" d="M67.1,27.1v180.9"/>
<path class="st9" d="M595.7,27.1v180.9"/>
<path class="st9" d="M110.8,27.1v180.9"/>
<path class="st9" d="M154.6,27.1v180.9"/>
<path class="st9" d="M198.3,27.1v180.9"/>
<path class="st9" d="M242,27.1v180.9"/>
<path class="st9" d="M285.7,27.1v180.9"/>
<path class="st9" d="M329.5,27.1v180.9"/>
<path class="st9" d="M373.2,27.1v180.9"/>
<path class="st9" d="M416.9,27.1v180.9"/>
<path class="st9" d="M460.6,27.1v180.9"/>
<path class="st9" d="M504.4,27.1v180.9"/>
<path class="st9" d="M548.1,27.1v180.9"/>
<path class="st0" d="M128.9,231.1h-1.1l3.2-8.8h1.1l3.2,8.8h-1.1l-2.6-7.4h-0.1L128.9,231.1z M129.3,227.6h4.5v0.9h-4.5V227.6z
	 M140.8,228.4v-3.9h1v6.6h-1V230h-0.1c-0.2,0.3-0.4,0.6-0.7,0.9c-0.3,0.2-0.7,0.3-1.2,0.3c-0.4,0-0.8-0.1-1.1-0.3
	c-0.3-0.2-0.6-0.5-0.8-0.8c-0.2-0.4-0.3-0.8-0.3-1.4v-4.2h1v4.1c0,0.5,0.1,0.9,0.4,1.2c0.3,0.3,0.6,0.4,1,0.4c0.3,0,0.5-0.1,0.8-0.2
	c0.3-0.1,0.5-0.3,0.7-0.6C140.7,229.1,140.8,228.8,140.8,228.4z M146.3,233.7c-0.5,0-0.9-0.1-1.3-0.2c-0.4-0.1-0.6-0.3-0.9-0.5
	c-0.2-0.2-0.4-0.4-0.6-0.6l0.8-0.6c0.1,0.1,0.2,0.3,0.3,0.4c0.1,0.2,0.3,0.3,0.6,0.4c0.2,0.1,0.6,0.2,1,0.2c0.5,0,1-0.1,1.3-0.4
	c0.3-0.3,0.5-0.7,0.5-1.2v-1.3H148c-0.1,0.1-0.2,0.3-0.3,0.4c-0.1,0.2-0.3,0.3-0.6,0.5c-0.3,0.1-0.6,0.2-1,0.2c-0.5,0-1-0.1-1.4-0.4
	c-0.4-0.3-0.8-0.6-1-1.1c-0.2-0.5-0.4-1.1-0.4-1.8c0-0.7,0.1-1.3,0.4-1.8c0.2-0.5,0.6-0.9,1-1.2c0.4-0.3,0.9-0.4,1.5-0.4
	c0.4,0,0.8,0.1,1,0.2c0.3,0.1,0.4,0.3,0.6,0.5c0.1,0.2,0.2,0.3,0.3,0.4h0.1v-1h1v6.8c0,0.6-0.1,1-0.4,1.4c-0.3,0.4-0.6,0.6-1,0.8
	C147.3,233.6,146.8,233.7,146.3,233.7z M146.2,230.1c0.4,0,0.8-0.1,1-0.3c0.3-0.2,0.5-0.5,0.6-0.8s0.2-0.8,0.2-1.3
	c0-0.5-0.1-0.9-0.2-1.3c-0.1-0.4-0.4-0.6-0.6-0.9c-0.3-0.2-0.6-0.3-1-0.3c-0.4,0-0.8,0.1-1.1,0.3c-0.3,0.2-0.5,0.5-0.6,0.9
	c-0.1,0.4-0.2,0.8-0.2,1.2c0,0.5,0.1,0.9,0.2,1.2c0.1,0.4,0.4,0.6,0.6,0.8C145.5,230,145.8,230.1,146.2,230.1z"/>
<path class="st0" d="M91.8,222.3h1.1v6.3c0,0.6-0.1,1-0.3,1.4c-0.2,0.4-0.5,0.7-0.9,0.9c-0.4,0.2-0.8,0.3-1.3,0.3
	c-0.5,0-0.9-0.1-1.3-0.3c-0.4-0.2-0.7-0.4-0.9-0.8c-0.2-0.3-0.3-0.7-0.3-1.2h1c0,0.2,0.1,0.5,0.2,0.7c0.1,0.2,0.3,0.3,0.5,0.4
	s0.5,0.2,0.7,0.2c0.3,0,0.6-0.1,0.8-0.2c0.2-0.1,0.4-0.3,0.5-0.6c0.1-0.3,0.2-0.6,0.2-0.9V222.3z M99,228.4v-3.9h1v6.6h-1V230h-0.1
	c-0.2,0.3-0.4,0.6-0.7,0.9c-0.3,0.2-0.7,0.3-1.2,0.3c-0.4,0-0.8-0.1-1.1-0.3c-0.3-0.2-0.6-0.5-0.8-0.8c-0.2-0.4-0.3-0.8-0.3-1.4
	v-4.2h1v4.1c0,0.5,0.1,0.9,0.4,1.2c0.3,0.3,0.6,0.4,1,0.4c0.3,0,0.5-0.1,0.8-0.2c0.3-0.1,0.5-0.3,0.7-0.6
	C98.9,229.1,99,228.8,99,228.4z M102.9,222.3v8.8h-1v-8.8H102.9z M105.4,233.6c-0.2,0-0.3,0-0.5,0c-0.1,0-0.2-0.1-0.3-0.1l0.3-0.9
	c0.2,0.1,0.5,0.1,0.7,0.1c0.2,0,0.4-0.1,0.5-0.3c0.1-0.1,0.3-0.4,0.4-0.7l0.2-0.5l-2.4-6.6h1.1l1.8,5.3h0.1l1.8-5.3h1.1l-2.8,7.6
	c-0.1,0.3-0.3,0.6-0.5,0.8c-0.2,0.2-0.4,0.4-0.6,0.5C106,233.5,105.7,233.6,105.4,233.6z"/>
<path class="st0" d="M177.9,224.5c-0.1-0.4-0.3-0.8-0.6-1c-0.4-0.2-0.8-0.4-1.3-0.4c-0.4,0-0.7,0.1-1,0.2c-0.3,0.1-0.5,0.3-0.7,0.5
	c-0.2,0.2-0.2,0.5-0.2,0.8c0,0.2,0.1,0.4,0.2,0.6c0.1,0.2,0.3,0.3,0.4,0.4c0.2,0.1,0.4,0.2,0.6,0.3c0.2,0.1,0.4,0.1,0.5,0.2l0.9,0.2
	c0.2,0.1,0.5,0.1,0.8,0.2c0.3,0.1,0.6,0.2,0.8,0.4c0.3,0.2,0.5,0.4,0.6,0.7c0.2,0.3,0.3,0.6,0.3,1c0,0.5-0.1,0.9-0.4,1.3
	c-0.2,0.4-0.6,0.7-1.1,0.9c-0.5,0.2-1,0.3-1.7,0.3c-0.6,0-1.2-0.1-1.6-0.3c-0.5-0.2-0.8-0.5-1.1-0.8c-0.3-0.4-0.4-0.8-0.4-1.3h1.1
	c0,0.3,0.1,0.6,0.3,0.8c0.2,0.2,0.4,0.4,0.7,0.5c0.3,0.1,0.6,0.2,1,0.2c0.4,0,0.8-0.1,1.1-0.2c0.3-0.1,0.6-0.3,0.8-0.6
	c0.2-0.2,0.3-0.5,0.3-0.8c0-0.3-0.1-0.5-0.2-0.7c-0.2-0.2-0.4-0.3-0.6-0.4c-0.3-0.1-0.6-0.2-0.9-0.3l-1.1-0.3
	c-0.7-0.2-1.2-0.5-1.6-0.8c-0.4-0.4-0.6-0.8-0.6-1.4c0-0.5,0.1-0.9,0.4-1.3c0.3-0.4,0.6-0.7,1.1-0.9c0.5-0.2,1-0.3,1.5-0.3
	c0.6,0,1.1,0.1,1.5,0.3c0.4,0.2,0.8,0.5,1,0.8c0.3,0.3,0.4,0.7,0.4,1.2H177.9z M183.4,231.2c-0.6,0-1.2-0.1-1.6-0.4
	c-0.5-0.3-0.8-0.7-1.1-1.2c-0.2-0.5-0.4-1.1-0.4-1.8c0-0.7,0.1-1.3,0.4-1.8c0.2-0.5,0.6-0.9,1-1.2c0.4-0.3,1-0.4,1.6-0.4
	c0.3,0,0.7,0.1,1,0.2c0.3,0.1,0.6,0.3,0.9,0.6c0.3,0.3,0.5,0.6,0.7,1c0.2,0.4,0.2,0.9,0.2,1.6v0.4h-5.1v-0.9h4.1
	c0-0.4-0.1-0.7-0.2-1c-0.1-0.3-0.4-0.5-0.6-0.7c-0.3-0.2-0.6-0.3-1-0.3c-0.4,0-0.8,0.1-1,0.3c-0.3,0.2-0.5,0.5-0.7,0.8
	c-0.2,0.3-0.2,0.7-0.2,1v0.6c0,0.5,0.1,0.9,0.3,1.3c0.2,0.3,0.4,0.6,0.7,0.8c0.3,0.2,0.7,0.3,1.1,0.3c0.3,0,0.5,0,0.7-0.1
	c0.2-0.1,0.4-0.2,0.6-0.3c0.2-0.2,0.3-0.3,0.4-0.6l1,0.3c-0.1,0.3-0.3,0.6-0.5,0.9c-0.2,0.2-0.5,0.4-0.9,0.6
	C184.3,231.1,183.9,231.2,183.4,231.2z M187.7,233.6v-9.1h1v1h0.1c0.1-0.1,0.2-0.3,0.3-0.4c0.1-0.2,0.3-0.3,0.6-0.5
	c0.3-0.1,0.6-0.2,1-0.2c0.6,0,1,0.1,1.5,0.4c0.4,0.3,0.8,0.7,1,1.2c0.2,0.5,0.4,1.1,0.4,1.8c0,0.7-0.1,1.3-0.4,1.8
	c-0.2,0.5-0.6,0.9-1,1.2c-0.4,0.3-0.9,0.4-1.5,0.4c-0.4,0-0.8-0.1-1-0.2c-0.3-0.1-0.4-0.3-0.6-0.5c-0.1-0.2-0.2-0.3-0.3-0.5h-0.1
	v3.5H187.7z M188.7,227.8c0,0.5,0.1,0.9,0.2,1.3c0.1,0.4,0.4,0.7,0.6,0.9c0.3,0.2,0.6,0.3,1,0.3c0.4,0,0.8-0.1,1.1-0.3
	c0.3-0.2,0.5-0.5,0.6-0.9c0.1-0.4,0.2-0.8,0.2-1.3c0-0.5-0.1-0.9-0.2-1.3c-0.1-0.4-0.4-0.7-0.6-0.9c-0.3-0.2-0.6-0.3-1.1-0.3
	c-0.4,0-0.8,0.1-1,0.3c-0.3,0.2-0.5,0.5-0.6,0.9C188.8,226.9,188.7,227.3,188.7,227.8z"/>
<path class="st0" d="M222,226.7c0,0.9-0.2,1.7-0.5,2.4c-0.3,0.7-0.8,1.2-1.4,1.6c-0.6,0.4-1.2,0.5-2,0.5s-1.4-0.2-2-0.5
	c-0.6-0.4-1-0.9-1.4-1.6c-0.3-0.7-0.5-1.5-0.5-2.4c0-0.9,0.2-1.7,0.5-2.4c0.3-0.7,0.8-1.2,1.4-1.6s1.3-0.6,2-0.6s1.4,0.2,2,0.6
	s1,0.9,1.4,1.6C221.8,225,222,225.8,222,226.7z M221,226.7c0-0.8-0.1-1.4-0.4-1.9c-0.3-0.5-0.6-0.9-1-1.2c-0.4-0.3-0.9-0.4-1.4-0.4
	c-0.5,0-1,0.1-1.4,0.4c-0.4,0.3-0.8,0.7-1,1.2c-0.3,0.5-0.4,1.2-0.4,1.9c0,0.8,0.1,1.4,0.4,1.9c0.3,0.5,0.6,0.9,1,1.2
	c0.4,0.3,0.9,0.4,1.4,0.4c0.5,0,1-0.1,1.4-0.4c0.4-0.3,0.8-0.7,1-1.2C220.8,228.1,221,227.4,221,226.7z M226.3,231.2
	c-0.6,0-1.2-0.1-1.6-0.4c-0.4-0.3-0.8-0.7-1-1.2c-0.2-0.5-0.4-1.1-0.4-1.8c0-0.7,0.1-1.3,0.4-1.8c0.2-0.5,0.6-0.9,1-1.2
	c0.4-0.3,1-0.4,1.6-0.4c0.5,0,0.9,0.1,1.3,0.3c0.4,0.2,0.7,0.4,0.9,0.7c0.2,0.3,0.4,0.7,0.4,1.1h-1c-0.1-0.3-0.2-0.6-0.5-0.8
	c-0.3-0.2-0.6-0.4-1.1-0.4c-0.4,0-0.7,0.1-1,0.3c-0.3,0.2-0.5,0.5-0.7,0.9c-0.2,0.4-0.2,0.8-0.2,1.3c0,0.5,0.1,1,0.2,1.3
	c0.2,0.4,0.4,0.7,0.7,0.9c0.3,0.2,0.6,0.3,1,0.3c0.3,0,0.5,0,0.7-0.1c0.2-0.1,0.4-0.2,0.5-0.4c0.1-0.2,0.3-0.4,0.3-0.6h1
	c-0.1,0.4-0.2,0.7-0.4,1.1c-0.2,0.3-0.5,0.6-0.9,0.7C227.2,231.1,226.8,231.2,226.3,231.2z M233.3,224.5v0.9h-3.4v-0.9H233.3z
	 M230.8,222.9h1v6.3c0,0.3,0,0.5,0.1,0.6c0.1,0.1,0.2,0.2,0.3,0.3c0.1,0,0.3,0.1,0.4,0.1c0.1,0,0.2,0,0.3,0c0.1,0,0.1,0,0.2,0
	l0.2,0.9c-0.1,0-0.2,0.1-0.3,0.1c-0.1,0-0.3,0-0.5,0c-0.3,0-0.6-0.1-0.8-0.2c-0.3-0.1-0.5-0.3-0.7-0.6c-0.2-0.3-0.3-0.6-0.3-1V222.9
	z"/>
<path class="st0" d="M260.6,222.3v8.8h-1l-4.8-6.9h-0.1v6.9h-1.1v-8.8h1l4.8,6.9h0.1v-6.9H260.6z M265.3,231.2
	c-0.6,0-1.1-0.1-1.6-0.4c-0.4-0.3-0.8-0.7-1-1.2c-0.2-0.5-0.4-1.1-0.4-1.8c0-0.7,0.1-1.3,0.4-1.8c0.3-0.5,0.6-0.9,1-1.2
	c0.4-0.3,1-0.4,1.6-0.4s1.1,0.1,1.6,0.4c0.4,0.3,0.8,0.7,1,1.2c0.3,0.5,0.4,1.1,0.4,1.8c0,0.7-0.1,1.3-0.4,1.8
	c-0.2,0.5-0.6,0.9-1,1.2C266.4,231.1,265.9,231.2,265.3,231.2z M265.3,230.3c0.5,0,0.8-0.1,1.1-0.3c0.3-0.2,0.5-0.5,0.6-0.9
	c0.1-0.4,0.2-0.8,0.2-1.2c0-0.4-0.1-0.9-0.2-1.2c-0.1-0.4-0.4-0.7-0.6-0.9c-0.3-0.2-0.7-0.4-1.1-0.4s-0.8,0.1-1.1,0.4
	c-0.3,0.2-0.5,0.5-0.6,0.9c-0.1,0.4-0.2,0.8-0.2,1.2c0,0.4,0.1,0.8,0.2,1.2c0.1,0.4,0.4,0.7,0.6,0.9
	C264.4,230.2,264.8,230.3,265.3,230.3z M275,224.5l-2.4,6.6h-1l-2.4-6.6h1.1l1.8,5.3h0.1l1.8-5.3H275z"/>
<path class="st0" d="M297.2,231.1h-2.7v-8.8h2.8c0.9,0,1.6,0.2,2.2,0.5c0.6,0.3,1.1,0.9,1.4,1.5c0.3,0.7,0.5,1.4,0.5,2.3
	c0,0.9-0.2,1.7-0.5,2.4c-0.3,0.7-0.8,1.2-1.4,1.5C298.8,230.9,298.1,231.1,297.2,231.1z M295.5,230.1h1.6c0.7,0,1.3-0.1,1.8-0.4
	c0.5-0.3,0.8-0.7,1.1-1.2c0.2-0.5,0.4-1.1,0.4-1.9c0-0.7-0.1-1.3-0.3-1.8c-0.2-0.5-0.6-0.9-1-1.2c-0.5-0.3-1-0.4-1.7-0.4h-1.7V230.1
	z M305.8,231.2c-0.6,0-1.2-0.1-1.6-0.4c-0.5-0.3-0.8-0.7-1.1-1.2c-0.2-0.5-0.4-1.1-0.4-1.8c0-0.7,0.1-1.3,0.4-1.8
	c0.2-0.5,0.6-0.9,1-1.2c0.4-0.3,1-0.4,1.6-0.4c0.3,0,0.7,0.1,1,0.2c0.3,0.1,0.6,0.3,0.9,0.6c0.3,0.3,0.5,0.6,0.7,1
	c0.2,0.4,0.2,0.9,0.2,1.6v0.4h-5.1v-0.9h4.1c0-0.4-0.1-0.7-0.2-1c-0.1-0.3-0.4-0.5-0.6-0.7c-0.3-0.2-0.6-0.3-1-0.3
	c-0.4,0-0.8,0.1-1,0.3c-0.3,0.2-0.5,0.5-0.7,0.8c-0.2,0.3-0.2,0.7-0.2,1v0.6c0,0.5,0.1,0.9,0.3,1.3c0.2,0.3,0.4,0.6,0.7,0.8
	c0.3,0.2,0.7,0.3,1.1,0.3c0.3,0,0.5,0,0.7-0.1c0.2-0.1,0.4-0.2,0.6-0.3c0.2-0.2,0.3-0.3,0.4-0.6l1,0.3c-0.1,0.3-0.3,0.6-0.5,0.9
	c-0.2,0.2-0.5,0.4-0.9,0.6C306.6,231.1,306.2,231.2,305.8,231.2z M312.7,231.2c-0.6,0-1.2-0.1-1.6-0.4c-0.4-0.3-0.8-0.7-1-1.2
	c-0.2-0.5-0.4-1.1-0.4-1.8c0-0.7,0.1-1.3,0.4-1.8c0.2-0.5,0.6-0.9,1-1.2c0.4-0.3,1-0.4,1.6-0.4c0.5,0,0.9,0.1,1.3,0.3
	c0.4,0.2,0.7,0.4,0.9,0.7c0.2,0.3,0.4,0.7,0.4,1.1h-1c-0.1-0.3-0.2-0.6-0.5-0.8c-0.3-0.2-0.6-0.4-1.1-0.4c-0.4,0-0.7,0.1-1,0.3
	c-0.3,0.2-0.5,0.5-0.7,0.9c-0.2,0.4-0.2,0.8-0.2,1.3c0,0.5,0.1,1,0.2,1.3c0.2,0.4,0.4,0.7,0.7,0.9c0.3,0.2,0.6,0.3,1,0.3
	c0.3,0,0.5,0,0.7-0.1c0.2-0.1,0.4-0.2,0.5-0.4c0.1-0.2,0.3-0.4,0.3-0.6h1c-0.1,0.4-0.2,0.7-0.4,1.1c-0.2,0.3-0.5,0.6-0.9,0.7
	C313.6,231.1,313.2,231.2,312.7,231.2z"/>
<path class="st0" d="M335.3,222.3h1.1v6.3c0,0.6-0.1,1-0.3,1.4c-0.2,0.4-0.5,0.7-0.9,0.9c-0.4,0.2-0.8,0.3-1.3,0.3
	c-0.5,0-0.9-0.1-1.3-0.3c-0.4-0.2-0.7-0.4-0.9-0.8c-0.2-0.3-0.3-0.7-0.3-1.2h1c0,0.2,0.1,0.5,0.2,0.7c0.1,0.2,0.3,0.3,0.5,0.4
	c0.2,0.1,0.5,0.2,0.7,0.2c0.3,0,0.6-0.1,0.8-0.2c0.2-0.1,0.4-0.3,0.5-0.6c0.1-0.3,0.2-0.6,0.2-0.9V222.3z M340.3,231.2
	c-0.4,0-0.8-0.1-1.1-0.2c-0.3-0.2-0.6-0.4-0.8-0.7c-0.2-0.3-0.3-0.7-0.3-1.1c0-0.4,0.1-0.7,0.2-0.9c0.1-0.2,0.3-0.4,0.6-0.6
	c0.2-0.1,0.5-0.2,0.8-0.3c0.3-0.1,0.6-0.1,0.9-0.2c0.4-0.1,0.7-0.1,1-0.1c0.3,0,0.4-0.1,0.5-0.1c0.1-0.1,0.2-0.2,0.2-0.3v0
	c0-0.4-0.1-0.8-0.3-1c-0.2-0.2-0.6-0.4-1-0.4c-0.5,0-0.9,0.1-1.1,0.3c-0.3,0.2-0.5,0.4-0.6,0.7l-1-0.3c0.2-0.4,0.4-0.7,0.7-0.9
	c0.3-0.2,0.6-0.4,0.9-0.5c0.3-0.1,0.7-0.1,1-0.1c0.2,0,0.5,0,0.7,0.1c0.3,0,0.5,0.1,0.8,0.3c0.3,0.2,0.5,0.4,0.6,0.7
	c0.2,0.3,0.3,0.7,0.3,1.3v4.3h-1v-0.9h-0.1c-0.1,0.1-0.2,0.3-0.3,0.5c-0.2,0.2-0.4,0.3-0.6,0.4C341,231.2,340.7,231.2,340.3,231.2z
	 M340.5,230.3c0.4,0,0.7-0.1,1-0.2c0.3-0.2,0.5-0.4,0.6-0.6c0.1-0.2,0.2-0.5,0.2-0.8v-0.9c0,0.1-0.1,0.1-0.3,0.1
	c-0.1,0-0.3,0.1-0.5,0.1c-0.2,0-0.4,0.1-0.5,0.1c-0.2,0-0.3,0-0.4,0.1c-0.3,0-0.5,0.1-0.7,0.2c-0.2,0.1-0.4,0.2-0.5,0.3
	c-0.1,0.1-0.2,0.4-0.2,0.6c0,0.4,0.1,0.6,0.4,0.8C339.7,230.2,340.1,230.3,340.5,230.3z M346.2,227.1v4h-1v-6.6h1v1h0.1
	c0.2-0.3,0.4-0.6,0.7-0.8c0.3-0.2,0.7-0.3,1.2-0.3c0.4,0,0.8,0.1,1.2,0.3c0.3,0.2,0.6,0.5,0.8,0.8c0.2,0.4,0.3,0.8,0.3,1.4v4.2h-1
	V227c0-0.5-0.1-0.9-0.4-1.2c-0.3-0.3-0.6-0.4-1.1-0.4c-0.3,0-0.6,0.1-0.9,0.2c-0.3,0.1-0.5,0.3-0.6,0.6
	C346.3,226.4,346.2,226.7,346.2,227.1z"/>
<path class="st0" d="M377.3,231.1v-8.8h5.3v0.9h-4.2v3h3.8v0.9h-3.8v3.9H377.3z M386.6,231.2c-0.6,0-1.2-0.1-1.6-0.4
	c-0.5-0.3-0.8-0.7-1.1-1.2c-0.2-0.5-0.4-1.1-0.4-1.8c0-0.7,0.1-1.3,0.4-1.8c0.2-0.5,0.6-0.9,1-1.2c0.4-0.3,1-0.4,1.6-0.4
	c0.3,0,0.7,0.1,1,0.2c0.3,0.1,0.6,0.3,0.9,0.6c0.3,0.3,0.5,0.6,0.7,1s0.2,0.9,0.2,1.6v0.4h-5.1v-0.9h4.1c0-0.4-0.1-0.7-0.2-1
	c-0.1-0.3-0.4-0.5-0.6-0.7c-0.3-0.2-0.6-0.3-1-0.3c-0.4,0-0.8,0.1-1,0.3c-0.3,0.2-0.5,0.5-0.7,0.8c-0.2,0.3-0.2,0.7-0.2,1v0.6
	c0,0.5,0.1,0.9,0.3,1.3c0.2,0.3,0.4,0.6,0.7,0.8c0.3,0.2,0.7,0.3,1.1,0.3c0.3,0,0.5,0,0.7-0.1c0.2-0.1,0.4-0.2,0.6-0.3
	c0.2-0.2,0.3-0.3,0.4-0.6l1,0.3c-0.1,0.3-0.3,0.6-0.5,0.9c-0.2,0.2-0.5,0.4-0.9,0.6C387.4,231.1,387,231.2,386.6,231.2z M391,231.1
	v-8.8h1v3.2h0.1c0.1-0.1,0.2-0.3,0.3-0.4c0.1-0.2,0.3-0.3,0.6-0.5c0.3-0.1,0.6-0.2,1-0.2c0.6,0,1,0.1,1.5,0.4c0.4,0.3,0.8,0.7,1,1.2
	c0.2,0.5,0.4,1.1,0.4,1.8c0,0.7-0.1,1.3-0.4,1.8c-0.2,0.5-0.6,0.9-1,1.2c-0.4,0.3-0.9,0.4-1.5,0.4c-0.4,0-0.8-0.1-1-0.2
	c-0.3-0.1-0.5-0.3-0.6-0.5c-0.1-0.2-0.2-0.3-0.3-0.5H392v1H391z M392,227.8c0,0.5,0.1,0.9,0.2,1.3c0.1,0.4,0.4,0.7,0.6,0.9
	c0.3,0.2,0.6,0.3,1,0.3c0.4,0,0.8-0.1,1.1-0.3c0.3-0.2,0.5-0.5,0.6-0.9c0.1-0.4,0.2-0.8,0.2-1.3c0-0.5-0.1-0.9-0.2-1.3
	c-0.1-0.4-0.4-0.7-0.6-0.9c-0.3-0.2-0.6-0.3-1.1-0.3c-0.4,0-0.8,0.1-1,0.3c-0.3,0.2-0.5,0.5-0.6,0.9C392,226.9,392,227.3,392,227.8z
	"/>
<path class="st0" d="M377.3,231.1v-8.8h5.3v0.9h-4.2v3h3.8v0.9h-3.8v3.9H377.3z M386.6,231.2c-0.6,0-1.2-0.1-1.6-0.4
	c-0.5-0.3-0.8-0.7-1.1-1.2c-0.2-0.5-0.4-1.1-0.4-1.8c0-0.7,0.1-1.3,0.4-1.8c0.2-0.5,0.6-0.9,1-1.2c0.4-0.3,1-0.4,1.6-0.4
	c0.3,0,0.7,0.1,1,0.2c0.3,0.1,0.6,0.3,0.9,0.6c0.3,0.3,0.5,0.6,0.7,1s0.2,0.9,0.2,1.6v0.4h-5.1v-0.9h4.1c0-0.4-0.1-0.7-0.2-1
	c-0.1-0.3-0.4-0.5-0.6-0.7c-0.3-0.2-0.6-0.3-1-0.3c-0.4,0-0.8,0.1-1,0.3c-0.3,0.2-0.5,0.5-0.7,0.8c-0.2,0.3-0.2,0.7-0.2,1v0.6
	c0,0.5,0.1,0.9,0.3,1.3c0.2,0.3,0.4,0.6,0.7,0.8c0.3,0.2,0.7,0.3,1.1,0.3c0.3,0,0.5,0,0.7-0.1c0.2-0.1,0.4-0.2,0.6-0.3
	c0.2-0.2,0.3-0.3,0.4-0.6l1,0.3c-0.1,0.3-0.3,0.6-0.5,0.9c-0.2,0.2-0.5,0.4-0.9,0.6C387.4,231.1,387,231.2,386.6,231.2z M391,231.1
	v-8.8h1v3.2h0.1c0.1-0.1,0.2-0.3,0.3-0.4c0.1-0.2,0.3-0.3,0.6-0.5c0.3-0.1,0.6-0.2,1-0.2c0.6,0,1,0.1,1.5,0.4c0.4,0.3,0.8,0.7,1,1.2
	c0.2,0.5,0.4,1.1,0.4,1.8c0,0.7-0.1,1.3-0.4,1.8c-0.2,0.5-0.6,0.9-1,1.2c-0.4,0.3-0.9,0.4-1.5,0.4c-0.4,0-0.8-0.1-1-0.2
	c-0.3-0.1-0.5-0.3-0.6-0.5c-0.1-0.2-0.2-0.3-0.3-0.5H392v1H391z M392,227.8c0,0.5,0.1,0.9,0.2,1.3c0.1,0.4,0.4,0.7,0.6,0.9
	c0.3,0.2,0.6,0.3,1,0.3c0.4,0,0.8-0.1,1.1-0.3c0.3-0.2,0.5-0.5,0.6-0.9c0.1-0.4,0.2-0.8,0.2-1.3c0-0.5-0.1-0.9-0.2-1.3
	c-0.1-0.4-0.4-0.7-0.6-0.9c-0.3-0.2-0.6-0.3-1.1-0.3c-0.4,0-0.8,0.1-1,0.3c-0.3,0.2-0.5,0.5-0.6,0.9C392,226.9,392,227.3,392,227.8z
	"/>
<path class="st0" d="M416.6,222.3h1.3l3,7.3h0.1l3-7.3h1.3v8.8h-1v-6.7h-0.1l-2.7,6.7h-1l-2.7-6.7h-0.1v6.7h-1V222.3z M429.2,231.2
	c-0.4,0-0.8-0.1-1.1-0.2c-0.3-0.2-0.6-0.4-0.8-0.7c-0.2-0.3-0.3-0.7-0.3-1.1c0-0.4,0.1-0.7,0.2-0.9c0.1-0.2,0.3-0.4,0.6-0.6
	c0.2-0.1,0.5-0.2,0.8-0.3c0.3-0.1,0.6-0.1,0.9-0.2c0.4-0.1,0.7-0.1,1-0.1c0.3,0,0.4-0.1,0.5-0.1c0.1-0.1,0.2-0.2,0.2-0.3v0
	c0-0.4-0.1-0.8-0.3-1c-0.2-0.2-0.6-0.4-1-0.4c-0.5,0-0.9,0.1-1.1,0.3c-0.3,0.2-0.5,0.4-0.6,0.7l-1-0.3c0.2-0.4,0.4-0.7,0.7-0.9
	c0.3-0.2,0.6-0.4,0.9-0.5c0.3-0.1,0.7-0.1,1-0.1c0.2,0,0.5,0,0.7,0.1c0.3,0,0.5,0.1,0.8,0.3c0.3,0.2,0.5,0.4,0.6,0.7
	c0.2,0.3,0.3,0.7,0.3,1.3v4.3h-1v-0.9h-0.1c-0.1,0.1-0.2,0.3-0.3,0.5c-0.2,0.2-0.4,0.3-0.6,0.4C429.9,231.2,429.6,231.2,429.2,231.2
	z M429.4,230.3c0.4,0,0.7-0.1,1-0.2c0.3-0.2,0.5-0.4,0.6-0.6c0.1-0.2,0.2-0.5,0.2-0.8v-0.9c0,0.1-0.1,0.1-0.3,0.1
	c-0.1,0-0.3,0.1-0.5,0.1c-0.2,0-0.4,0.1-0.5,0.1c-0.2,0-0.3,0-0.4,0.1c-0.3,0-0.5,0.1-0.7,0.2c-0.2,0.1-0.4,0.2-0.5,0.3
	c-0.1,0.1-0.2,0.4-0.2,0.6c0,0.4,0.1,0.6,0.4,0.8C428.6,230.2,429,230.3,429.4,230.3z M434.1,231.1v-6.6h1v1h0.1
	c0.1-0.3,0.3-0.6,0.7-0.8c0.3-0.2,0.7-0.3,1.1-0.3c0.1,0,0.2,0,0.3,0c0.1,0,0.2,0,0.3,0v1c0,0-0.1,0-0.2,0c-0.1,0-0.2,0-0.4,0
	c-0.3,0-0.6,0.1-0.9,0.2c-0.2,0.1-0.4,0.3-0.6,0.5c-0.1,0.2-0.2,0.5-0.2,0.8v4.2H434.1z"/>
<path class="st0" d="M458.2,231.1H457l3.2-8.8h1.1l3.2,8.8h-1.1l-2.6-7.4h-0.1L458.2,231.1z M458.6,227.6h4.5v0.9h-4.5V227.6z
	 M465.8,233.6v-9.1h1v1h0.1c0.1-0.1,0.2-0.3,0.3-0.4c0.1-0.2,0.3-0.3,0.6-0.5c0.3-0.1,0.6-0.2,1-0.2c0.6,0,1,0.1,1.5,0.4
	c0.4,0.3,0.8,0.7,1,1.2c0.2,0.5,0.4,1.1,0.4,1.8c0,0.7-0.1,1.3-0.4,1.8c-0.2,0.5-0.6,0.9-1,1.2c-0.4,0.3-0.9,0.4-1.5,0.4
	c-0.4,0-0.8-0.1-1-0.2c-0.3-0.1-0.5-0.3-0.6-0.5c-0.1-0.2-0.2-0.3-0.3-0.5h-0.1v3.5H465.8z M466.8,227.8c0,0.5,0.1,0.9,0.2,1.3
	c0.1,0.4,0.4,0.7,0.6,0.9c0.3,0.2,0.6,0.3,1,0.3c0.4,0,0.8-0.1,1.1-0.3c0.3-0.2,0.5-0.5,0.6-0.9c0.1-0.4,0.2-0.8,0.2-1.3
	c0-0.5-0.1-0.9-0.2-1.3c-0.1-0.4-0.4-0.7-0.6-0.9c-0.3-0.2-0.6-0.3-1.1-0.3c-0.4,0-0.8,0.1-1,0.3c-0.3,0.2-0.5,0.5-0.6,0.9
	C466.9,226.9,466.8,227.3,466.8,227.8z M473.2,231.1v-6.6h1v1h0.1c0.1-0.3,0.3-0.6,0.7-0.8c0.3-0.2,0.7-0.3,1.1-0.3
	c0.1,0,0.2,0,0.3,0c0.1,0,0.2,0,0.3,0v1c0,0-0.1,0-0.2,0c-0.1,0-0.2,0-0.4,0c-0.3,0-0.6,0.1-0.9,0.2c-0.2,0.1-0.4,0.3-0.6,0.5
	c-0.1,0.2-0.2,0.5-0.2,0.8v4.2H473.2z"/>
<path class="st0" d="M497.5,222.3h1.3l3,7.3h0.1l3-7.3h1.3v8.8h-1v-6.7h-0.1l-2.7,6.7h-1l-2.7-6.7h-0.1v6.7h-1V222.3z M510.1,231.2
	c-0.4,0-0.8-0.1-1.1-0.2c-0.3-0.2-0.6-0.4-0.8-0.7c-0.2-0.3-0.3-0.7-0.3-1.1c0-0.4,0.1-0.7,0.2-0.9c0.1-0.2,0.3-0.4,0.6-0.6
	c0.2-0.1,0.5-0.2,0.8-0.3c0.3-0.1,0.6-0.1,0.9-0.2c0.4-0.1,0.7-0.1,1-0.1c0.3,0,0.4-0.1,0.6-0.1c0.1-0.1,0.2-0.2,0.2-0.3v0
	c0-0.4-0.1-0.8-0.3-1c-0.2-0.2-0.6-0.4-1-0.4c-0.5,0-0.9,0.1-1.1,0.3c-0.3,0.2-0.5,0.4-0.6,0.7l-1-0.3c0.2-0.4,0.4-0.7,0.7-0.9
	c0.3-0.2,0.6-0.4,0.9-0.5c0.3-0.1,0.7-0.1,1-0.1c0.2,0,0.5,0,0.7,0.1c0.3,0,0.5,0.1,0.8,0.3c0.3,0.2,0.5,0.4,0.6,0.7
	c0.2,0.3,0.3,0.7,0.3,1.3v4.3h-1v-0.9H512c-0.1,0.1-0.2,0.3-0.3,0.5c-0.2,0.2-0.4,0.3-0.6,0.4C510.8,231.2,510.5,231.2,510.1,231.2z
	 M510.2,230.3c0.4,0,0.7-0.1,1-0.2c0.3-0.2,0.5-0.4,0.6-0.6c0.1-0.2,0.2-0.5,0.2-0.8v-0.9c0,0.1-0.1,0.1-0.3,0.1
	c-0.1,0-0.3,0.1-0.5,0.1c-0.2,0-0.4,0.1-0.5,0.1c-0.2,0-0.3,0-0.4,0.1c-0.3,0-0.5,0.1-0.7,0.2c-0.2,0.1-0.4,0.2-0.5,0.3
	c-0.1,0.1-0.2,0.4-0.2,0.6c0,0.4,0.1,0.6,0.4,0.8C509.5,230.2,509.8,230.3,510.2,230.3z M515.4,233.6c-0.2,0-0.3,0-0.5,0
	c-0.1,0-0.2-0.1-0.3-0.1l0.3-0.9c0.2,0.1,0.5,0.1,0.7,0.1c0.2,0,0.4-0.1,0.5-0.3c0.1-0.1,0.3-0.4,0.4-0.7l0.2-0.5l-2.4-6.6h1.1
	l1.8,5.3h0.1l1.8-5.3h1.1l-2.8,7.6c-0.1,0.3-0.3,0.6-0.5,0.8c-0.2,0.2-0.4,0.4-0.6,0.5C515.9,233.5,515.7,233.6,515.4,233.6z"/>
<path class="st0" d="M545.9,222.3h1.1v6.3c0,0.6-0.1,1-0.3,1.4c-0.2,0.4-0.5,0.7-0.9,0.9c-0.4,0.2-0.8,0.3-1.3,0.3
	c-0.5,0-0.9-0.1-1.3-0.3c-0.4-0.2-0.7-0.4-0.9-0.8c-0.2-0.3-0.3-0.7-0.3-1.2h1c0,0.2,0.1,0.5,0.2,0.7c0.1,0.2,0.3,0.3,0.5,0.4
	c0.2,0.1,0.5,0.2,0.7,0.2c0.3,0,0.6-0.1,0.8-0.2c0.2-0.1,0.4-0.3,0.5-0.6c0.1-0.3,0.2-0.6,0.2-0.9V222.3z M553.1,228.4v-3.9h1v6.6
	h-1V230H553c-0.2,0.3-0.4,0.6-0.7,0.9c-0.3,0.2-0.7,0.3-1.2,0.3c-0.4,0-0.8-0.1-1.1-0.3c-0.3-0.2-0.6-0.5-0.8-0.8
	c-0.2-0.4-0.3-0.8-0.3-1.4v-4.2h1v4.1c0,0.5,0.1,0.9,0.4,1.2c0.3,0.3,0.6,0.4,1,0.4c0.3,0,0.5-0.1,0.8-0.2c0.3-0.1,0.5-0.3,0.7-0.6
	C553,229.1,553.1,228.8,553.1,228.4z M557,227.1v4h-1v-6.6h1v1h0.1c0.2-0.3,0.4-0.6,0.7-0.8c0.3-0.2,0.7-0.3,1.2-0.3
	c0.4,0,0.8,0.1,1.2,0.3c0.3,0.2,0.6,0.5,0.8,0.8c0.2,0.4,0.3,0.8,0.3,1.4v4.2h-1V227c0-0.5-0.1-0.9-0.4-1.2
	c-0.3-0.3-0.6-0.4-1.1-0.4c-0.3,0-0.6,0.1-0.9,0.2c-0.3,0.1-0.5,0.3-0.6,0.6C557.1,226.4,557,226.7,557,227.1z"/>
<path class="st11" d="M96.3,102.4h10.3c5.1,0,9.3,4.2,9.3,9.3v67.9c0,5.1-4.2,9.3-9.3,9.3H96.3c-5.1,0-9.3-4.2-9.3-9.3v-67.9
	C87,106.5,91.1,102.4,96.3,102.4z"/>
<path class="st11" d="M136.9,56.8h10.3c5.1,0,9.3,4.2,9.3,9.3v113.5c0,5.1-4.2,9.3-9.3,9.3h-10.3c-5.1,0-9.3-4.2-9.3-9.3V66.1
	C127.6,61,131.8,56.8,136.9,56.8z"/>
<path class="st11" d="M177.6,99.6h10.3c5.1,0,9.3,4.2,9.3,9.3v70.7c0,5.1-4.2,9.3-9.3,9.3h-10.3c-5.1,0-9.3-4.2-9.3-9.3v-70.7
	C168.3,103.8,172.5,99.6,177.6,99.6z"/>
<path class="st11" d="M218.3,143.3h10.3c5.1,0,9.3,4.2,9.3,9.3v27c0,5.1-4.2,9.3-9.3,9.3h-10.3c-5.1,0-9.3-4.2-9.3-9.3v-27
	C209,147.5,213.1,143.3,218.3,143.3z"/>
<path class="st11" d="M258.9,68.9h10.3c5.1,0,9.3,4.2,9.3,9.3v101.4c0,5.1-4.2,9.3-9.3,9.3h-10.3c-5.1,0-9.3-4.2-9.3-9.3V78.2
	C249.6,73.1,253.8,68.9,258.9,68.9z"/>
<path class="st11" d="M299.6,107h10.3c5.1,0,9.3,4.2,9.3,9.3v63.2c0,5.1-4.2,9.3-9.3,9.3h-10.3c-5.1,0-9.3-4.2-9.3-9.3v-63.2
	C290.3,111.2,294.4,107,299.6,107z"/>
<path class="st11" d="M340.2,124.3h10.3c5.1,0,9.3,4.2,9.3,9.3v45.9c0,5.1-4.2,9.3-9.3,9.3h-10.3c-5.1,0-9.3-4.2-9.3-9.3v-45.9
	C330.9,128.5,335.1,124.3,340.2,124.3z"/>
<path class="st11" d="M380.9,107h10.3c5.1,0,9.3,4.2,9.3,9.3v63.2c0,5.1-4.2,9.3-9.3,9.3h-10.3c-5.1,0-9.3-4.2-9.3-9.3v-63.2
	C371.6,111.2,375.8,107,380.9,107z"/>
<path class="st11" d="M421.6,68.9h10.3c5.1,0,9.3,4.2,9.3,9.3v101.4c0,5.1-4.2,9.3-9.3,9.3h-10.3c-5.1,0-9.3-4.2-9.3-9.3V78.2
	C412.3,73.1,416.4,68.9,421.6,68.9z"/>
<path class="st11" d="M462.2,107h10.3c5.1,0,9.3,4.2,9.3,9.3v63.2c0,5.1-4.2,9.3-9.3,9.3h-10.3c-5.1,0-9.3-4.2-9.3-9.3v-63.2
	C452.9,111.2,457.1,107,462.2,107z"/>
<path class="st11" d="M502.9,47h10.3c5.1,0,9.3,4.2,9.3,9.3v123.2c0,5.1-4.2,9.3-9.3,9.3h-10.3c-5.1,0-9.3-4.2-9.3-9.3V56.3
	C493.6,51.2,497.8,47,502.9,47z"/>
<path class="st11" d="M543.6,78.7h10.3c5.1,0,9.3,4.2,9.3,9.3v91.6c0,5.1-4.2,9.3-9.3,9.3h-10.3c-5.1,0-9.3-4.2-9.3-9.3V88
	C534.3,82.8,538.4,78.7,543.6,78.7z"/>
</svg>
