<svg width="39" height="38" viewBox="0 0 39 38" fill="none" xmlns="http://www.w3.org/2000/svg">
<path d="M29.6976 22.3447C28.3703 22.3447 27.0729 22.7279 25.9693 23.4459C24.8657 24.1639 24.0056 25.1844 23.4976 26.3784C22.9897 27.5723 22.8568 28.8861 23.1158 30.1537C23.3747 31.4212 24.0138 32.5854 24.9524 33.4993C25.8909 34.4131 27.0866 35.0354 28.3884 35.2875C29.6901 35.5396 31.0395 35.4102 32.2657 34.9157C33.4919 34.4211 34.54 33.5836 35.2774 32.5091C36.0148 31.4346 36.4084 30.1712 36.4084 28.8789C36.4084 27.1459 35.7013 25.4839 34.4428 24.2585C33.1843 23.0331 31.4774 22.3447 29.6976 22.3447ZM32.941 29.7764H29.6982C29.4538 29.7764 29.2193 29.6819 29.0464 29.5136C28.8736 29.3452 28.7764 29.1169 28.7764 28.8789V25.0778C28.7764 24.8397 28.8736 24.6114 29.0464 24.4431C29.2193 24.2748 29.4538 24.1802 29.6982 24.1802C29.9427 24.1802 30.1772 24.2748 30.3501 24.4431C30.5229 24.6114 30.6201 24.8397 30.6201 25.0778V27.9813H32.941C33.1855 27.9813 33.42 28.0759 33.5929 28.2442C33.7657 28.4126 33.8629 28.6409 33.8629 28.8789C33.8629 29.1169 33.7657 29.3452 33.5929 29.5136C33.42 29.6819 33.1855 29.7764 32.941 29.7764Z" fill="#FF6D14"/>
<path d="M33.1739 14.0535C32.7354 14.0644 32.2976 14.0715 31.8617 14.0715C30.0104 14.0709 28.1605 13.9748 26.3196 13.7836H26.3038C25.2062 13.6599 24.131 13.1297 23.2671 12.2911C22.4033 11.4525 21.862 10.403 21.7343 9.33496C21.7346 9.32983 21.7346 9.32469 21.7343 9.31957C21.4897 7.09159 21.3965 4.85032 21.4551 2.61037C17.9953 2.52918 14.5338 2.66795 11.0926 3.02581C8.79405 3.28546 6.59027 5.43189 6.32294 7.67C5.72048 13.1611 5.72048 23.3573 6.32294 28.8484C6.58961 31.0865 8.79405 33.2329 11.0926 33.4925C14.9951 33.8993 18.9231 34.0238 22.8444 33.865C22.0138 32.7805 21.4659 31.5159 21.248 30.1797C21.0301 28.8436 21.1486 27.4759 21.5934 26.1942H12.4069C12.1624 26.1942 11.9279 26.0996 11.7551 25.9313C11.5822 25.763 11.4851 25.5347 11.4851 25.2966C11.4851 25.0586 11.5822 24.8303 11.7551 24.662C11.9279 24.4936 12.1624 24.3991 12.4069 24.3991H22.4809C23.2131 23.2872 24.2035 22.3584 25.3721 21.6878H12.4069C12.1624 21.6878 11.9279 21.5933 11.7551 21.4249C11.5822 21.2566 11.4851 21.0283 11.4851 20.7903C11.4851 20.5522 11.5822 20.3239 11.7551 20.1556C11.9279 19.9873 12.1624 19.8927 12.4069 19.8927H26.6949C26.9394 19.8927 27.1739 19.9873 27.3467 20.1556C27.5196 20.3239 27.6167 20.5522 27.6167 20.7903V20.7954C29.481 20.346 31.446 20.5152 33.2003 21.2762C33.251 18.892 33.2418 16.391 33.1739 14.0535ZM22.0885 17.1821H12.4095C12.165 17.1821 11.9306 17.0876 11.7577 16.9192C11.5848 16.7509 11.4877 16.5226 11.4877 16.2846C11.4877 16.0465 11.5848 15.8182 11.7577 15.6499C11.9306 15.4816 12.165 15.387 12.4095 15.387H22.0885C22.333 15.387 22.5675 15.4816 22.7403 15.6499C22.9132 15.8182 23.0103 16.0465 23.0103 16.2846C23.0103 16.5226 22.9132 16.7509 22.7403 16.9192C22.5675 17.0876 22.333 17.1821 22.0885 17.1821Z" fill="#FF6D14"/>
<path d="M26.5066 12.0765C28.7001 12.3049 30.9067 12.3925 33.112 12.3387L33.1068 12.3304C30.5023 8.50199 27.1392 5.21839 23.2144 2.67206C23.1575 4.83003 23.2475 6.98931 23.4837 9.13571C23.6523 10.5538 25.0495 11.9143 26.5066 12.0765Z" fill="#FF6D14"/>
</svg>
