<svg width="39" height="42" viewBox="0 0 39 42" fill="none" xmlns="http://www.w3.org/2000/svg">
<path fill-rule="evenodd" clip-rule="evenodd" d="M16.6079 29.762C16.3859 30.2569 15.9159 30.5985 15.3726 30.5985C14.6156 30.5985 14.0011 29.9355 14.0011 29.1188C14.0011 28.3021 14.6156 27.6391 15.3726 27.6391C15.9159 27.6391 16.3859 27.9808 16.6079 28.4757H20.1208V24.745C19.6455 24.5125 19.3144 23.9958 19.3144 23.3964C19.3144 22.5798 19.929 21.9167 20.6859 21.9167C21.2293 21.9167 21.6992 22.2584 21.9212 22.7533H25.4245V19.0242C24.9439 18.794 24.6084 18.2744 24.6084 17.6709C24.6084 16.8543 25.2229 16.1912 25.9798 16.1912C26.5244 16.1912 26.9952 16.5343 27.2166 17.031H30.7281V13.3092C30.2429 13.0812 29.9032 12.5589 29.9032 11.9517C29.9032 11.135 30.5177 10.472 31.2746 10.472C31.818 10.472 32.2879 10.8137 32.5099 11.3086H36.6279C36.9569 11.3086 37.224 11.5968 37.224 11.9517C37.224 12.3067 36.9569 12.5949 36.6279 12.5949H32.5099C32.3833 12.8772 32.1759 13.1097 31.9203 13.2573V17.6741C31.9203 18.0293 31.6535 18.3173 31.3242 18.3173H27.2137C27.0855 18.6015 26.8754 18.8348 26.6167 18.9816V23.3964C26.6167 23.7517 26.3498 24.0396 26.0206 24.0396H21.9212C21.7915 24.3288 21.5771 24.5656 21.313 24.7125V29.1188C21.313 29.474 21.0461 29.762 20.7169 29.762H16.6079ZM27.8132 19.6035H31.3242C31.785 19.6035 32.2051 19.4155 32.5221 19.1066C32.5255 19.1216 32.5287 19.1366 32.532 19.1516L35.3023 20.3019V25.1836L32.532 26.334C32.1812 27.9268 31.5934 29.4458 30.8006 30.842L32.0035 33.7719L28.805 37.2231L26.0894 35.9252C24.7999 36.7855 23.3874 37.4147 21.9112 37.7933L20.845 40.7823H16.3205L15.2543 37.7933C13.7735 37.4147 12.3656 36.7806 11.0716 35.9252L8.35605 37.2231L5.15741 33.7719L6.36492 30.842C5.56752 29.4508 4.98433 27.9268 4.62892 26.334L1.85864 25.1836V20.3019L4.62892 19.1516C4.98433 17.5539 5.56752 16.0348 6.36492 14.6386L5.15741 11.7086L8.35605 8.25756L11.0716 9.56031C12.3656 8.70003 13.7735 8.07072 15.2498 7.69224L16.3205 4.69836H20.845L21.9112 7.69224C23.0279 7.9786 24.1056 8.40837 25.1244 8.97321C23.8291 10.5405 22.4002 12.0233 20.9092 13.3522C20.1656 13.138 19.3841 13.0238 18.5779 13.0238C13.6034 13.0238 9.57495 17.3703 9.57495 22.7375C9.57495 25.9027 10.976 28.7149 13.1458 30.4895C13.5877 31.3228 14.4197 31.8848 15.3726 31.8848C15.4207 31.8848 15.4686 31.8834 15.5161 31.8806C16.4717 32.2535 17.5027 32.4568 18.5779 32.4568C22.9634 32.4568 26.6177 29.0743 27.4215 24.5957C27.664 24.2664 27.8088 23.8497 27.8088 23.3964V19.6084C27.8103 19.6068 27.8117 19.6052 27.8132 19.6035ZM24.4973 15.4147C24.4329 15.3541 24.3677 15.2944 24.3017 15.2358C26.2482 13.3756 28.0666 11.3 29.6197 9.13673L30.0029 9.55002C29.2313 10.027 28.711 10.9243 28.711 11.9517C28.711 12.7547 29.0288 13.4782 29.536 13.9837V15.7447H27.8189C27.3529 15.2269 26.701 14.9049 25.9798 14.9049C25.4277 14.9049 24.916 15.0937 24.4973 15.4147ZM31.3766 3.93455C27.4836 11.6725 19.0823 19.4456 12.3563 21.421C12.0388 21.5143 11.7109 21.3119 11.6245 20.9694C11.5381 20.6269 11.7257 20.2731 12.0431 20.18C18.5531 18.2679 26.6759 10.6886 30.3904 3.19848L29.893 3.3423C29.5752 3.43411 29.248 3.23039 29.1629 2.88752C29.0777 2.54465 29.2666 2.19165 29.5843 2.09984L31.4071 1.57287C31.7252 1.4809 32.052 1.68453 32.1372 2.02757L32.6257 3.99428C32.7108 4.33715 32.522 4.69016 32.2042 4.78196C31.8864 4.87385 31.5593 4.67006 31.4741 4.32727L31.3766 3.93455Z" fill="#FF6D14"/>
</svg>
