<svg width="26" height="25" viewBox="0 0 26 25" fill="none" xmlns="http://www.w3.org/2000/svg">
<g clip-path="url(#clip0_1_481)">
<path d="M12.6718 12.0429C14.3262 12.0429 15.7588 11.4495 16.9294 10.2788C18.0999 9.10824 18.6933 7.67602 18.6933 6.0214C18.6933 4.36735 18.0999 2.93494 16.9292 1.76402C15.7585 0.593679 14.326 0.000305176 12.6718 0.000305176C11.0172 0.000305176 9.58495 0.593679 8.41441 1.76421C7.24387 2.93475 6.6503 4.36716 6.6503 6.0214C6.6503 7.67602 7.24387 9.10843 8.4146 10.279C9.58533 11.4493 11.0177 12.0429 12.6718 12.0429Z" fill="#FF6D14"/>
<path d="M23.2078 19.224C23.174 18.7369 23.1058 18.2055 23.0052 17.6443C22.9038 17.079 22.7731 16.5446 22.6167 16.0561C22.4552 15.5512 22.2354 15.0526 21.9638 14.5748C21.6819 14.0789 21.3508 13.6471 20.9793 13.2918C20.5907 12.92 20.115 12.6212 19.565 12.4032C19.0168 12.1863 18.4093 12.0764 17.7595 12.0764C17.5043 12.0764 17.2574 12.1811 16.7808 12.4915C16.4874 12.6828 16.1443 12.904 15.7613 13.1487C15.4338 13.3574 14.9902 13.5529 14.4422 13.7299C13.9076 13.9029 13.3647 13.9906 12.829 13.9906C12.2932 13.9906 11.7505 13.9029 11.2153 13.7299C10.6679 13.5531 10.2243 13.3576 9.89718 13.1489C9.51781 12.9065 9.17448 12.6852 8.87675 12.4913C8.40067 12.1809 8.15367 12.0762 7.89847 12.0762C7.24844 12.0762 6.64114 12.1863 6.09316 12.4033C5.54346 12.621 5.06758 12.9198 4.67867 13.292C4.30731 13.6475 3.97601 14.0791 3.69448 14.5748C3.42307 15.0526 3.20334 15.551 3.0416 16.0563C2.88538 16.5448 2.75473 17.079 2.65326 17.6443C2.55274 18.2047 2.48446 18.7363 2.4507 19.2246C2.41751 19.7029 2.40073 20.1994 2.40073 20.7008C2.40073 22.0058 2.81557 23.0623 3.63364 23.8415C4.44159 24.6103 5.51066 25.0004 6.81071 25.0004H18.8484C20.1484 25.0004 21.2171 24.6105 22.0252 23.8415C22.8435 23.0629 23.2583 22.0062 23.2583 20.7007C23.2582 20.1969 23.2412 19.7001 23.2078 19.224Z" fill="#FF6D14"/>
</g>
<defs>
<clipPath id="clip0_1_481">
<rect width="25" height="25" fill="white" transform="translate(0.349945 0.000305176)"/>
</clipPath>
</defs>
</svg>
