<svg width="38" height="38" viewBox="0 0 38 38" fill="none" xmlns="http://www.w3.org/2000/svg">
<path fill-rule="evenodd" clip-rule="evenodd" d="M5.50634 0.166989H29.743C32.6047 0.115747 34.9713 2.384 35.0413 5.24532V16.2453C34.2085 15.4212 33.2643 14.7177 32.2363 14.1553C27.44 11.6007 21.5717 12.2231 17.4179 15.727C13.2641 19.2309 11.6616 24.9104 13.3713 30.0687C13.726 31.1663 14.232 32.2091 14.8747 33.167H5.50634C2.63761 33.2181 0.268159 30.9389 0.208008 28.0703V5.26366C0.268159 2.39511 2.63761 0.115839 5.50634 0.166989ZM9.37467 11.167H25.8747C26.8872 11.167 27.708 10.3462 27.708 9.33366C27.708 8.32112 26.8872 7.50032 25.8747 7.50032H9.37467C8.36216 7.50032 7.54134 8.32112 7.54134 9.33366C7.54134 10.3462 8.36216 11.167 9.37467 11.167Z" fill="#FF6D14"/>
<path d="M17.038 33.167C16.1412 32.0826 15.457 30.8385 15.0214 29.5003L17.038 33.167Z" fill="#FF6D14"/>
<path d="M35.0414 18.922L31.3747 15.7687C32.8067 16.5478 34.0565 17.6227 35.0414 18.922Z" fill="#FF6D14"/>
<path d="M15.0214 29.5003L17.038 33.167C16.1412 32.0826 15.457 30.8385 15.0214 29.5003Z" fill="#FF6D14"/>
<path d="M35.0414 18.922L31.3747 15.7687C32.8067 16.5478 34.0565 17.6227 35.0414 18.922Z" fill="#FF6D14"/>
<path fill-rule="evenodd" clip-rule="evenodd" d="M31.3746 15.7686L35.0413 18.9219C34.0566 17.6227 32.8067 16.5478 31.3746 15.7686ZM15.0213 29.5003C15.4569 30.8384 16.1411 32.0825 17.038 33.167L15.0213 29.5003Z" fill="#FF6D14"/>
<path fill-rule="evenodd" clip-rule="evenodd" d="M31.3746 15.7686L35.0413 18.922C36.5487 20.9089 37.3546 23.3398 37.333 25.8336C37.3495 30.6747 34.3217 35.004 29.7686 36.6492C25.2156 38.2944 20.1198 36.9006 17.038 33.167L15.0213 29.5003C13.8403 26.0036 14.4159 22.1519 16.5677 19.1533C18.7195 16.1547 22.184 14.3761 25.8746 14.3753C27.7951 14.3775 29.6849 14.8564 31.3746 15.7686ZM25.398 30.802L30.898 25.302L30.8063 25.357C31.5253 24.6381 31.5253 23.4725 30.8063 22.7536C30.0875 22.0348 28.9218 22.0348 28.203 22.7536L24.5363 26.4203L23.8396 25.027C23.5755 24.3926 22.9787 23.9592 22.2938 23.9042C21.6087 23.8494 20.9505 24.1822 20.5886 24.7665C20.2269 25.3506 20.2221 26.0881 20.5763 26.677L22.4096 30.3436C22.6716 30.8689 23.1692 31.2368 23.748 31.3336H24.0413C24.5477 31.3514 25.0386 31.1589 25.398 30.802Z" fill="#FF8032"/>
</svg>
