<svg width="28" height="28" viewBox="0 0 28 28" fill="none" xmlns="http://www.w3.org/2000/svg">
<g clip-path="url(#clip0_1_397)">
<path d="M20.4869 10.4895H20.3832V6.94276C20.3832 3.40117 17.5001 0.518127 13.9586 0.518127C10.417 0.518127 7.53912 3.40117 7.53912 6.94276V10.4895H7.43023C5.14351 10.4895 3.28198 12.351 3.28198 14.6378V23.3335C3.28198 25.6203 5.14351 27.4818 7.43023 27.4818H20.4869C22.7736 27.4818 24.6351 25.6203 24.6351 23.3335V14.6378C24.6352 12.351 22.7737 10.4895 20.4869 10.4895ZM14.9957 19.5431C14.9957 20.1135 14.5342 20.5802 13.9586 20.5802C13.3882 20.5802 12.9215 20.1135 12.9215 19.5431V18.4283C12.9215 17.8579 13.3882 17.3912 13.9586 17.3912C14.5341 17.3912 14.9957 17.8579 14.9957 18.4283V19.5431ZM18.3091 10.4895H9.61327V6.94276C9.61327 4.54197 11.563 2.59228 13.9586 2.59228C16.3542 2.59228 18.3091 4.54197 18.3091 6.94276V10.4895Z" fill="#98A2B3"/>
</g>
<defs>
<clipPath id="clip0_1_397">
<rect width="27" height="27" fill="white" transform="translate(0.458496 0.5)"/>
</clipPath>
</defs>
</svg>
