<svg width="461" height="466" viewBox="0 0 461 466" fill="none" xmlns="http://www.w3.org/2000/svg">
<g clip-path="url(#clip0_1_262)">
<path d="M70.7499 24.2916V207.244C70.7499 220.418 81.432 231.093 94.6154 231.093H278.755C291.939 231.093 302.613 220.418 302.613 207.244V24.2916C302.613 11.1172 291.939 0.442566 278.755 0.442566H94.6154C81.432 0.442566 70.7499 11.1172 70.7499 24.2916Z" fill="#E5E8FF"/>
<path d="M278.755 227.086C289.016 227.086 297.363 218.739 297.363 208.483V25.5307C297.363 15.2717 289.016 6.92511 278.755 6.92511H94.6155C84.3494 6.92511 75.9997 15.2717 75.9997 25.5307V208.48C75.9997 218.739 84.3521 227.083 94.6155 227.083H278.755V227.086Z" fill="white"/>
<path d="M180.275 124.521L93.3955 124.521L93.3955 118.42L180.275 118.42L180.275 124.521Z" fill="#C5CDE3"/>
<path d="M137.68 113.176L93.3955 113.176L93.3955 107.074L137.68 107.074L137.68 113.176Z" fill="#C5CDE3"/>
<path d="M160.625 149.786L93.3955 149.786L93.3955 132.098L160.625 132.098L160.625 149.786Z" fill="#C5CDE3"/>
<path d="M93.8206 210.189H270.324V144.057C270.324 144.057 272.085 140.908 260.461 145.731C248.834 150.553 241.437 175.947 227.698 173.377C213.959 170.805 205.15 158.269 191.763 163.092C178.375 167.914 170.976 192.667 153.361 186.238C135.746 179.809 131.165 168.88 113.199 171.13C95.2323 173.38 92.0599 194.443 93.8233 210.194L93.8206 210.189Z" fill="#FF6D14"/>
<path d="M94.7092 179.986C94.6421 179.986 94.575 179.978 94.5052 179.962C94.0248 179.849 93.7269 179.372 93.8396 178.892C96.5799 167.155 103.233 160.3 113.086 159.066C124.713 157.61 130.999 161.592 138.278 166.203C142.473 168.861 147.229 171.873 153.667 174.222C163.936 177.969 170.469 170.612 177.385 162.821C181.669 157.996 186.097 153.007 191.46 151.076C200.013 147.997 206.691 151.639 213.761 155.499C218.133 157.886 222.653 160.353 227.862 161.327C235.307 162.714 241.043 154.898 246.596 147.332C250.74 141.686 255.026 135.847 260.12 133.734C260.577 133.546 261.097 133.761 261.288 134.216C261.476 134.672 261.261 135.193 260.805 135.383C256.17 137.304 252.034 142.939 248.035 148.389C242.157 156.397 236.075 164.682 227.532 163.084C222.043 162.056 217.397 159.519 212.904 157.068C205.907 153.248 199.863 149.952 192.064 152.758C187.131 154.536 183.043 159.138 178.719 164.009C171.711 171.905 164.465 180.061 153.055 175.901C146.437 173.485 141.595 170.419 137.322 167.713C130.046 163.102 124.3 159.463 113.309 160.839C101.881 162.271 97.3583 171.669 95.5788 179.302C95.4822 179.713 95.1172 179.991 94.7119 179.991L94.7092 179.986Z" fill="#242B2B"/>
<path d="M252.294 72.7245H267.407V90.1848H252.294V72.7245Z" fill="#FF8033"/>
<path d="M231.359 55.873H246.473V90.1848H231.359V55.873Z" fill="#FF4148"/>
<path d="M210.422 41.1913H225.535V90.1821H210.422V41.1913Z" fill="#007AFD"/>
<path d="M188.151 68.9562H203.264V90.1821H188.151V68.9562Z" fill="#444BA1"/>
<path d="M269.324 23.4789C269.324 26.6974 271.93 29.3017 275.151 29.3017C278.371 29.3017 280.977 26.6974 280.977 23.4789C280.977 20.2604 278.371 17.6561 275.151 17.6561C271.93 17.6561 269.324 20.2604 269.324 23.4789Z" fill="#E5E8FF"/>
<path d="M254.522 23.4789C254.522 26.6974 257.128 29.3017 260.349 29.3017C263.569 29.3017 266.175 26.6974 266.175 23.4789C266.175 20.2604 263.569 17.6561 260.349 17.6561C257.128 17.6561 254.522 20.2604 254.522 23.4789Z" fill="#E5E8FF"/>
<path d="M239.717 23.4789C239.717 26.6974 242.323 29.3017 245.544 29.3017C248.765 29.3017 251.371 26.6974 251.371 23.4789C251.371 20.2604 248.765 17.6561 245.544 17.6561C242.323 17.6561 239.717 20.2604 239.717 23.4789Z" fill="#E5E8FF"/>
<path d="M307.331 458.782L328.191 447.515L333.822 442.545L356.544 445.965L356.525 463.771C356.715 464.699 356.012 465.555 355.084 465.555H306.437C305.619 465.555 304.956 464.892 304.956 464.074V462.309C304.956 460.754 305.884 459.37 307.328 458.782H307.331Z" fill="black"/>
<path d="M333.821 442.545L337.12 423.988L356.557 430.948L356.544 445.965C347.324 449.849 338.991 448.513 333.821 442.545Z" fill="#FFCFC5"/>
<path d="M326.926 454.639L327.713 454.218C326.025 451.069 322.938 450.755 322.809 450.742L322.726 451.629C322.836 451.64 325.472 451.924 326.926 454.639Z" fill="white"/>
<path d="M322.377 457.176L323.164 456.755C321.475 453.606 318.389 453.292 318.26 453.279L318.177 454.167C318.29 454.177 320.922 454.462 322.377 457.176Z" fill="white"/>
<path d="M433.216 444.002L430.827 420.429L428.401 413.324L440.296 393.675L456.738 400.536C457.669 400.718 458.187 401.695 457.83 402.553L439.128 447.429C438.814 448.183 437.947 448.54 437.193 448.226L435.564 447.547C434.128 446.949 433.205 445.56 433.218 444.002H433.216Z" fill="black"/>
<path d="M428.403 413.321L412.528 403.143L420.274 381.874L440.296 393.672C440.339 403.671 435.9 410.846 428.401 413.321H428.403Z" fill="#FFCFC5"/>
<path d="M432.529 427.048C432.582 426.949 433.857 424.629 436.922 424.331L436.836 423.444C433.277 423.792 431.801 426.515 431.74 426.633L432.529 427.051V427.048Z" fill="white"/>
<path d="M433.122 432.222C433.175 432.123 434.45 429.803 437.515 429.505L437.429 428.617C433.871 428.966 432.394 431.691 432.333 431.806L433.122 432.225V432.222Z" fill="white"/>
<path d="M413.298 415.837C414.256 416.36 415.333 416.443 416.302 416.159C417.27 415.875 418.137 415.218 418.661 414.263L437.838 379.24C438.887 377.322 438.186 374.925 436.273 373.876C435.309 373.35 434.233 373.267 433.261 373.549C432.292 373.833 431.428 374.485 430.902 375.445L411.725 410.468C410.679 412.38 411.377 414.783 413.298 415.834V415.837Z" fill="#242B2B"/>
<path d="M371.474 385.685L371.947 384.929C356.842 375.499 344.393 366.688 334.951 358.741L334.377 359.425C343.851 367.399 356.334 376.234 371.474 385.685Z" fill="white"/>
<path d="M402.321 217.954L363.235 434.014H325.05L353.446 204.46L402.321 217.954Z" fill="#242B2B"/>
<path d="M326.94 418.728C326.94 418.728 357.003 429.253 356.552 429.253H325.638L326.94 418.728Z" fill="black"/>
<path d="M319.575 433.204C319.575 434.292 320.018 435.279 320.735 435.993C321.449 436.706 322.442 437.152 323.534 437.152H363.484C365.675 437.152 367.441 435.384 367.441 433.206C367.441 432.109 366.998 431.125 366.281 430.409C365.567 429.695 364.582 429.25 363.482 429.25H323.531C321.349 429.25 319.575 431.018 319.575 433.204Z" fill="#242B2B"/>
<path d="M334.345 358.872C365.462 383.333 411.728 410.47 411.728 410.47L430.905 375.448L350.848 318.824C350.848 318.824 416.157 253.153 421.951 237.077C430.481 213.418 418.642 198.871 418.642 198.871L369.529 209.744C369.529 209.744 305.106 308.753 306.727 328.2C307.326 335.383 318.99 346.8 334.345 358.87" fill="#242B2B"/>
<path d="M402.321 404.822L427.443 381.767L411.725 410.473L402.321 404.822Z" fill="black"/>
<path d="M351.089 318.442L379.75 337.213L379.262 337.958L350.6 319.187L351.089 318.442Z" fill="white"/>
<path d="M351.162 319.14C351.372 318.931 372.178 297.987 391.126 277.115L390.466 276.517C371.531 297.375 350.738 318.303 350.532 318.513L351.165 319.14H351.162Z" fill="white"/>
<path d="M278.006 132.119C279.032 133.009 281.713 132.245 282.454 133.388C288.27 142.33 308.343 171.192 320.327 172.02C323.816 172.27 328.66 170.915 334.023 168.713C334.557 168.491 335.094 168.268 335.639 168.027C339.788 166.224 344.195 163.969 348.495 161.582C348.779 161.429 349.066 161.271 349.351 161.11C362.601 153.672 371.37 151.918 374.593 145.186C377.476 139.168 372.916 118.553 372.916 118.553C353.972 119.374 341.197 130.936 324.833 141.324L298.085 115.112C296.791 113.774 297.621 113.141 296.979 111.395C294.596 104.869 272.408 127.238 278.009 132.124L278.006 132.119Z" fill="#FF8033"/>
<path d="M338.647 166.662C342.797 164.859 344.195 163.969 348.495 161.579L341.251 141.82L338.647 166.662Z" fill="black"/>
<path d="M429.281 210.403C428.025 211.055 426.747 211.675 425.435 212.259C400.324 223.465 366.625 229.647 350.008 220.005C344.418 216.561 347.432 207.66 348.916 203.749C351.737 196.314 337.971 140.956 341.769 133.186C347.303 121.89 375.119 116.359 375.119 116.359C375.119 116.359 405.381 110.544 420.921 124.21C425.835 128.525 426.527 144.349 426.643 160.005C426.715 169.59 426.57 179.112 427.043 185.887C427.19 187.963 427.394 189.781 427.679 191.27V191.278L427.687 191.286C428.03 193.093 428.495 194.405 429.128 195.081C429.461 195.44 429.772 195.797 430.065 196.148C430.626 196.84 431.117 197.524 431.517 198.192L431.884 198.844L431.909 198.884C431.957 198.964 431.997 199.039 432.032 199.12H432.04C434.705 204.39 432.529 208.673 429.286 210.401L429.281 210.403Z" fill="#FF8033"/>
<path d="M432.035 199.125H432.027L388.563 198.873L427.673 191.275V191.283L427.681 191.291C428.025 193.099 428.489 194.41 429.123 195.086C429.456 195.446 429.767 195.802 430.059 196.154C430.62 196.846 431.112 197.53 431.511 198.197L431.879 198.849L431.903 198.889L432.035 199.125Z" fill="black"/>
<path d="M409.17 145.312C409.17 145.312 408.097 160.117 427.04 185.892C426.568 179.114 426.718 169.59 426.645 160.013L409.17 145.312Z" fill="black"/>
<path d="M384.126 225.965C386.258 224.769 388.399 223.589 390.796 223.098C404.621 220.249 448.195 226.367 458.45 209.403C466.437 196.194 445.065 149.536 437.236 137.309C427.794 122.56 409.576 117.944 409.576 117.944C409.576 117.944 407.088 131.081 408.58 142.767C410.072 154.455 433.229 194.391 433.229 194.391L389.379 198.651C387.165 199.337 384.204 197.937 381.95 197.43C375.151 195.885 378.807 228.947 384.124 225.96L384.126 225.965Z" fill="#FF8033"/>
<path d="M352.896 69.3558C352.896 69.3558 354.378 80.296 361.63 81.4573C368.882 82.6187 370.331 75.6319 370.331 75.6319L366.429 67.4408L360.001 67.8726" fill="black"/>
<path d="M395.812 109.917L392.186 118.998L380.111 121.093L373.52 123.078L374.735 112.379L374.389 109.767L373.461 102.858L393.094 88.259C393.08 89.1736 393.085 90.0828 393.107 90.9733C393.34 101.57 395.812 109.919 395.812 109.919V109.917Z" fill="#FFCFC5"/>
<path d="M393.091 88.259C393.077 89.1736 393.083 90.0828 393.104 90.9733C392.975 91.0028 392.852 91.0269 392.726 91.043C392.535 91.6036 392.417 92.2446 392.366 92.95C390.251 102.495 381.542 109.163 374.384 109.769L373.455 102.86L393.088 88.2617L393.091 88.259Z" fill="#FC9B88"/>
<path d="M395.812 109.919C394.054 115.013 386.354 118.363 380.111 121.093C380.111 121.093 382.795 132.285 384.722 132.116C386.496 131.961 402.254 125.02 401.441 116.222C398.77 114.573 397.951 112.368 395.812 109.919Z" fill="#FFB902"/>
<path d="M380.109 121.093C380.109 121.093 377.038 129.944 374.564 130.826C371.745 131.829 368.949 123.933 369.078 119.647L374.73 112.382C374.395 115.356 373.538 118.03 380.109 121.096V121.093Z" fill="#FFB902"/>
<path d="M374.953 107.074C382.24 106.91 391.523 100.106 393.722 90.2062C393.77 89.5035 393.888 88.8625 394.078 88.302C395.777 88.0499 397.543 86.8671 398.751 85.0111C400.662 82.0661 400.442 78.507 398.236 77.0963C396.977 76.2809 395.383 76.3211 393.861 77.0828C392.012 66.9982 385.825 59.6091 378.485 59.6011C373.584 59.5957 369.201 62.8625 366.259 68.0228C365.905 68.6424 365.567 69.2941 365.258 69.9673C363.476 73.8161 362.435 78.4909 362.446 83.5172C362.416 96.7183 367.298 107.24 374.958 107.074H374.953Z" fill="#FFCFC5"/>
<path d="M407.879 88.9591C406.911 91.845 404.436 94.0577 401.631 95.2646C398.633 96.5413 396.059 98.569 392.914 97.6973L393.204 97.1448C392.989 94.6585 393.558 92.2151 393.727 90.2036C393.767 89.5089 393.883 88.8625 394.079 88.2993C395.775 88.0499 397.546 86.8644 398.751 85.0137C400.657 82.0581 400.434 78.5043 398.236 77.0909C396.977 76.2755 395.378 76.3185 393.867 77.0802C393.867 77.0802 390.469 79.1802 390.922 82.3692L388.571 83.4581L386.81 77.7695C386.81 77.7695 382.514 75.2778 384.062 71.8528C384.062 71.8528 354.711 83.0934 352.963 69.9244C351.219 56.7554 365.382 59.7244 365.382 59.7244C365.382 59.7244 364.002 57.9301 362.913 55.6209C360.733 51.0506 359.668 44.4715 372.682 45.9493C387.624 47.6471 393.595 58.6945 395.59 63.8253C397.425 63.128 399.876 63.5384 401.403 64.7104C403.413 66.2633 403.95 69.4148 402.563 71.539C403.416 70.1443 405.469 69.8305 406.908 70.6029C408.338 71.3754 409.195 72.9659 409.479 74.5724C410.002 77.5093 408.781 80.6902 406.443 82.5275C408.907 84.3218 408.843 86.0785 407.879 88.9618V88.9591Z" fill="black"/>
<path d="M368.302 84.9279L366.783 93.2397L370.868 93.4462L368.302 84.9279Z" fill="#FC9B88"/>
<path d="M322.144 220.413L322.135 220.421L371.48 219.818C373.938 219.791 375.905 217.774 375.879 215.309C375.865 214.14 375.401 213.091 374.663 212.308C373.909 211.517 372.883 211.002 371.719 210.918L344.874 209.143L317.414 207.33L322.138 220.41L322.144 220.413Z" fill="white"/>
<path d="M322.138 220.869H322.144L371.488 220.265C372.795 220.252 374.019 219.729 374.934 218.79C375.846 217.854 376.343 216.615 376.33 215.304C376.313 214.075 375.841 212.903 374.993 212.002C374.134 211.104 372.988 210.562 371.756 210.473L317.449 206.887C317.299 206.877 317.154 206.944 317.063 207.064C316.972 207.185 316.947 207.343 316.998 207.483L321.693 220.483C321.698 220.528 321.711 220.574 321.733 220.617C321.808 220.77 321.964 220.866 322.133 220.866L322.138 220.869ZM318.072 207.823L371.694 211.366C372.701 211.439 373.643 211.884 374.343 212.619C375.036 213.354 375.422 214.314 375.436 215.317C375.447 216.39 375.041 217.404 374.295 218.171C373.549 218.935 372.548 219.364 371.477 219.375L322.46 219.973L318.072 207.823Z" fill="black"/>
<path d="M315.391 207.346L320.114 220.424L344.724 220.126L342.85 209.156L315.391 207.346Z" fill="black"/>
<path d="M278.744 220.941L341.583 220.18L332.597 167.675C332.101 164.776 329.57 162.668 326.626 162.703L269.562 163.395C265.883 163.44 263.116 166.758 263.736 170.382L271.331 214.77C271.946 218.367 275.089 220.984 278.742 220.939L278.744 220.941Z" fill="white"/>
<path d="M278.65 221.387C278.683 221.387 278.717 221.387 278.75 221.387L341.589 220.625C341.72 220.625 341.844 220.566 341.927 220.464C342.01 220.365 342.045 220.231 342.023 220.105L333.038 167.6C332.501 164.465 329.769 162.228 326.623 162.258L269.56 162.95C267.676 162.971 265.904 163.816 264.697 165.261C263.491 166.707 262.982 168.603 263.298 170.457L270.894 214.845C271.546 218.651 274.799 221.387 278.65 221.387ZM341.055 219.74L278.739 220.493C275.274 220.499 272.357 218.096 271.774 214.695L264.179 170.306C263.905 168.708 264.345 167.077 265.384 165.83C266.422 164.583 267.949 163.859 269.571 163.84L326.634 163.148C326.658 163.148 326.679 163.148 326.704 163.148C329.414 163.148 331.701 165.074 332.16 167.748L341.057 219.737L341.055 219.74Z" fill="black"/>
<path d="M325.888 162.706C327.471 163.612 328.631 165.186 328.958 167.083L338.049 220.217L341.583 220.177L332.595 167.681C332.101 164.779 329.567 162.671 326.626 162.703L325.885 162.708L325.888 162.706Z" fill="black"/>
<path d="M292.878 191.937C292.926 195.915 296.19 199.099 300.165 199.05C302.331 199.023 304.261 198.042 305.554 196.513C304.926 196.674 304.266 196.76 303.587 196.768C298.807 196.827 294.877 193 294.818 188.215C294.813 187.753 294.843 187.289 294.907 186.847C293.632 188.166 292.856 189.961 292.881 191.937H292.878Z" fill="#C5CDE3"/>
<path d="M356.305 210.245C356.305 210.245 355.167 210.095 353.543 209.95C355.051 210.245 356.305 210.245 356.305 210.245ZM373.46 204.79C373.46 204.79 373.318 204.774 373.047 204.739C373.307 204.774 373.46 204.79 373.46 204.79Z" fill="#FFCFC5"/>
<path d="M384.301 222.331C384.301 222.331 359.142 228.035 354.898 225.461C352.204 223.819 355.669 220.518 357.708 219.871C355.983 220.04 351.892 220.359 350.478 219.131C346.992 216.1 357.843 214.529 357.843 214.529C357.843 214.529 347.899 214.132 347.748 210.645C347.638 208.145 355.118 208.456 359.338 208.826C357.148 208.389 354.445 207.327 354.268 204.736C353.999 200.815 368.307 204.154 372.645 204.685C370.691 204.382 366.305 199.278 367.274 196.382C368.487 192.745 381.268 201.824 381.268 201.824C384.352 201.37 387.382 221.872 384.301 222.328V222.331Z" fill="#FFCFC5"/>
<path d="M373.46 204.79C373.46 204.79 373.31 204.774 373.047 204.739C373.316 204.774 373.46 204.79 373.46 204.79Z" fill="#014EB1"/>
<path d="M264.729 101.621L285.892 136.121C286.885 137.738 289.005 138.237 290.623 137.247C292.231 136.263 292.749 134.144 291.756 132.529L270.593 98.0299L264.729 101.624V101.621Z" fill="black"/>
<path d="M278.935 111.62L279.748 112.94L285.253 121.919L285.94 123.043C287.287 124.317 294.3 116.882 292.945 115.606C292.945 115.606 287.314 107.366 284.593 105.467C281.799 103.515 270.931 101.302 270.14 105.226C269.345 109.15 278.938 111.62 278.938 111.62H278.935Z" fill="#FFCFC5"/>
<path d="M279.748 112.94L285.253 121.919C285.967 120.895 286.404 118.451 283.718 118.996C283.718 118.996 286.182 117.089 283.315 115.412C283.315 115.412 286.705 112.666 284.778 111.658C283.707 111.105 281.914 112.095 279.745 112.942L279.748 112.94Z" fill="#FC9B88"/>
<path d="M264.97 116.284C265.692 118.727 267.772 118.896 267.772 118.896C267.772 118.896 266.763 121.259 268.237 122.418C269.63 123.515 270.628 122.82 270.736 122.74C270.663 122.901 269.737 124.942 270.985 125.789C272.279 126.664 274.732 125.701 274.732 125.701C274.732 125.701 274.928 128.804 276.981 128.394C279.034 127.991 286.555 125.985 283.718 122.946C284.582 122.662 285.886 118.953 282.647 119.613C282.647 119.613 285.111 117.706 282.244 116.029C282.244 116.029 285.634 113.283 283.707 112.274C281.78 111.277 277.48 115.289 272.92 114.511C272.644 114.476 271.68 112.915 271.101 112.014C271.127 112.068 271.154 112.103 271.154 112.103C271.154 112.103 264.248 113.841 264.97 116.284Z" fill="#FFCFC5"/>
<path d="M282.652 119.607C279.464 120.763 276.243 122.104 272.791 121.857C276.17 122.74 279.761 121.318 282.652 119.607Z" fill="#FC9B88"/>
<path d="M283.72 122.946C281.401 123.99 279.034 124.877 276.471 124.883C278.991 125.516 281.74 124.523 283.72 122.946Z" fill="#FC9B88"/>
<path d="M282.352 115.766C278.857 116.963 275.164 118.69 271.423 117.845C275.032 119.323 279.152 117.526 282.352 115.766Z" fill="#FC9B88"/>
<path d="M269.318 114.72C270.287 115.294 272.926 114.511 272.926 114.511C272.641 114.471 272.166 113.661 271.594 112.763C271.495 112.811 269.224 114.664 269.318 114.723V114.72Z" fill="#FC9B88"/>
<g opacity="0.2">
<path d="M233.375 95.3567C221.858 83.8477 221.858 65.1879 233.375 53.6789C244.892 42.1699 263.564 42.1699 275.081 53.6789C286.598 65.1879 286.598 83.8477 275.081 95.3567C263.564 106.866 244.892 106.866 233.375 95.3567Z" fill="white"/>
</g>
<path d="M254.269 105.314C260.499 105.314 266.782 103.437 272.214 99.5372C286.02 89.6269 289.182 70.3401 279.265 56.5435C269.348 42.7469 250.045 39.5875 236.241 49.4977C222.435 59.408 219.274 78.6948 229.191 92.4914C235.205 100.857 244.672 105.314 254.269 105.314ZM254.189 46.3946C262.955 46.3946 271.597 50.4633 277.091 58.1018C286.147 70.6995 283.259 88.3127 270.652 97.3621C258.046 106.411 240.42 103.525 231.365 90.9278C222.309 78.33 225.197 60.7169 237.804 51.6648C242.763 48.103 248.504 46.3919 254.192 46.3919L254.189 46.3946Z" fill="black"/>
<g opacity="0.2">
<path d="M236.056 58.9038C234.567 62.1786 235.273 65.7028 237.632 66.773C239.991 67.8431 243.11 66.0569 244.599 62.782C246.089 59.5072 245.383 55.983 243.024 54.9128C240.665 53.8427 237.546 55.6289 236.056 58.9038Z" fill="white"/>
</g>
<g opacity="0.2">
<path d="M238.276 78.6672C236.578 77.8965 236.071 75.3607 237.142 73.0033C238.214 70.6458 240.459 69.3595 242.157 70.1302C243.854 70.9009 244.362 73.4367 243.29 75.7942C242.219 78.1516 239.974 79.4379 238.276 78.6672Z" fill="white"/>
</g>
<path d="M102.313 64.2446C102.313 82.2842 116.951 96.9096 135.001 96.9096C153.05 96.9096 167.688 82.2816 167.688 64.2446C167.688 46.2076 153.05 31.5796 135.001 31.5796V64.2446H102.313Z" fill="#1570EF"/>
<path d="M93.4538 58.548H130.001V22.0288C109.818 22.0288 93.4538 38.3761 93.4538 58.5506V58.548Z" fill="#FF8033"/>
<path d="M103.22 360.318C103.22 360.318 85.6833 353.841 78.0395 345.677C71.3109 338.489 67.1642 328.168 74.6094 326.199C82.6774 324.067 90.2863 329.249 96.5587 336.528C102.828 343.807 103.22 360.318 103.22 360.318Z" fill="#1570EF"/>
<path d="M139.477 383.381C139.477 383.381 157.014 376.904 164.658 368.74C171.387 361.552 175.533 351.231 168.088 349.263C160.02 347.13 152.411 352.312 146.139 359.591C139.869 366.87 139.477 383.381 139.477 383.381Z" fill="#1570EF"/>
<path d="M126.044 432.976H126.935C126.935 384.14 159.344 360.189 159.671 359.953L159.151 359.232C158.821 359.471 126.044 383.692 126.044 432.976Z" fill="black"/>
<path d="M131.536 407.3C131.536 407.3 143.342 391.24 154.661 391.267C164.001 391.288 166.811 395.791 165.732 398.35C164.653 400.909 151.877 402.494 146.92 403.612C142.07 404.707 137.55 404.929 131.536 407.3Z" fill="#1570EF"/>
<path d="M129.469 409.714C129.55 409.623 137.706 400.407 157.463 397.808L157.347 396.923C137.226 399.57 129.128 408.743 128.795 409.132L129.472 409.714H129.469Z" fill="black"/>
<path d="M122.37 433.019L123.259 432.933C123.194 432.284 116.543 367.64 87.9621 337.84L87.318 338.457C115.687 368.035 122.308 432.375 122.37 433.019Z" fill="black"/>
<path d="M147.205 425.584V448.695C147.205 458.002 139.681 465.555 130.411 465.555H113.363C104.076 465.555 96.5533 458.002 96.5533 448.695V425.584C96.5533 423.39 98.3328 421.604 100.517 421.604H143.254C145.439 421.604 147.205 423.39 147.205 425.584Z" fill="white"/>
<path d="M147.205 425.584V448.695C147.205 458.002 139.681 465.555 130.411 465.555H113.363C107.649 465.555 102.6 462.693 99.554 458.321C101.905 459.576 104.589 460.29 107.423 460.29H124.472C133.742 460.29 141.265 452.737 141.265 443.43V421.606H143.254C145.439 421.606 147.205 423.393 147.205 425.586V425.584Z" fill="#C5CDE3"/>
<path d="M113.36 466H130.409C139.915 466 147.647 458.235 147.647 448.693V425.584C147.647 423.143 145.675 421.158 143.251 421.158H100.515C98.0832 421.158 96.1025 423.143 96.1025 425.584V448.693C96.1025 458.235 103.843 466 113.358 466H113.36ZM143.254 422.049C145.186 422.049 146.756 423.634 146.756 425.584V448.693C146.756 457.745 139.424 465.107 130.409 465.107H113.36C104.337 465.107 96.9989 457.742 96.9989 448.693V425.584C96.9989 423.634 98.577 422.049 100.518 422.049H143.254Z" fill="black"/>
<path d="M113.803 383.545C113.803 383.545 113.688 363.585 122.77 356.805C130.266 351.21 135.202 353.13 135.862 355.826C136.522 358.521 128.766 369.491 125.459 373.364C122.225 377.154 117.815 380.345 113.803 383.542V383.545Z" fill="#1570EF"/>
<path d="M113.586 386.721C113.594 386.597 114.638 374.313 128.916 360.361L128.294 359.723C113.752 373.932 112.735 386.144 112.697 386.656L113.586 386.721Z" fill="black"/>
<path d="M105.33 390.43C105.33 390.43 87.5326 398.05 76.4238 399.117C66.6435 400.056 57.8859 390.661 60.8972 383.545C64.1582 375.837 70.0602 376.18 79.564 377.446C93.966 379.364 105.333 390.43 105.333 390.43H105.33Z" fill="#1570EF"/>
<path d="M115.835 397.661L116.506 397.073C116.377 396.929 103.405 382.622 74.8376 386.895L74.9691 387.777C103.062 383.591 115.711 397.524 115.835 397.663V397.661Z" fill="black"/>
<path d="M9.02957 184.918C-2.1321 173.764 -2.1321 155.68 9.02957 144.526C20.1912 133.372 38.2879 133.372 49.4496 144.526C60.6112 155.68 60.6112 173.764 49.4496 184.918C38.2879 196.072 20.1912 196.072 9.02957 184.918Z" fill="white"/>
<path d="M29.2536 193.732C43.1268 193.732 55.4327 183.733 57.8509 169.617C60.5537 153.852 49.9145 138.83 34.1383 136.131C26.4945 134.825 18.8023 136.569 12.4709 141.045C6.13952 145.521 1.93647 152.192 0.626713 159.83C-2.07601 175.596 8.56311 190.618 24.3393 193.316C25.9899 193.598 27.6325 193.734 29.2536 193.734V193.732ZM29.1784 136.598C30.7754 136.598 32.383 136.735 33.988 137.009C49.2784 139.626 59.5901 154.185 56.9706 169.467C54.3511 184.747 39.7826 195.057 24.4896 192.434C9.19918 189.816 -1.1125 175.258 1.50702 159.975C2.77652 152.573 6.85343 146.106 12.9862 141.769C17.7905 138.371 23.408 136.598 29.1784 136.598Z" fill="black"/>
<path d="M54.1927 163.558L60.6932 149.558C61.3454 148.158 60.4034 146.543 58.8681 146.412L43.4784 145.111" fill="white"/>
<path d="M54.598 163.746L61.0985 149.746C61.4716 148.949 61.4313 148.053 60.9911 147.292C60.5563 146.538 59.7753 146.044 58.9084 145.969L43.5187 144.671L43.4436 145.559L58.8333 146.857C59.4184 146.908 59.9256 147.23 60.2209 147.739C60.5134 148.246 60.5402 148.842 60.2933 149.373L53.7928 163.376L54.6034 163.751L54.598 163.746Z" fill="black"/>
<path d="M18.6601 155.241C22.8604 151.041 29.6964 151.044 33.9022 155.241C37.4745 158.811 37.9978 164.28 35.4937 168.421L40.0269 172.951C41.0334 173.957 41.0334 175.587 40.0269 176.593C39.525 177.097 38.8648 177.347 38.2045 177.347C37.5443 177.347 36.884 177.095 36.3821 176.593L31.8489 172.063C30.1419 173.093 28.2149 173.619 26.2798 173.619C23.5207 173.619 20.7589 172.57 18.6601 170.47C14.4597 166.27 14.4597 159.439 18.6601 155.239V155.241ZM22.3049 166.831C24.495 169.019 28.0619 169.019 30.2547 166.831C32.4475 164.639 32.4475 161.075 30.2547 158.886C29.1596 157.792 27.7184 157.245 26.2798 157.245C24.8412 157.245 23.3999 157.792 22.3049 158.886C20.1121 161.077 20.1121 164.642 22.3049 166.831Z" fill="#444BA1"/>
<path d="M301.058 66.0472C292.62 57.6155 292.62 43.945 301.058 35.5133C309.495 27.0816 323.175 27.0816 331.613 35.5133C340.05 43.945 340.05 57.6155 331.613 66.0472C323.175 74.4789 309.495 74.4789 301.058 66.0472Z" fill="white"/>
<path d="M316.352 72.8183C327.452 72.8183 337.034 64.4369 338.258 53.1614C339.57 41.0813 330.805 30.1841 318.716 28.8725C312.86 28.2342 307.105 29.9185 302.516 33.6064C297.926 37.2969 295.047 42.5484 294.41 48.4007C293.774 54.253 295.457 60.0007 299.148 64.5897C302.838 69.1788 308.096 72.054 313.952 72.6896C314.757 72.7754 315.557 72.8183 316.352 72.8183ZM316.295 29.6316C317.068 29.6316 317.844 29.6745 318.62 29.7576C330.22 31.0155 338.631 41.4729 337.372 53.0649C336.111 64.6568 325.646 73.057 314.052 71.8018C308.431 71.193 303.388 68.4332 299.845 64.0319C296.303 59.6306 294.69 54.1135 295.299 48.4973C295.908 42.881 298.67 37.8414 303.077 34.301C306.872 31.2515 311.496 29.6316 316.295 29.6316Z" fill="black"/>
<path d="M301.21 57.0202C297.76 48.6713 301.735 39.1082 310.09 35.6602C318.445 32.2122 328.015 36.1852 331.465 44.534C334.915 52.8828 330.94 62.446 322.585 65.894C314.23 69.3419 304.661 65.369 301.21 57.0202Z" fill="#FFB902"/>
<path d="M107.538 283.92C99.1004 275.488 99.1005 261.818 107.538 253.386C115.976 244.954 129.656 244.954 138.093 253.386C146.531 261.818 146.531 275.488 138.093 283.92C129.656 292.352 115.976 292.352 107.538 283.92Z" fill="white"/>
<path d="M122.859 290.694C127.861 290.694 132.679 289.007 136.635 285.829C141.227 282.138 144.105 276.887 144.741 271.034C146.053 258.954 137.287 248.06 125.199 246.746C119.34 246.11 113.588 247.792 108.999 251.479C104.409 255.167 101.529 260.422 100.893 266.274C100.257 272.126 101.94 277.874 105.63 282.463C109.321 287.049 114.579 289.927 120.435 290.563C121.246 290.651 122.056 290.694 122.859 290.694ZM122.775 247.505C123.546 247.505 124.324 247.548 125.1 247.631C136.7 248.889 145.111 259.343 143.852 270.935C143.243 276.552 140.479 281.591 136.074 285.131C131.67 288.672 126.146 290.284 120.529 289.675C114.909 289.063 109.866 286.306 106.323 281.902C102.78 277.501 101.167 271.984 101.776 266.368C102.386 260.751 105.15 255.712 109.554 252.171C113.349 249.122 117.971 247.502 122.773 247.502L122.775 247.505Z" fill="black"/>
<path d="M119.038 284.557C110.243 282.475 104.802 273.661 106.886 264.872C108.97 256.082 117.79 250.645 126.585 252.728C135.381 254.811 140.822 263.624 138.738 272.414C136.653 281.203 127.834 286.64 119.038 284.557Z" fill="#FFB902"/>
<path d="M125.59 278.768C125.442 278.823 125.301 278.817 125.159 278.751C125.017 278.687 124.922 278.58 124.867 278.436L124.3 276.901C123.181 277.196 122.172 277.274 121.272 277.132C120.373 276.991 119.624 276.693 119.025 276.242C118.426 275.791 117.993 275.248 117.726 274.615C117.677 274.482 117.686 274.355 117.747 274.234C117.81 274.109 117.906 274.025 118.039 273.976L119.991 273.257C120.167 273.193 120.321 273.182 120.451 273.225C120.584 273.268 120.699 273.338 120.801 273.433C121.006 273.673 121.278 273.884 121.619 274.066C121.96 274.248 122.383 274.346 122.886 274.358C123.389 274.372 123.97 274.257 124.627 274.014C125.68 273.627 126.397 273.161 126.781 272.624C127.163 272.083 127.244 271.517 127.024 270.916C126.868 270.491 126.608 270.202 126.244 270.046C125.879 269.89 125.364 269.815 124.702 269.818C124.04 269.82 123.19 269.881 122.151 269.997C120.971 270.133 119.942 270.15 119.057 270.052C118.175 269.953 117.44 269.688 116.856 269.257C116.272 268.826 115.821 268.17 115.497 267.292C115.08 266.167 115.138 265.058 115.667 263.968C116.197 262.879 117.151 261.977 118.533 261.269L117.975 259.757C117.92 259.613 117.926 259.468 117.993 259.327C118.056 259.188 118.163 259.09 118.308 259.035L119.647 258.541C119.791 258.486 119.936 258.491 120.078 258.558C120.217 258.621 120.315 258.728 120.37 258.873L120.942 260.431C121.989 260.211 122.932 260.197 123.768 260.387C124.601 260.578 125.298 260.89 125.856 261.324C126.414 261.757 126.799 262.234 127.007 262.754C127.05 262.87 127.048 262.991 127.004 263.116C126.958 263.24 126.862 263.329 126.718 263.384L124.679 264.136C124.549 264.185 124.413 264.202 124.274 264.185C124.135 264.17 123.999 264.095 123.866 263.962C123.626 263.537 123.204 263.251 122.605 263.107C122.004 262.962 121.315 263.035 120.54 263.321C119.751 263.613 119.172 263.991 118.805 264.459C118.438 264.928 118.368 265.468 118.594 266.081C118.744 266.491 118.987 266.786 119.32 266.971C119.653 267.156 120.124 267.251 120.734 267.26C121.344 267.269 122.137 267.225 123.114 267.13C124.459 266.951 125.59 266.899 126.51 266.977C127.426 267.055 128.175 267.306 128.757 267.731C129.338 268.156 129.786 268.8 130.104 269.661C130.417 270.508 130.483 271.329 130.301 272.118C130.119 272.907 129.72 273.635 129.101 274.303C128.482 274.971 127.684 275.551 126.703 276.046L127.262 277.557C127.317 277.702 127.311 277.846 127.244 277.985C127.181 278.124 127.074 278.222 126.929 278.277L125.59 278.771V278.768Z" fill="white"/>
<path d="M318.014 59.4344C317.875 59.4862 317.741 59.4807 317.607 59.418C317.473 59.3579 317.383 59.257 317.331 59.1206L316.796 57.6716C315.739 57.9499 314.786 58.0236 313.937 57.8899C313.088 57.7562 312.381 57.4752 311.815 57.0495C311.25 56.6238 310.841 56.1108 310.589 55.5132C310.543 55.3877 310.551 55.2676 310.609 55.153C310.669 55.0357 310.759 54.9566 310.884 54.9102L312.727 54.2307C312.894 54.1707 313.039 54.1598 313.162 54.2007C313.287 54.2417 313.396 54.3071 313.492 54.3972C313.686 54.6237 313.943 54.8229 314.265 54.9948C314.587 55.1667 314.986 55.2595 315.461 55.2704C315.936 55.284 316.485 55.1749 317.105 54.9457C318.099 54.58 318.776 54.1407 319.139 53.6332C319.499 53.1229 319.576 52.5881 319.368 52.0205C319.221 51.6194 318.975 51.3465 318.631 51.1992C318.287 51.0518 317.801 50.9809 317.176 50.9836C316.55 50.9863 315.747 51.0436 314.767 51.1528C313.653 51.281 312.681 51.2974 311.845 51.2046C311.013 51.1119 310.319 50.8608 309.768 50.4542C309.216 50.0449 308.79 49.4283 308.484 48.5987C308.091 47.5373 308.146 46.4895 308.645 45.4607C309.145 44.432 310.046 43.5807 311.351 42.9121L310.824 41.485C310.772 41.3486 310.778 41.2122 310.841 41.0785C310.901 40.9475 311.002 40.8547 311.138 40.8029L312.403 40.3363C312.542 40.2844 312.676 40.2899 312.809 40.3526C312.94 40.4127 313.033 40.5136 313.085 40.6501L313.626 42.1208C314.614 41.9134 315.504 41.8998 316.294 42.0799C317.08 42.26 317.738 42.5547 318.265 42.964C318.792 43.3733 319.155 43.8235 319.352 44.3147C319.393 44.4238 319.39 44.5384 319.349 44.6558C319.305 44.7731 319.215 44.8577 319.079 44.9095L317.154 45.619C317.031 45.6654 316.903 45.6818 316.771 45.6654C316.64 45.6518 316.512 45.5808 316.386 45.4553C316.16 45.0542 315.764 44.784 315.196 44.6476C314.628 44.5112 313.978 44.5794 313.246 44.8495C312.501 45.1251 311.955 45.4826 311.608 45.9246C311.261 46.3667 311.196 46.8769 311.409 47.4554C311.551 47.8429 311.78 48.1212 312.094 48.2958C312.408 48.4705 312.853 48.5605 313.429 48.5687C314.005 48.5769 314.754 48.536 315.677 48.4459C316.946 48.2767 318.014 48.2276 318.882 48.3013C319.748 48.375 320.455 48.6124 321.004 49.0135C321.553 49.4146 321.976 50.0231 322.276 50.8363C322.571 51.6358 322.634 52.4107 322.462 53.1556C322.29 53.9006 321.913 54.5882 321.329 55.2185C320.744 55.8489 319.991 56.3973 319.065 56.8639L319.592 58.291C319.644 58.4275 319.639 58.5639 319.576 58.6949C319.516 58.8259 319.415 58.9186 319.278 58.9705L318.014 59.4371V59.4344Z" fill="white"/>
</g>
<defs>
<clipPath id="clip0_1_262">
<rect width="460" height="466" fill="white" transform="matrix(-1 0 0 1 460.208 0)"/>
</clipPath>
</defs>
</svg>
