<svg width="20" height="16" viewBox="0 0 20 16" fill="none" xmlns="http://www.w3.org/2000/svg">
<path fill-rule="evenodd" clip-rule="evenodd" d="M3.0661 0.5C1.63863 0.5 0.481445 1.61929 0.481445 3V13C0.481445 14.3807 1.63863 15.5 3.0661 15.5H16.8509C18.2784 15.5 19.4355 14.3807 19.4355 13V3C19.4355 1.61929 18.2784 0.5 16.8509 0.5H3.0661ZM5.34077 4.0265C4.97523 3.73187 4.43197 3.77964 4.12736 4.1332C3.82274 4.48676 3.87213 5.01224 4.23767 5.30687L8.30387 8.58439C9.26237 9.35699 10.6547 9.35699 11.6132 8.58439L15.6794 5.30687C16.0449 5.01224 16.0943 4.48676 15.7897 4.1332C15.4851 3.77964 14.9418 3.73187 14.5763 4.0265L10.5101 7.30402C10.1906 7.56156 9.72647 7.56156 9.40697 7.30403L5.34077 4.0265Z" fill="#98A2B3"/>
</svg>
